<svg xmlns="http://www.w3.org/2000/svg" xmlns:xlink="http://www.w3.org/1999/xlink" width="219.971" height="45.319" viewBox="0 0 219.971 45.319">
  <defs>
    <clipPath id="clip-path">
      <path id="Path_263526" data-name="Path 263526" d="M88.836,162.1v-.9h1.312v1.472h-.8a.547.547,0,0,1-.51-.576m1.887-.9h1.314v.9a.546.546,0,0,1-.509.576h-.805Zm-1.887-1.47a.548.548,0,0,1,.509-.576h.8v1.472H88.836Zm1.887-.576h.805a.547.547,0,0,1,.507.576v.9H90.723Zm-.292-4.735a1.022,1.022,0,0,0-.758.338l-4.29,4.65a1.2,1.2,0,0,0,0,1.592,1.018,1.018,0,0,0,1.519,0l.182-.2v2.327a1.507,1.507,0,0,0,1.451,1.553h3.8a1.507,1.507,0,0,0,1.451-1.553V160.8l.181.2a1.018,1.018,0,0,0,1.519,0,1.192,1.192,0,0,0,0-1.592l-4.289-4.65a1.028,1.028,0,0,0-.758-.338Z" transform="translate(-85.079 -154.42)" fill="#4488c8"/>
    </clipPath>
    <clipPath id="clip-path-2">
      <path id="Path_263527" data-name="Path 263527" d="M88.543,142.511h2.65v.443h-2.65Zm0-.883a.885.885,0,0,0-.883.883v.443H85.45a.883.883,0,0,0-.883.882v1.328a.885.885,0,0,0,.883.883h3.535v-.222a.22.22,0,0,1,.222-.22h1.324a.222.222,0,0,1,.222.22v.222h3.532a.886.886,0,0,0,.885-.883v-1.328a.885.885,0,0,0-.885-.882H92.079v-.443a.886.886,0,0,0-.885-.883Z" transform="translate(-84.567 -141.628)" fill="#4488c8"/>
    </clipPath>
    <clipPath id="clip-path-3">
      <path id="Path_263528" data-name="Path 263528" d="M94.817,144.342a.867.867,0,0,1-.531.182H90.754v.663a.221.221,0,0,1-.222.22H89.208a.219.219,0,0,1-.222-.22v-.663H85.45a.87.87,0,0,1-.529-.182.222.222,0,0,0-.354.177v3.1a.883.883,0,0,0,.883.882h8.836a.885.885,0,0,0,.885-.882v-3.1a.22.22,0,0,0-.121-.2.218.218,0,0,0-.1-.023.22.22,0,0,0-.134.043" transform="translate(-84.567 -144.298)" fill="#4488c8"/>
    </clipPath>
    <clipPath id="clip-path-4">
      <path id="Path_263529" data-name="Path 263529" d="M103.813,147.925a3.383,3.383,0,0,1-.5.5h3.969l-.351-.267a5.906,5.906,0,0,0-1.107-.672l-1.406-.647a3.757,3.757,0,0,1-.609,1.086" transform="translate(-103.317 -146.839)" fill="#4488c8"/>
    </clipPath>
    <clipPath id="clip-path-5">
      <path id="Path_263530" data-name="Path 263530" d="M100.152,147.486a5.907,5.907,0,0,0-1.107.672l-.352.267h3.969a3.211,3.211,0,0,1-.495-.5,3.775,3.775,0,0,1-.611-1.086Z" transform="translate(-98.692 -146.839)" fill="#4488c8"/>
    </clipPath>
    <clipPath id="clip-path-6">
      <path id="Path_263531" data-name="Path 263531" d="M103.2,147.273a3.545,3.545,0,0,1-2.287-.835v.08a.355.355,0,0,1-.2.321,2.591,2.591,0,0,0,4.985,0,.354.354,0,0,1-.2-.321v-.08a3.55,3.55,0,0,1-2.289.835" transform="translate(-100.713 -146.438)" fill="#4488c8"/>
    </clipPath>
    <clipPath id="clip-path-7">
      <path id="Path_263532" data-name="Path 263532" d="M100.5,144.137V145.4a2.858,2.858,0,1,0,5.717,0v-1.265Z" transform="translate(-100.501 -144.137)" fill="#4488c8"/>
    </clipPath>
    <clipPath id="clip-path-8">
      <path id="Path_263533" data-name="Path 263533" d="M104.175,143.694a.351.351,0,1,1-.7,0v-2.471a3.215,3.215,0,0,0-.831.2.364.364,0,0,1,.024.132v1.706a.351.351,0,1,1-.7,0v-1.484a3.308,3.308,0,0,0-1.444,2.732v.364h-.3a.351.351,0,1,0,0,.7h7.2a.351.351,0,0,0,0-.7h-.3v-.364a3.3,3.3,0,0,0-1.446-2.73v1.482a.351.351,0,1,1-.7,0v-1.706a.332.332,0,0,1,.026-.132,3.25,3.25,0,0,0-.831-.2Z" transform="translate(-99.871 -141.223)" fill="#4488c8"/>
    </clipPath>
    <clipPath id="clip-path-9">
      <path id="Path_263534" data-name="Path 263534" d="M102.83,141.432a3.184,3.184,0,0,1,.677.356v-.224a.351.351,0,0,0-.677-.132" transform="translate(-102.83 -141.212)" fill="#4488c8"/>
    </clipPath>
    <clipPath id="clip-path-10">
      <path id="Path_263535" data-name="Path 263535" d="M101.076,141.564v.222a3.314,3.314,0,0,1,.679-.354.352.352,0,0,0-.679.132" transform="translate(-101.076 -141.212)" fill="#4488c8"/>
    </clipPath>
    <clipPath id="clip-path-11">
      <path id="Path_263536" data-name="Path 263536" d="M101.946,141.193v.311a3.245,3.245,0,0,1,.7,0v-.311a.351.351,0,1,0-.7,0" transform="translate(-101.946 -140.841)" fill="#4488c8"/>
    </clipPath>
    <clipPath id="clip-path-12">
      <path id="Path_263537" data-name="Path 263537" d="M99.791,160.474a1.581,1.581,0,0,1,.812.812l4.92-4.919-.812-.814Z" transform="translate(-99.791 -155.554)" fill="#4488c8"/>
    </clipPath>
    <clipPath id="clip-path-13">
      <path id="Path_263538" data-name="Path 263538" d="M100.518,161.2a1.547,1.547,0,0,1,.482.331,1.526,1.526,0,0,1,.331.482l4.92-4.92-.814-.814Z" transform="translate(-100.518 -156.282)" fill="#4488c8"/>
    </clipPath>
    <clipPath id="clip-path-14">
      <path id="Path_263539" data-name="Path 263539" d="M102.414,154.545l-.257.255,3.339,3.339.257-.257a1,1,0,0,0,0-1.413l-1.926-1.925a.993.993,0,0,0-1.413,0" transform="translate(-102.157 -154.25)" fill="#4488c8"/>
    </clipPath>
    <clipPath id="clip-path-15">
      <path id="Path_263540" data-name="Path 263540" d="M98.786,158.582l-.443,1.935a2.579,2.579,0,0,1,1.524,1.522l1.933-.443a1.45,1.45,0,0,0,.623-.307.952.952,0,0,0-.267-.538.943.943,0,0,0-.668-.276.314.314,0,0,1-.318-.318.942.942,0,0,0-.944-.944.32.32,0,0,1-.319-.319.942.942,0,0,0-.814-.935,1.5,1.5,0,0,0-.307.623" transform="translate(-98.343 -157.959)" fill="#4488c8"/>
    </clipPath>
    <clipPath id="clip-path-16">
      <path id="Path_263541" data-name="Path 263541" d="M98.153,160.637a.316.316,0,0,0,.085.3.322.322,0,0,0,.3.085l.847-.194a1.934,1.934,0,0,0-1.036-1.029Z" transform="translate(-98.145 -159.794)" fill="#4488c8"/>
    </clipPath>
    <clipPath id="clip-path-17">
      <path id="Path_263542" data-name="Path 263542" d="M99.063,159.746a1.6,1.6,0,0,1,.814.814l4.92-4.92-.814-.814Z" transform="translate(-99.063 -154.826)" fill="#4488c8"/>
    </clipPath>
  </defs>
  <g id="Group_230714" data-name="Group 230714" transform="translate(15042.17 2045.937)">
    <path id="Path_263522" data-name="Path 263522" d="M99.406,159.276H84.331a3.434,3.434,0,0,1-3.5-3.364V141.426a3.434,3.434,0,0,1,3.5-3.364H99.406a3.434,3.434,0,0,1,3.5,3.364v14.487a3.434,3.434,0,0,1-3.5,3.364" transform="translate(-15123 -2183.999)" fill="#fff"/>
    <path id="Path_263523" data-name="Path 263523" d="M114.149,159.276H99.074a3.434,3.434,0,0,1-3.5-3.364V141.426a3.434,3.434,0,0,1,3.5-3.364h15.075a3.434,3.434,0,0,1,3.5,3.364v14.487a3.434,3.434,0,0,1-3.5,3.364" transform="translate(-15112.155 -2183.999)" fill="#fff"/>
    <path id="Path_263524" data-name="Path 263524" d="M99.406,173.165h0c-10.259,0-18.576-7.992-18.576-17.85a3.434,3.434,0,0,1,3.5-3.364H99.406a3.434,3.434,0,0,1,3.5,3.364V169.8a3.434,3.434,0,0,1-3.5,3.364" transform="translate(-15123 -2173.783)" fill="#fff"/>
    <path id="Path_263525" data-name="Path 263525" d="M99.074,173.165h0c10.259,0,18.576-7.992,18.576-17.85a3.434,3.434,0,0,0-3.5-3.364H99.074a3.434,3.434,0,0,0-3.5,3.364V169.8a3.434,3.434,0,0,0,3.5,3.364" transform="translate(-15112.155 -2173.783)" fill="#fff"/>
    <g id="Group_230675" data-name="Group 230675" transform="translate(-15034.796 -2017.547)">
      <g id="Group_230674" data-name="Group 230674" transform="translate(0 0)" clip-path="url(#clip-path)">
        <rect id="Rectangle_25488" data-name="Rectangle 25488" width="10.917" height="10.264" transform="translate(-0.101 0)" fill="#4488c8"/>
      </g>
    </g>
    <g id="Group_230711" data-name="Group 230711" transform="translate(-15035.685 -2039.748)">
      <g id="Group_230677" data-name="Group 230677" transform="translate(0 0)">
        <g id="Group_230676" data-name="Group 230676" transform="translate(0 0)" clip-path="url(#clip-path-2)">
          <rect id="Rectangle_25489" data-name="Rectangle 25489" width="10.604" height="4.419" transform="translate(0 0)" fill="#4488c8"/>
        </g>
      </g>
      <g id="Group_230679" data-name="Group 230679" transform="translate(0 4.633)">
        <g id="Group_230678" data-name="Group 230678" transform="translate(0 0)" clip-path="url(#clip-path-3)">
          <rect id="Rectangle_25490" data-name="Rectangle 25490" width="10.604" height="4.217" transform="translate(0 -0.015)" fill="#4488c8"/>
        </g>
      </g>
    </g>
    <g id="Group_230712" data-name="Group 230712" transform="translate(-15011.17 -2041.114)">
      <g id="Group_230681" data-name="Group 230681" transform="translate(8.027 10.41)">
        <g id="Group_230680" data-name="Group 230680" transform="translate(0)" clip-path="url(#clip-path-4)">
          <rect id="Rectangle_25491" data-name="Rectangle 25491" width="3.969" height="1.586" fill="#4488c8"/>
        </g>
      </g>
      <g id="Group_230683" data-name="Group 230683" transform="translate(0 10.41)">
        <g id="Group_230682" data-name="Group 230682" transform="translate(0)" clip-path="url(#clip-path-5)">
          <rect id="Rectangle_25492" data-name="Rectangle 25492" width="3.969" height="1.586" fill="#4488c8"/>
        </g>
      </g>
      <g id="Group_230685" data-name="Group 230685" transform="translate(3.508 9.714)">
        <g id="Group_230684" data-name="Group 230684" transform="translate(0 0)" clip-path="url(#clip-path-6)">
          <rect id="Rectangle_25493" data-name="Rectangle 25493" width="4.985" height="2.282" fill="#4488c8"/>
        </g>
      </g>
      <g id="Group_230687" data-name="Group 230687" transform="translate(3.14 5.72)">
        <g id="Group_230686" data-name="Group 230686" transform="translate(0 0)" clip-path="url(#clip-path-7)">
          <rect id="Rectangle_25494" data-name="Rectangle 25494" width="5.717" height="4.125" transform="translate(0 0)" fill="#4488c8"/>
        </g>
      </g>
      <g id="Group_230689" data-name="Group 230689" transform="translate(2.046 0.663)">
        <g id="Group_230688" data-name="Group 230688" transform="translate(0 0)" clip-path="url(#clip-path-8)">
          <rect id="Rectangle_25495" data-name="Rectangle 25495" width="7.904" height="4.355" transform="translate(0 0)" fill="#4488c8"/>
        </g>
      </g>
      <g id="Group_230691" data-name="Group 230691" transform="translate(7.182 0.644)">
        <g id="Group_230690" data-name="Group 230690" transform="translate(0 0)" clip-path="url(#clip-path-9)">
          <rect id="Rectangle_25496" data-name="Rectangle 25496" width="0.677" height="0.576" fill="#4488c8"/>
        </g>
      </g>
      <g id="Group_230693" data-name="Group 230693" transform="translate(4.138 0.644)">
        <g id="Group_230692" data-name="Group 230692" transform="translate(0 0)" clip-path="url(#clip-path-10)">
          <rect id="Rectangle_25497" data-name="Rectangle 25497" width="0.679" height="0.574" fill="#4488c8"/>
        </g>
      </g>
      <g id="Group_230695" data-name="Group 230695" transform="translate(5.648 0)">
        <g id="Group_230694" data-name="Group 230694" transform="translate(0)" clip-path="url(#clip-path-11)">
          <rect id="Rectangle_25498" data-name="Rectangle 25498" width="0.703" height="0.663" transform="translate(0)" fill="#4488c8"/>
        </g>
      </g>
    </g>
    <g id="Group_230713" data-name="Group 230713" transform="translate(-15012.117 -2017.842)">
      <g id="Group_230697" data-name="Group 230697" transform="translate(2.856 2.263)">
        <g id="Group_230696" data-name="Group 230696" transform="translate(0 0)" clip-path="url(#clip-path-12)">
          <rect id="Rectangle_25499" data-name="Rectangle 25499" width="5.733" height="5.733" transform="translate(0 0)" fill="#4488c8"/>
        </g>
      </g>
      <g id="Group_230699" data-name="Group 230699" transform="translate(4.118 3.527)">
        <g id="Group_230698" data-name="Group 230698" transform="translate(0 0)" clip-path="url(#clip-path-13)">
          <rect id="Rectangle_25500" data-name="Rectangle 25500" width="5.734" height="5.734" transform="translate(0 0)" fill="#4488c8"/>
        </g>
      </g>
      <g id="Group_230701" data-name="Group 230701" transform="translate(6.962 0)">
        <g id="Group_230700" data-name="Group 230700" transform="translate(0)" clip-path="url(#clip-path-14)">
          <rect id="Rectangle_25501" data-name="Rectangle 25501" width="3.987" height="3.889" transform="translate(0 0)" fill="#4488c8"/>
        </g>
      </g>
      <g id="Group_230703" data-name="Group 230703" transform="translate(0.343 6.437)">
        <g id="Group_230702" data-name="Group 230702" transform="translate(0 0)" clip-path="url(#clip-path-15)">
          <rect id="Rectangle_25502" data-name="Rectangle 25502" width="4.08" height="4.08" transform="translate(0 0)" fill="#4488c8"/>
        </g>
      </g>
      <g id="Group_230705" data-name="Group 230705" transform="translate(0 9.622)">
        <g id="Group_230704" data-name="Group 230704" transform="translate(0 0)" clip-path="url(#clip-path-16)">
          <rect id="Rectangle_25503" data-name="Rectangle 25503" width="1.251" height="1.253" transform="translate(-0.016)" fill="#4488c8"/>
        </g>
      </g>
      <g id="Group_230707" data-name="Group 230707" transform="translate(1.593 1)">
        <g id="Group_230706" data-name="Group 230706" transform="translate(0 0)" clip-path="url(#clip-path-17)">
          <rect id="Rectangle_25504" data-name="Rectangle 25504" width="5.734" height="5.734" transform="translate(0)" fill="#4488c8"/>
        </g>
      </g>
    </g>
    <path id="Path_263543" data-name="Path 263543" d="M125.943,158.957q-1.164-.487-2.412-1.083a11.032,11.032,0,0,1-2.275-1.451,7.2,7.2,0,0,1-1.694-2.032,5.688,5.688,0,0,1-.665-2.832,6.917,6.917,0,0,1,2.562-5.488,8.574,8.574,0,0,1,2.858-1.517,11.882,11.882,0,0,1,3.633-.529,16.693,16.693,0,0,1,2.359.177,12.127,12.127,0,0,1,2.317.569,7.7,7.7,0,0,1,1.963,1.031,4.359,4.359,0,0,1,1.328,1.531,2.989,2.989,0,0,1,.285,1.72,2.582,2.582,0,0,1-.609,1.4,2.777,2.777,0,0,1-.88.675,2.322,2.322,0,0,1-2.018.028c-.38-.234-.729-.443-1.045-.621a6.744,6.744,0,0,0-.975-.462,5.634,5.634,0,0,0-1.057-.285,7.634,7.634,0,0,0-1.26-.1,5.9,5.9,0,0,0-2.669.476,1.538,1.538,0,0,0-.908,1.449,1.158,1.158,0,0,0,.338.854,3.194,3.194,0,0,0,.922.609,10.263,10.263,0,0,0,1.409.514c.552.163,1.151.344,1.8.543a25.8,25.8,0,0,1,3.049,1.139,10.544,10.544,0,0,1,2.548,1.585,7.194,7.194,0,0,1,1.748,2.2,6.51,6.51,0,0,1,.651,3.022,6.883,6.883,0,0,1-.693,3.049,7.737,7.737,0,0,1-1.909,2.478,9.143,9.143,0,0,1-2.9,1.666,10.707,10.707,0,0,1-3.685.611,16.323,16.323,0,0,1-2.643-.231,11.893,11.893,0,0,1-2.709-.786,10.413,10.413,0,0,1-2.426-1.435,6.75,6.75,0,0,1-1.789-2.182,3.54,3.54,0,0,1-.486-1.668,2.622,2.622,0,0,1,.338-1.354,2.356,2.356,0,0,1,.948-.909,2.8,2.8,0,0,1,1.342-.325,3.634,3.634,0,0,1,1.355.285,4.952,4.952,0,0,1,1.408.908,4.353,4.353,0,0,0,.814.772,6.406,6.406,0,0,0,2.371,1.1,6.364,6.364,0,0,0,1.451.161,5.186,5.186,0,0,0,1.274-.149,3.9,3.9,0,0,0,1.057-.42,2.283,2.283,0,0,0,.731-.651,1.447,1.447,0,0,0,.271-.866,1.335,1.335,0,0,0-.6-1.043,7.45,7.45,0,0,0-1.449-.88,15.668,15.668,0,0,0-1.788-.719q-.935-.312-1.586-.529" transform="translate(-15095.654 -2179.614)" fill="#fff"/>
    <path id="Path_263544" data-name="Path 263544" d="M137.365,159.581a6.529,6.529,0,0,0,.988,1.828,6.6,6.6,0,0,0,3.322,2.3,7,7,0,0,0,2.112.312,6.26,6.26,0,0,0,4.391-1.463,4.205,4.205,0,0,1,1.057-.555,3.042,3.042,0,0,1,.975-.177,2.414,2.414,0,0,1,1.355.394,3.308,3.308,0,0,1,1.368,1.951,2.744,2.744,0,0,1,.054,1.017,3.052,3.052,0,0,1-.325,1.015,2.791,2.791,0,0,1-.772.908,11.005,11.005,0,0,1-1.355,1.043,8.981,8.981,0,0,1-1.748.882,12.918,12.918,0,0,1-2.222.609,15.281,15.281,0,0,1-2.779.231,12.581,12.581,0,0,1-5.04-1.017,13.115,13.115,0,0,1-4.118-2.777,13.3,13.3,0,0,1-2.791-4.106,12.821,12.821,0,0,1,0-10.066,13.037,13.037,0,0,1,6.909-6.869,12.98,12.98,0,0,1,10.04-.014,13.433,13.433,0,0,1,4.118,2.723,12.928,12.928,0,0,1,2.819,4.051,12.373,12.373,0,0,1,1.071,4.986,2.681,2.681,0,0,1-.8,2.019,2.885,2.885,0,0,1-2.1.774Zm13.386-4.879a6.174,6.174,0,0,0-.934-2,6.274,6.274,0,0,0-1.532-1.519,6.8,6.8,0,0,0-2-.948,8.354,8.354,0,0,0-2.359-.326,7.918,7.918,0,0,0-2.343.34,6.746,6.746,0,0,0-1.979.974,6.477,6.477,0,0,0-1.5,1.519,6.226,6.226,0,0,0-.92,1.965Z" transform="translate(-15086.237 -2179.613)" fill="#fff"/>
    <path id="Path_263545" data-name="Path 263545" d="M153.646,166.516a3.038,3.038,0,0,1-.217,1.137,2.626,2.626,0,0,1-.611.923,3.18,3.18,0,0,1-.908.609,2.669,2.669,0,0,1-1.111.231,3.028,3.028,0,0,1-1.178-.231,3.221,3.221,0,0,1-.962-.609,2.845,2.845,0,0,1-.651-.923,2.728,2.728,0,0,1-.245-1.137v-8.753a13.006,13.006,0,0,1,1.073-5.257,13.675,13.675,0,0,1,7.222-7.222,12.956,12.956,0,0,1,5.228-1.073h.056a3,3,0,0,1,2.261.828,2.89,2.89,0,0,1,.8,2.1,2.823,2.823,0,0,1-.243,1.165,2.872,2.872,0,0,1-.663.935,3.261,3.261,0,0,1-.977.623,3.035,3.035,0,0,1-1.178.231h-.056a7.4,7.4,0,0,0-2.938.6,7.635,7.635,0,0,0-2.425,1.626,8.054,8.054,0,0,0-1.656,2.412,7.111,7.111,0,0,0-.621,2.954Z" transform="translate(-15073.766 -2179.475)" fill="#fff"/>
    <path id="Path_263546" data-name="Path 263546" d="M169.821,160.024l6.368-14.011a3.022,3.022,0,0,1,1.1-1.314,2.771,2.771,0,0,1,1.557-.476,2.8,2.8,0,0,1,1.22.272,2.682,2.682,0,0,1,.961.677,3.064,3.064,0,0,1,.6.962,3.118,3.118,0,0,1,.2,1.126,2.666,2.666,0,0,1-.271,1.163l-9.023,19.214a2.928,2.928,0,0,1-1.18,1.316,3.47,3.47,0,0,1-1.4.474,2.986,2.986,0,0,1-1.748-.5,3.287,3.287,0,0,1-1.1-1.288l-9.049-19.24a2.656,2.656,0,0,1-.273-1.165,3.089,3.089,0,0,1,.2-1.126,3.051,3.051,0,0,1,.6-.96,2.8,2.8,0,0,1,.934-.679,3.154,3.154,0,0,1,.6-.2,2.79,2.79,0,0,1,.6-.068,2.827,2.827,0,0,1,1.585.474,3.067,3.067,0,0,1,1.1,1.314Z" transform="translate(-15066.393 -2179.486)" fill="#fff"/>
    <path id="Path_263547" data-name="Path 263547" d="M178.914,159.581a6.531,6.531,0,0,0,.988,1.828,6.6,6.6,0,0,0,3.322,2.3,7,7,0,0,0,2.112.312,6.26,6.26,0,0,0,4.391-1.463,4.2,4.2,0,0,1,1.057-.555,3.043,3.043,0,0,1,.975-.177,2.414,2.414,0,0,1,1.355.394,3.308,3.308,0,0,1,1.368,1.951,2.744,2.744,0,0,1,.054,1.017,3.052,3.052,0,0,1-.324,1.015,2.791,2.791,0,0,1-.772.908,11.007,11.007,0,0,1-1.355,1.043,8.98,8.98,0,0,1-1.748.882,12.917,12.917,0,0,1-2.221.609,15.282,15.282,0,0,1-2.779.231,12.582,12.582,0,0,1-5.04-1.017,13.115,13.115,0,0,1-4.118-2.777,13.3,13.3,0,0,1-2.791-4.106,12.821,12.821,0,0,1,0-10.066,13.037,13.037,0,0,1,6.909-6.869,12.98,12.98,0,0,1,10.04-.014,13.433,13.433,0,0,1,4.119,2.723,12.929,12.929,0,0,1,2.819,4.051,12.372,12.372,0,0,1,1.071,4.986,2.681,2.681,0,0,1-.8,2.019,2.885,2.885,0,0,1-2.1.774ZM192.3,154.7a6.176,6.176,0,0,0-.934-2,6.273,6.273,0,0,0-1.532-1.519,6.8,6.8,0,0,0-2-.948,8.354,8.354,0,0,0-2.359-.326,7.918,7.918,0,0,0-2.343.34,6.745,6.745,0,0,0-1.979.974,6.476,6.476,0,0,0-1.5,1.519,6.226,6.226,0,0,0-.92,1.965Z" transform="translate(-15055.678 -2179.613)" fill="#fff"/>
    <path id="Path_263548" data-name="Path 263548" d="M199.4,161.4a6.666,6.666,0,0,0,.5,2.6,6.512,6.512,0,0,0,6.08,4.042,5.817,5.817,0,0,0,2.53-.531,5.622,5.622,0,0,0,1.892-1.442,6.552,6.552,0,0,0,1.2-2.136,7.955,7.955,0,0,0,.422-2.612V151.256a2.722,2.722,0,0,1,.245-1.156,2.952,2.952,0,0,1,.666-.927,3.275,3.275,0,0,1,.965-.625,2.892,2.892,0,0,1,1.144-.233,2.765,2.765,0,0,1,1.142.233,3.072,3.072,0,0,1,.913.625,2.825,2.825,0,0,1,.611.927,3.032,3.032,0,0,1,.217,1.156v9.986a13.691,13.691,0,0,1-.883,4.924,12.6,12.6,0,0,1-2.461,4.04,11.509,11.509,0,0,1-8.6,3.74,12.067,12.067,0,0,1-4.882-.993,12.517,12.517,0,0,1-3.959-2.707,12.823,12.823,0,0,1-2.666-4,12.2,12.2,0,0,1-.981-4.868V151.256a2.852,2.852,0,0,1,.231-1.156,3.008,3.008,0,0,1,.625-.927,2.964,2.964,0,0,1,.939-.625,2.929,2.929,0,0,1,2.287,0,3.151,3.151,0,0,1,.953.625,2.9,2.9,0,0,1,.639.927,2.853,2.853,0,0,1,.231,1.156Zm-2.15-19.643a3.118,3.118,0,0,1,.26-1.253,3.449,3.449,0,0,1,.692-1.047,3.232,3.232,0,0,1,2.312-.967,3.118,3.118,0,0,1,1.253.26,3.314,3.314,0,0,1,1.753,1.753,3.118,3.118,0,0,1,.26,1.253,3.232,3.232,0,0,1-.967,2.312,3.452,3.452,0,0,1-1.047.694,3.146,3.146,0,0,1-1.253.259,3.188,3.188,0,0,1-1.277-.259,3.215,3.215,0,0,1-1.727-1.729,3.16,3.16,0,0,1-.26-1.277m10.285,0a3.145,3.145,0,0,1,.259-1.253,3.325,3.325,0,0,1,1.755-1.753,3.11,3.11,0,0,1,1.251-.26,3.232,3.232,0,0,1,2.313.967,3.481,3.481,0,0,1,.693,1.047,3.119,3.119,0,0,1,.26,1.253,3.161,3.161,0,0,1-.26,1.277,3.216,3.216,0,0,1-1.727,1.729,3.2,3.2,0,0,1-1.279.259,3.138,3.138,0,0,1-1.251-.259,3.411,3.411,0,0,1-1.047-.694,3.135,3.135,0,0,1-.708-1.034,3.188,3.188,0,0,1-.259-1.277" transform="translate(-15040.127 -2183.681)" fill="#fff"/>
  </g>
</svg>
