<svg id="back-button" xmlns="http://www.w3.org/2000/svg" width="34.906" height="34.906" viewBox="0 0 34.906 34.906">
  <path id="Path_131044" data-name="Path 131044" d="M17.455,34.906A17.453,17.453,0,1,0,0,17.453,17.473,17.473,0,0,0,17.455,34.906Zm0-32.517A15.064,15.064,0,1,1,2.391,17.453,15.081,15.081,0,0,1,17.455,2.389Z" transform="translate(-0.002)" fill="#212121"/>
  <path id="Path_131045" data-name="Path 131045" d="M58.236,75.205a1.294,1.294,0,0,0,1.742,0,1.1,1.1,0,0,0,0-1.629l-4.735-4.427h13.71a1.155,1.155,0,1,0,0-2.3H55.243l4.736-4.428a1.1,1.1,0,0,0,0-1.629,1.294,1.294,0,0,0-1.743,0L51.4,67.182a1.1,1.1,0,0,0,0,1.629Z" transform="translate(-43.158 -50.544)" fill="#212121"/>
</svg>
