<svg id="search_3_" data-name="search (3)" xmlns="http://www.w3.org/2000/svg" width="26.739" height="26.739" viewBox="0 0 26.739 26.739">
  <path id="Path_263549" data-name="Path 263549" d="M5.926,147.206,5,150.68l-3.4.072a13.393,13.393,0,0,1-.1-12.484h0l3.029.555,1.327,3.01a7.979,7.979,0,0,0,.075,5.372Z" transform="translate(0 -131.047)" fill="#fff"/>
  <path id="Path_263550" data-name="Path 263550" d="M274.47,208.176A13.364,13.364,0,0,1,269.7,221.1h0l-3.815-.195-.54-3.37a7.968,7.968,0,0,0,3.428-4.069h-7.149v-5.289H274.47Z" transform="translate(-247.965 -197.304)" fill="#fff"/>
  <path id="Path_263551" data-name="Path 263551" d="M50.654,317.045h0a13.374,13.374,0,0,1-20.146-4.09l4.333-3.547A7.951,7.951,0,0,0,46.3,313.48Z" transform="translate(-28.916 -293.25)" fill="#fff"/>
  <path id="Path_263552" data-name="Path 263552" d="M49.032,3.078,44.7,6.624A7.95,7.95,0,0,0,32.98,10.787L28.625,7.221h0A13.372,13.372,0,0,1,49.032,3.078Z" transform="translate(-27.129)" fill="#fff"/>
</svg>
