<svg xmlns="http://www.w3.org/2000/svg" width="21.262" height="21.262" viewBox="0 0 21.262 21.262">
  <g id="Group_242721" data-name="Group 242721" transform="translate(-749.803 -5006.464)">
    <g id="icons8-linkedin" transform="translate(749.803 5006.464)">
      <path id="Path_282992" data-name="Path 282992" d="M12,18.2h4.43V33.262H12Zm2.2-1.772h-.025A2.12,2.12,0,0,1,12,14.214,2.131,2.131,0,0,1,14.227,12a2.124,2.124,0,0,1,2.2,2.214A2.133,2.133,0,0,1,14.2,16.43ZM33.262,33.262h-4.43V25.2c0-1.947-1.085-3.276-2.828-3.276a2.54,2.54,0,0,0-2.4,1.763,6.39,6.39,0,0,0-.089,1.6v7.973h-4.43V18.2h4.43v2.318a4.481,4.481,0,0,1,4.2-2.318c3.17,0,5.547,1.993,5.547,6.444v8.616Z" transform="translate(-12 -12)" fill="#fff"/>
    </g>
  </g>
</svg>
