<svg xmlns="http://www.w3.org/2000/svg" width="24.647" height="22.1" viewBox="0 0 24.647 22.1">
  <g id="Group_242826" data-name="Group 242826" transform="translate(0.75 0.751)">
    <path id="Path_261942" data-name="Path 261942" d="M50.071,360.1l-5.134,4.133a2.675,2.675,0,0,1-3.305,0L36.454,360.1" transform="translate(-31.695 -353.412)" fill="none" stroke="#6b6b6b" stroke-linecap="round" stroke-linejoin="round" stroke-width="1.5"/>
    <path id="Path_261943" data-name="Path 261943" d="M38.383,354.544H49.73a5.966,5.966,0,0,1,4.309,1.914,6.038,6.038,0,0,1,1.6,4.458v7.857a6.038,6.038,0,0,1-1.6,4.458,5.966,5.966,0,0,1-4.309,1.914H38.383c-3.514,0-5.883-2.858-5.883-6.372v-7.857C32.5,357.4,34.869,354.544,38.383,354.544Z" transform="translate(-32.5 -354.545)" fill="none" stroke="#6b6b6b" stroke-linecap="round" stroke-linejoin="round" stroke-width="1.5" fill-rule="evenodd"/>
  </g>
</svg>
