<svg xmlns="http://www.w3.org/2000/svg" width="21.809" height="23.305" viewBox="0 0 21.809 23.305">
  <g id="phone-receiver-silhouette" transform="translate(0.651 0.658)">
    <path id="Path_262463" data-name="Path 262463" d="M19.076,15.31c-1.329-1.137-2.677-1.825-3.99-.69l-.784.686c-.573.5-1.64,2.824-5.762-1.918S6.872,7.915,7.447,7.421l.788-.687C9.54,5.6,9.047,4.165,8.106,2.691L7.538,1.8C6.592.328,5.561-.638,4.252.5l-.707.618A6.64,6.64,0,0,0,.957,5.51c-.472,3.123,1.017,6.7,4.429,10.623s6.745,5.9,9.905,5.863A6.658,6.658,0,0,0,20,20.046l.71-.619c1.306-1.135.494-2.29-.835-3.429Z" transform="translate(-0.872 0)" fill="none" stroke="#6b6b6b" stroke-width="1.3"/>
  </g>
</svg>
