<svg xmlns="http://www.w3.org/2000/svg" width="74.766" height="74.766" viewBox="0 0 74.766 74.766">
  <g id="Group_241687" data-name="Group 241687" transform="translate(-3 -63.5)">
    <g id="Path_262949" data-name="Path 262949" transform="translate(3 63.5)" fill="none">
      <path d="M37.383,0A37.383,37.383,0,1,1,0,37.383,37.383,37.383,0,0,1,37.383,0Z" stroke="none"/>
      <path d="M 37.383056640625 2.999992370605469 C 32.74005508422852 2.999992370605469 28.23751831054688 3.908653259277344 24.00054550170898 5.700759887695312 C 19.90659332275391 7.432357788085938 16.22920608520508 9.911918640136719 13.0705680847168 13.0705680847168 C 9.911918640136719 16.22920608520508 7.432357788085938 19.90659332275391 5.700759887695312 24.00054550170898 C 3.908653259277344 28.23751831054688 2.999992370605469 32.74005508422852 2.999992370605469 37.383056640625 C 2.999992370605469 42.02605819702148 3.908653259277344 46.52857971191406 5.700759887695312 50.76557159423828 C 7.432357788085938 54.85951995849609 9.911903381347656 58.53689575195312 13.070556640625 61.6955451965332 C 16.22920608520508 64.85419464111328 19.90659332275391 67.33375549316406 24.00054550170898 69.06534576416016 C 28.23751831054688 70.85744476318359 32.74005508422852 71.76610565185547 37.383056640625 71.76610565185547 C 42.02605819702148 71.76610565185547 46.52859497070312 70.85744476318359 50.76557159423828 69.06534576416016 C 54.85951995849609 67.33375549316406 58.53689575195312 64.85419464111328 61.6955451965332 61.6955451965332 C 64.85419464111328 58.53689575195312 67.33375549316406 54.85951995849609 69.06534576416016 50.76557159423828 C 70.85744476318359 46.52859497070312 71.76610565185547 42.02605819702148 71.76610565185547 37.383056640625 C 71.76610565185547 32.74005508422852 70.85744476318359 28.23751831054688 69.06534576416016 24.00054550170898 C 67.33375549316406 19.90659332275391 64.85419464111328 16.22920608520508 61.6955451965332 13.070556640625 C 58.53689575195312 9.911903381347656 54.85951995849609 7.432357788085938 50.76557159423828 5.700759887695312 C 46.52857971191406 3.908653259277344 42.02605819702148 2.999992370605469 37.383056640625 2.999992370605469 M 37.383056640625 -7.62939453125e-06 C 58.02914428710938 -7.62939453125e-06 74.76610565185547 16.73696899414062 74.76610565185547 37.383056640625 C 74.76610565185547 58.02914428710938 58.02914428710938 74.76610565185547 37.383056640625 74.76610565185547 C 16.73696899414062 74.76610565185547 -7.62939453125e-06 58.02914428710938 -7.62939453125e-06 37.383056640625 C -7.62939453125e-06 16.73696899414062 16.73696899414062 -7.62939453125e-06 37.383056640625 -7.62939453125e-06 Z" stroke="none" fill="#fff"/>
    </g>
    <g id="Group_241686" data-name="Group 241686" transform="translate(8.057 69.031)">
      <circle id="Ellipse_5586" data-name="Ellipse 5586" cx="32.055" cy="32.055" r="32.055" transform="translate(0 0)" fill="#fff"/>
      <g id="user_2_" data-name="user (2)" transform="translate(21.473 21.473)">
        <g id="Group_229415" data-name="Group 229415" transform="translate(0)">
          <path id="Path_262408" data-name="Path 262408" d="M18.54,14.041a10.819,10.819,0,0,0-4.127-2.589,6.279,6.279,0,1,0-7.105,0A10.878,10.878,0,0,0,0,21.721H1.7a9.164,9.164,0,0,1,18.327,0h1.7A10.79,10.79,0,0,0,18.54,14.041ZM10.86,10.86a4.582,4.582,0,1,1,4.582-4.582A4.587,4.587,0,0,1,10.86,10.86Z" transform="translate(0)" fill="#9d9d9d"/>
        </g>
      </g>
    </g>
  </g>
</svg>
