<svg xmlns="http://www.w3.org/2000/svg" width="450.668" height="387.16" viewBox="0 0 450.668 387.16">
  <g id="Job_hunt-cuate" data-name="Job hunt-cuate" transform="translate(-46.523 49.551)">
    <g id="freepik--background-complete--inject-97" transform="translate(46.523 -49.552)">
      <rect id="Rectangle_29743" data-name="Rectangle 29743" width="3.959" height="4.527" transform="translate(313.129 189.193) rotate(180)" fill="#fff"/>
      <rect id="Rectangle_29744" data-name="Rectangle 29744" width="3.959" height="4.527" transform="translate(306.27 189.193) rotate(180)" fill="#fff"/>
      <rect id="Rectangle_29940" data-name="Rectangle 29940" width="3.959" height="4.527" transform="translate(42.208 189.193) rotate(180)" fill="#fff"/>
      <rect id="Rectangle_29941" data-name="Rectangle 29941" width="3.959" height="4.527" transform="translate(35.349 189.193) rotate(180)" fill="#fff"/>
      <path id="Path_282546" data-name="Path 282546" d="M627.951,158.124H578.36s4.92-13.434,12.49-13.434,9.919,9.274,9.919,9.274,5.109-5.04,9.307-5.04,7.832,6.657,7.832,6.657S623.865,152,627.951,158.124Z" transform="translate(-234.292 -119.252)" fill="#ebebeb"/>
      <path id="Path_282547" data-name="Path 282547" d="M684.885,113.909h-43.3s9.673-14.019,17.3-14.019,9.871,9.346,9.871,9.346,5.387-4.363,10.37-3.58S684.885,113.909,684.885,113.909Z" transform="translate(-247.919 -14.767)" fill="#ebebeb"/>
      <path id="Path_282548" data-name="Path 282548" d="M154,153.69H91.22s8.6-19.217,17.795-20.4,13.593,14.259,13.593,14.259,5.932-5.464,10.6-5.464,8.263,7.2,8.263,7.2S150.8,144.357,154,153.69Z" transform="translate(-91.22 -88.69)" fill="#ebebeb"/>
      <path id="Path_282549" data-name="Path 282549" d="M115.079,87.932H58.1S67.893,69.283,78.513,69s16.2,14.139,16.2,14.139S111.224,69.86,115.079,87.932Z" transform="translate(20.426 -68.995)" fill="#ebebeb"/>
    </g>
    <g id="freepik--Character--inject-97" transform="translate(70.659 13.186)">
      <rect id="Rectangle_29964" data-name="Rectangle 29964" width="387.435" height="263.451" fill="#263238"/>
      <rect id="Rectangle_29965" data-name="Rectangle 29965" width="387.435" height="38.864" transform="translate(0 224.587)" fill="#dbdbdb"/>
      <rect id="Rectangle_29966" data-name="Rectangle 29966" width="150.998" height="12.616" transform="translate(118.218 310.947)" fill="#c7c7c7"/>
      <path id="Path_282551" data-name="Path 282551" d="M380.25,347.35a6.411,6.411,0,1,1-1.878-4.542,6.42,6.42,0,0,1,1.878,4.542Z" transform="translate(-180.224 -105.939)" fill="#263238"/>
      <path id="Path_282552" data-name="Path 282552" d="M423.194,421.506H308.16l2.926-21.9.146-1.033.267-2.057.138-1.033.275-2.048.043-.318.095-.714.284-2.057.129-1.033,2.048-15.3H416.852l1.928,14.432.095.7.318,2.392.086.7.129.886.2,1.5.086.7.318,2.4.1.688Z" transform="translate(-171.964 -110.55)" fill="#dbdbdb"/>
      <path id="Path_282553" data-name="Path 282553" d="M420.1,393.115l-106.945-3.8,2.048-15.3H417.549Z" transform="translate(-172.661 -110.55)" fill="#c7c7c7"/>
      <rect id="Rectangle_29967" data-name="Rectangle 29967" width="351.678" height="189.182" transform="translate(17.874 17.134)" fill="#fff"/>
      <rect id="Rectangle_29968" data-name="Rectangle 29968" width="351.678" height="189.182" transform="translate(17.874 17.134)" fill="#fff"/>
      <rect id="Rectangle_29969" data-name="Rectangle 29969" width="351.678" height="8.563" transform="translate(17.874 17.134)" fill="#455a64"/>
      <path id="Path_282554" data-name="Path 282554" d="M177.891,92.406a2.126,2.126,0,1,1-2.126-2.126A2.126,2.126,0,0,1,177.891,92.406Z" transform="translate(-153.21 -70.994)" fill="#c7c7c7"/>
      <path id="Path_282555" data-name="Path 282555" d="M187.961,92.406a2.126,2.126,0,1,1-2.117-2.126A2.126,2.126,0,0,1,187.961,92.406Z" transform="translate(-154.614 -70.994)" fill="#fff"/>
      <path id="Path_282556" data-name="Path 282556" d="M198.041,92.406a2.126,2.126,0,1,1-2.126-2.126A2.126,2.126,0,0,1,198.041,92.406Z" transform="translate(-156.019 -70.994)" fill="#4488c8"/>
      <rect id="Rectangle_29970" data-name="Rectangle 29970" width="6.239" height="180.62" transform="translate(363.322 25.688)" fill="#dbdbdb"/>
      <path id="Path_282557" data-name="Path 282557" d="M575.439,172.086h0a1.6,1.6,0,0,1-1.609-1.609V100.769a1.609,1.609,0,0,1,1.609-1.609h0a1.609,1.609,0,0,1,1.609,1.609v69.707a1.609,1.609,0,0,1-1.609,1.609Z" transform="translate(-209.002 -72.232)" fill="#a6a6a6"/>
      <rect id="Rectangle_29971" data-name="Rectangle 29971" width="97.659" height="17.762" transform="translate(29.105 67.435)" fill="#4488c8"/>
      <rect id="Rectangle_29972" data-name="Rectangle 29972" width="97.659" height="41.695" transform="translate(29.105 92.16)" fill="#4488c8"/>
      <path id="Path_282558" data-name="Path 282558" d="M197.668,152.39h1.343l.861,2.487.861-2.487h1.351l-1.282,3.442.955,2.4,2.126-5.843h1.592L202.41,159.9h-1.222l-1.308-3.15-1.3,3.15h-1.222l-3.038-7.513h1.566l2.134,5.843.929-2.4Z" transform="translate(-156.093 -79.653)" fill="#fff"/>
      <path id="Path_282559" data-name="Path 282559" d="M213.364,158.591v1.282H208.14V152.36H213.3v1.282h-3.666v1.85H212.8v1.188h-3.167v1.954Z" transform="translate(-158.02 -79.649)" fill="#fff"/>
      <path id="Path_282560" data-name="Path 282560" d="M220.131,152.36h1.291l2.857,7.513h-1.506l-.7-1.867h-2.582l-.688,1.867H217.3Zm1.678,4.613-1.033-2.952-1.084,2.952Z" transform="translate(-159.297 -79.649)" fill="#fff"/>
      <path id="Path_282561" data-name="Path 282561" d="M226.37,159.873V152.36h3.322a2.22,2.22,0,0,1,.955.215,2.5,2.5,0,0,1,.757.577,2.729,2.729,0,0,1,.5.8,2.4,2.4,0,0,1,.172.861,2.581,2.581,0,0,1-.361,1.334,2.134,2.134,0,0,1-.99.861l1.721,2.823h-1.635l-1.54-2.513h-1.437v2.513Zm1.454-3.8h1.833a.861.861,0,0,0,.379-.095,1.23,1.23,0,0,0,.3-.258,1.633,1.633,0,0,0,.2-.387,1.351,1.351,0,0,0-.241-1.351.946.946,0,0,0-.327-.258.861.861,0,0,0-.37-.086h-1.773Z" transform="translate(-160.561 -79.649)" fill="#fff"/>
      <path id="Path_282562" data-name="Path 282562" d="M239.755,158.591v1.282H234.54V152.36H239.7v1.282h-3.657v1.85H239.2v1.188h-3.158v1.954Z" transform="translate(-161.7 -79.649)" fill="#fff"/>
      <path id="Path_282563" data-name="Path 282563" d="M251.191,152.36v7.513h-1.446v-3.2H246.3v3.2H244.84V152.36H246.3V155.4h3.442V152.36Z" transform="translate(-163.136 -79.649)" fill="#fff"/>
      <path id="Path_282564" data-name="Path 282564" d="M254,159.873V152.36h1.463v7.513Z" transform="translate(-164.413 -79.649)" fill="#fff"/>
      <path id="Path_282565" data-name="Path 282565" d="M257.56,159.873V152.36h3.322a2.22,2.22,0,0,1,.955.215,2.5,2.5,0,0,1,.757.577,2.583,2.583,0,0,1,.5.8,2.417,2.417,0,0,1,.181.861,2.47,2.47,0,0,1-.37,1.334,2.091,2.091,0,0,1-.99.861l1.721,2.823h-1.644l-1.532-2.513h-1.446v2.513Zm1.454-3.8h1.833a.861.861,0,0,0,.379-.095,1.232,1.232,0,0,0,.3-.258,1.37,1.37,0,0,0,.2-.387,1.455,1.455,0,0,0,.077-.482,1.265,1.265,0,0,0-.086-.482,1.429,1.429,0,0,0-.224-.387,1.067,1.067,0,0,0-.336-.258.809.809,0,0,0-.37-.086h-1.773Z" transform="translate(-164.909 -79.649)" fill="#fff"/>
      <path id="Path_282566" data-name="Path 282566" d="M265.73,159.873V152.36h1.463v7.513Z" transform="translate(-166.048 -79.649)" fill="#fff"/>
      <path id="Path_282567" data-name="Path 282567" d="M270.763,155.062v4.811H269.3V152.36h1.136l3.916,4.931v-4.923h1.454v7.5h-1.179Z" transform="translate(-166.546 -79.649)" fill="#fff"/>
      <path id="Path_282568" data-name="Path 282568" d="M283.774,159.015a2.848,2.848,0,0,1-2.091.861,3.322,3.322,0,0,1-1.394-.293,3.545,3.545,0,0,1-1.127-.818,3.777,3.777,0,0,1-.766-1.222,3.985,3.985,0,0,1-.275-1.515,3.745,3.745,0,0,1,.275-1.454,3.873,3.873,0,0,1,.775-1.2,3.658,3.658,0,0,1,1.153-.818,3.546,3.546,0,0,1,1.454-.3,3.486,3.486,0,0,1,1.816.448,2.866,2.866,0,0,1,1.136,1.2l-1.093.8a1.971,1.971,0,0,0-.8-.861,2.169,2.169,0,0,0-1.11-.3,1.988,1.988,0,0,0-.861.2,2.074,2.074,0,0,0-.671.551,2.582,2.582,0,0,0-.439.809,2.944,2.944,0,0,0-.155.964,2.881,2.881,0,0,0,.172.99,2.5,2.5,0,0,0,.465.792,2.186,2.186,0,0,0,.706.542,2.022,2.022,0,0,0,.861.189,2.582,2.582,0,0,0,1.962-1.024v-.525h-1.506v-1.033h2.711v3.864h-1.2Z" transform="translate(-167.776 -79.635)" fill="#fff"/>
      <path id="Path_282569" data-name="Path 282569" d="M190.06,182.61c7.229-.181,14.458-.258,21.687-.327l21.687-.1,21.687.1,10.843.112,10.843.215-10.843.215-10.843.112-21.687.1-21.687-.1C204.518,182.886,197.289,182.791,190.06,182.61Z" transform="translate(-155.499 -83.807)" fill="#fff"/>
      <path id="Path_282570" data-name="Path 282570" d="M190.06,188.15c7.229-.181,14.458-.267,21.687-.336l21.687-.095,21.687.095,10.843.12,10.843.215-10.843.207-10.843.12-21.687.1-21.687-.1C204.518,188.408,197.289,188.322,190.06,188.15Z" transform="translate(-155.499 -84.579)" fill="#fff"/>
      <path id="Path_282571" data-name="Path 282571" d="M190.06,193.68c7.229-.172,14.458-.258,21.687-.327l21.687-.1,21.687.1,10.843.12,10.843.207-10.843.215-10.843.12-21.687.095-21.687-.095C204.518,193.947,197.289,193.9,190.06,193.68Z" transform="translate(-155.499 -85.35)" fill="#fff"/>
      <path id="Path_282572" data-name="Path 282572" d="M190.06,199.22c7.229-.181,14.458-.258,21.687-.327l21.687-.1,21.687.1,10.843.112,10.843.215-10.843.207-10.843.12-21.687.1-21.687-.1C204.518,199.478,197.289,199.4,190.06,199.22Z" transform="translate(-155.499 -86.122)" fill="#fff"/>
      <path id="Path_282573" data-name="Path 282573" d="M190.06,204.76c7.229-.181,14.458-.267,21.687-.336l21.687-.095,21.687.095,10.843.12,10.843.215-10.843.207-10.843.12-21.687.1-21.687-.1Q200.9,204.984,190.06,204.76Z" transform="translate(-155.499 -86.895)" fill="#fff"/>
      <path id="Path_282574" data-name="Path 282574" d="M190.06,210.29c7.229-.172,14.458-.258,21.687-.327l21.687-.1,21.687.1,10.843.12,10.843.207-10.843.215-10.843.12-21.687.095-21.687-.095C204.518,210.557,197.289,210.471,190.06,210.29Z" transform="translate(-155.499 -87.666)" fill="#fff"/>
      <path id="Path_282575" data-name="Path 282575" d="M190.06,215.83c3.133-.181,6.265-.258,9.4-.327s6.265-.095,9.4-.1,6.265,0,9.4.1l4.7.112c1.566.077,3.133.12,4.7.215-1.566.095-3.133.138-4.7.207l-4.7.121c-3.133.086-6.265.095-9.4.1s-6.265,0-9.4-.1S193.192,216.011,190.06,215.83Z" transform="translate(-155.499 -88.437)" fill="#fff"/>
      <path id="Path_282581" data-name="Path 282581" d="M245.545,240.85h1.291l2.857,7.513h-1.48l-.7-1.867h-2.582l-.688,1.867H242.74Zm1.678,4.613-1.033-2.952-1.084,2.952Z" transform="translate(-162.843 -91.986)" fill="#fff"/>
      <path id="Path_282582" data-name="Path 282582" d="M253.263,243.562v4.811H251.8V240.86h1.136l3.916,4.931v-4.914h1.463v7.5h-1.179Z" transform="translate(-164.106 -91.987)" fill="#fff"/>
      <g id="Group_241746" data-name="Group 241746" transform="translate(253.876 140.599)">
        <rect id="Rectangle_29974" data-name="Rectangle 29974" width="97.659" height="27.668" transform="translate(0)" fill="#c7c7c7"/>
        <path id="Path_282586" data-name="Path 282586" d="M190.06,271.1c7.229-.181,14.458-.258,21.687-.327l21.687-.1,21.687.1,10.843.12,10.843.207-10.843.215-10.843.121-21.687.095-21.687-.1C204.518,271.358,197.289,271.281,190.06,271.1Z" transform="translate(-184.604 -264.458)" fill="#fff"/>
        <path id="Path_282587" data-name="Path 282587" d="M190.06,276.64c7.229-.181,14.458-.258,21.687-.327l21.687-.1,21.687.095,10.843.12,10.843.215-10.843.207-10.843.12-21.687.1-21.687-.1C204.518,276.89,197.289,276.812,190.06,276.64Z" transform="translate(-184.604 -265.229)" fill="#fff"/>
        <path id="Path_282588" data-name="Path 282588" d="M190.06,282.172c7.229-.172,14.458-.258,21.687-.327l21.687-.095,21.687.095,10.843.12,10.843.207-10.843.215-10.843.121-21.687.095-21.687-.095C204.518,282.438,197.289,282.352,190.06,282.172Z" transform="translate(-184.604 -266.003)" fill="#fff"/>
        <path id="Path_282589" data-name="Path 282589" d="M190.06,287.71c3.133-.181,6.265-.258,9.4-.327s6.265-.095,9.4-.1,6.265,0,9.4.1l4.7.12c1.566.069,3.133.112,4.7.207-1.566.095-3.133.138-4.7.215l-4.7.12c-3.133.077-6.265.086-9.4.095s-6.265,0-9.4-.1S193.192,287.9,190.06,287.71Z" transform="translate(-184.604 -266.773)" fill="#fff"/>
      </g>
      <path id="Path_282583" data-name="Path 282583" d="M266.7,242.132h-2.4v6.231h-1.446v-6.231h-2.4V240.85H266.7Z" transform="translate(-165.312 -91.986)" fill="#fff"/>
      <path id="Path_282584" data-name="Path 282584" d="M274.015,247.089v1.274H268.8V240.85h5.12v1.282h-3.666v1.807h3.167v1.188h-3.167v1.962Z" transform="translate(-166.477 -91.986)" fill="#fff"/>
      <path id="Path_282585" data-name="Path 282585" d="M276.19,248.363V240.85h2.728a4.036,4.036,0,0,1,1.609.3,3.33,3.33,0,0,1,1.162.8,3.442,3.442,0,0,1,.7,1.2,4.725,4.725,0,0,1,0,3,3.287,3.287,0,0,1-.749,1.179,3.218,3.218,0,0,1-1.17.766,4.07,4.07,0,0,1-1.523.267Zm4.957-3.761a3.329,3.329,0,0,0-.146-1,2.3,2.3,0,0,0-.43-.783,2.083,2.083,0,0,0-.706-.508,2.384,2.384,0,0,0-.947-.181h-1.274v4.957h1.274a2.229,2.229,0,0,0,.955-.2,2,2,0,0,0,.7-.516,2.427,2.427,0,0,0,.43-.792,3.25,3.25,0,0,0,.189-.981Z" transform="translate(-167.507 -91.986)" fill="#fff"/>
      <g id="Group_241745" data-name="Group 241745" transform="translate(29.105 140.599)">
        <rect id="Rectangle_29974-2" data-name="Rectangle 29974" width="97.659" height="27.668" fill="#c7c7c7"/>
        <path id="Path_282586-2" data-name="Path 282586" d="M190.06,271.1c7.229-.181,14.458-.258,21.687-.327l21.687-.1,21.687.1,10.843.12,10.843.207-10.843.215-10.843.121-21.687.095-21.687-.1C204.518,271.358,197.289,271.281,190.06,271.1Z" transform="translate(-184.604 -264.458)" fill="#fff"/>
        <path id="Path_282587-2" data-name="Path 282587" d="M190.06,276.64c7.229-.181,14.458-.258,21.687-.327l21.687-.1,21.687.095,10.843.12,10.843.215-10.843.207-10.843.12-21.687.1-21.687-.1C204.518,276.89,197.289,276.812,190.06,276.64Z" transform="translate(-184.604 -265.229)" fill="#fff"/>
        <path id="Path_282588-2" data-name="Path 282588" d="M190.06,282.172c7.229-.172,14.458-.258,21.687-.327l21.687-.095,21.687.095,10.843.12,10.843.207-10.843.215-10.843.121-21.687.095-21.687-.095C204.518,282.438,197.289,282.352,190.06,282.172Z" transform="translate(-184.604 -266.003)" fill="#fff"/>
        <path id="Path_282589-2" data-name="Path 282589" d="M190.06,287.71c3.133-.181,6.265-.258,9.4-.327s6.265-.095,9.4-.1,6.265,0,9.4.1l4.7.12c1.566.069,3.133.112,4.7.207-1.566.095-3.133.138-4.7.215l-4.7.12c-3.133.077-6.265.086-9.4.095s-6.265,0-9.4-.1S193.192,287.9,190.06,287.71Z" transform="translate(-184.604 -266.773)" fill="#fff"/>
      </g>
      <rect id="Rectangle_29975" data-name="Rectangle 29975" width="97.659" height="17.762" transform="translate(141.231 129.561)" fill="#ffc727"/>
      <rect id="Rectangle_29976" data-name="Rectangle 29976" width="97.659" height="41.695" transform="translate(141.231 154.286)" fill="#c7c7c7"/>
      <path id="Path_282590" data-name="Path 282590" d="M323.937,230.531a2.478,2.478,0,0,0,1.3.361,1.36,1.36,0,0,0,.706-.155.921.921,0,0,0,.4-.473,2.385,2.385,0,0,0,.181-.783V224.55h1.463v3.83a12.355,12.355,0,0,1-.095,1.566,3.064,3.064,0,0,1-.379,1.2,1.936,1.936,0,0,1-.861.775,3.365,3.365,0,0,1-1.48.275,2.788,2.788,0,0,1-1.627-.465Z" transform="translate(-174.11 -89.714)" fill="#fff"/>
      <path id="Path_282591" data-name="Path 282591" d="M333.637,232.106a3.443,3.443,0,0,1-1.5-.318,3.684,3.684,0,0,1-1.153-.861,3.873,3.873,0,0,1-.723-4.062A3.752,3.752,0,0,1,332.2,224.8a3.528,3.528,0,0,1,1.472-.31,3.288,3.288,0,0,1,1.489.336,3.838,3.838,0,0,1,1.145.861,3.975,3.975,0,0,1,.74,1.231,3.751,3.751,0,0,1,.267,1.394,3.881,3.881,0,0,1-.275,1.437,3.968,3.968,0,0,1-.757,1.2,3.589,3.589,0,0,1-1.17.861,3.442,3.442,0,0,1-1.472.293Zm-2.177-3.8a3.1,3.1,0,0,0,.146.938,2.514,2.514,0,0,0,.43.809,2.074,2.074,0,0,0,.688.559,2.023,2.023,0,0,0,.929.207,1.9,1.9,0,0,0,.929-.215,2.04,2.04,0,0,0,.688-.577,2.7,2.7,0,0,0,.43-.809,3,3,0,0,0,.138-.912,2.953,2.953,0,0,0-.155-.947,2.582,2.582,0,0,0-.43-.8,2.168,2.168,0,0,0-.689-.559,2.051,2.051,0,0,0-2.547.568,2.719,2.719,0,0,0-.413.8A3.072,3.072,0,0,0,331.46,228.3Z" transform="translate(-175.006 -89.705)" fill="#fff"/>
      <path id="Path_282592" data-name="Path 282592" d="M339.8,232.063V224.55h1.463v7.513Z" transform="translate(-176.375 -89.714)" fill="#fff"/>
      <path id="Path_282593" data-name="Path 282593" d="M344.763,227.252v4.811H343.3V224.55h1.136l3.907,4.931v-4.914h1.463v7.5h-1.17Z" transform="translate(-176.863 -89.714)" fill="#fff"/>
      <path id="Path_282594" data-name="Path 282594" d="M358.786,232.106a3.443,3.443,0,0,1-1.5-.318,3.588,3.588,0,0,1-1.153-.861,3.768,3.768,0,0,1-.749-1.222,3.941,3.941,0,0,1-.267-1.4,3.725,3.725,0,0,1,.284-1.437,3.838,3.838,0,0,1,1.936-2.065,3.527,3.527,0,0,1,1.472-.31,3.287,3.287,0,0,1,1.489.336,3.881,3.881,0,0,1,1.153.861,4.3,4.3,0,0,1,.74,1.231,3.915,3.915,0,0,1,.258,1.394,3.719,3.719,0,0,1-.275,1.437,3.814,3.814,0,0,1-.757,1.2,3.64,3.64,0,0,1-1.162.861A3.527,3.527,0,0,1,358.786,232.106Zm-2.186-3.8a2.86,2.86,0,0,0,.138.929,2.5,2.5,0,0,0,.422.809,2.169,2.169,0,0,0,.688.559,2.048,2.048,0,0,0,.929.207,1.962,1.962,0,0,0,.938-.215,2.22,2.22,0,0,0,.688-.577,2.684,2.684,0,0,0,.422-.809,3,3,0,0,0,.138-.912,2.943,2.943,0,0,0-.146-.947,2.583,2.583,0,0,0-.439-.8,2.075,2.075,0,0,0-.688-.559,2.116,2.116,0,0,0-1.859.017,2.073,2.073,0,0,0-.68.568,2.582,2.582,0,0,0-.422.8A3.073,3.073,0,0,0,356.6,228.3Z" transform="translate(-178.511 -89.705)" fill="#fff"/>
      <path id="Path_282595" data-name="Path 282595" d="M368.106,230.821a1.721,1.721,0,0,0,.861-.207,1.66,1.66,0,0,0,.568-.551,2.221,2.221,0,0,0,.31-.775,4.5,4.5,0,0,0,.086-.912v-3.83h1.454v3.83a5.3,5.3,0,0,1-.189,1.454,3.322,3.322,0,0,1-.577,1.188,2.874,2.874,0,0,1-1.024.8,3.942,3.942,0,0,1-3.021,0,2.857,2.857,0,0,1-1.024-.861,3.227,3.227,0,0,1-.559-1.188,5.424,5.424,0,0,1-.181-1.411v-3.83h1.463v3.847a5.313,5.313,0,0,0,.086.921,2.219,2.219,0,0,0,.31.775,1.635,1.635,0,0,0,.568.542,1.652,1.652,0,0,0,.869.207Z" transform="translate(-179.862 -89.711)" fill="#fff"/>
      <path id="Path_282596" data-name="Path 282596" d="M374.17,232.063V224.55h3.3a2.109,2.109,0,0,1,.955.224,2.368,2.368,0,0,1,.757.568,2.668,2.668,0,0,1,.5.8,2.487,2.487,0,0,1-.189,2.238,2.048,2.048,0,0,1-.99.861l1.721,2.823h-1.635l-1.532-2.513h-1.446v2.513Zm1.454-3.8h1.842a.861.861,0,0,0,.379-.095,1.231,1.231,0,0,0,.3-.258,1.18,1.18,0,0,0,.181-.4,1.436,1.436,0,0,0,.077-.473,1.274,1.274,0,0,0-.086-.491,1.429,1.429,0,0,0-.224-.387,1.1,1.1,0,0,0-.327-.25.86.86,0,0,0-.379-.095h-1.773Z" transform="translate(-181.167 -89.714)" fill="#fff"/>
      <path id="Path_282597" data-name="Path 282597" d="M390.466,225.792h-2.4v6.231h-1.454v-6.231h-2.4V224.51h6.256Z" transform="translate(-182.566 -89.708)" fill="#fff"/>
      <path id="Path_282598" data-name="Path 282598" d="M397.775,230.789v1.274H392.56V224.55h5.12V225.8h-3.657v1.807h3.158v1.188h-3.158v1.962Z" transform="translate(-183.731 -89.714)" fill="#fff"/>
      <path id="Path_282599" data-name="Path 282599" d="M401.966,224.55h1.291l2.857,7.513h-1.5l-.7-1.867h-2.625l-.688,1.867H399.1Zm1.721,4.613-1.041-2.952-1.076,2.952Z" transform="translate(-184.642 -89.714)" fill="#fff"/>
      <path id="Path_282600" data-name="Path 282600" d="M414.337,232.063v-4.974L412.4,230.8h-.792l-1.936-3.709v4.974H408.21V224.55h1.54l2.22,4.3,2.246-4.3h1.558v7.513Z" transform="translate(-185.912 -89.714)" fill="#fff"/>
      <path id="Path_282601" data-name="Path 282601" d="M320.35,254.8c7.229-.181,14.458-.258,21.687-.327l21.687-.1,21.687.1,10.843.12,10.843.207-10.843.215-10.843.12-21.687.095-21.687-.1C334.808,255.058,327.579,254.981,320.35,254.8Z" transform="translate(-173.663 -93.871)" fill="#fff"/>
      <path id="Path_282602" data-name="Path 282602" d="M320.35,260.34c7.229-.181,14.458-.267,21.687-.336l21.687-.095,21.73.077,10.843.12,10.843.215-10.843.207-10.843.12-21.687.1-21.687-.1C334.808,260.6,327.579,260.512,320.35,260.34Z" transform="translate(-173.663 -94.643)" fill="#fff"/>
      <path id="Path_282603" data-name="Path 282603" d="M320.35,265.872c7.229-.172,14.458-.258,21.687-.327l21.687-.095,21.687.095,10.843.121,10.843.207-10.843.215-10.843.12-21.687.095-21.687-.095C334.808,266.138,327.579,266.052,320.35,265.872Z" transform="translate(-173.663 -95.416)" fill="#fff"/>
      <path id="Path_282604" data-name="Path 282604" d="M320.35,271.41c7.229-.181,14.458-.258,21.687-.327l21.687-.1,21.687.1,10.843.12,10.843.207-10.843.215-10.843.121-21.687.095-21.687-.1C334.808,271.668,327.579,271.591,320.35,271.41Z" transform="translate(-173.663 -96.187)" fill="#fff"/>
      <path id="Path_282605" data-name="Path 282605" d="M320.35,276.93c7.229-.181,14.458-.258,21.687-.336l21.687-.095,21.687.095,10.843.12,10.843.215-10.843.207-10.843.12-21.687.1-21.687-.1C334.808,277.206,327.579,277.12,320.35,276.93Z" transform="translate(-173.663 -96.956)" fill="#fff"/>
      <path id="Path_282606" data-name="Path 282606" d="M320.35,282.482c7.229-.172,14.458-.258,21.687-.327l21.687-.095,21.687.095,10.843.12,10.843.207-10.843.215-10.843.121-21.687.095-21.687-.095C334.808,282.748,327.579,282.662,320.35,282.482Z" transform="translate(-173.663 -97.731)" fill="#fff"/>
      <path id="Path_282607" data-name="Path 282607" d="M320.35,288.02c3.132-.181,6.265-.258,9.4-.327s6.265-.095,9.4-.1,6.265,0,9.4.1l4.7.121c1.566.069,3.133.112,4.7.206-1.566.095-3.133.138-4.7.215l-4.7.121c-3.133.077-6.265.086-9.4.095s-6.265,0-9.4-.1S323.491,288.2,320.35,288.02Z" transform="translate(-173.663 -98.502)" fill="#fff"/>
      <rect id="Rectangle_29977" data-name="Rectangle 29977" width="97.659" height="17.762" transform="translate(141.231 67.435)" fill="#c7c7c7"/>
      <rect id="Rectangle_29978" data-name="Rectangle 29978" width="97.659" height="27.668" transform="translate(141.231 92.16)" fill="#c7c7c7"/>
      <path id="Path_282608" data-name="Path 282608" d="M338.283,152.36h1.291l2.857,7.513h-1.506l-.7-1.867h-2.582l-.688,1.867h-1.5ZM340,156.973l-1.041-2.952-1.076,2.952Z" transform="translate(-175.77 -79.649)" fill="#fff"/>
      <path id="Path_282609" data-name="Path 282609" d="M344.52,159.873V152.36H347.7a2.22,2.22,0,0,1,.955.215,2.393,2.393,0,0,1,.757.577,2.583,2.583,0,0,1,.5.8,2.419,2.419,0,0,1,.181.861,2.652,2.652,0,0,1-.172.929,2.5,2.5,0,0,1-.473.8,2.367,2.367,0,0,1-.74.559,2.22,2.22,0,0,1-.955.215h-1.773v2.513Zm1.463-3.8H347.7a.861.861,0,0,0,.671-.327,1.377,1.377,0,0,0,.275-.861,1.53,1.53,0,0,0-.086-.508,1.205,1.205,0,0,0-.224-.387.948.948,0,0,0-.318-.241.991.991,0,0,0-.379-.077h-1.627Z" transform="translate(-177.033 -79.649)" fill="#fff"/>
      <path id="Path_282610" data-name="Path 282610" d="M352.18,159.873V152.36h3.184a2.22,2.22,0,0,1,.955.215,2.5,2.5,0,0,1,.757.577,2.582,2.582,0,0,1,.5.8,2.418,2.418,0,0,1,.181.861,2.652,2.652,0,0,1-.172.929,2.5,2.5,0,0,1-.473.8,2.366,2.366,0,0,1-.74.559,2.221,2.221,0,0,1-.955.215h-1.773v2.513Zm1.463-3.8h1.721a.861.861,0,0,0,.671-.327,1.377,1.377,0,0,0,.275-.861,1.529,1.529,0,0,0-.086-.508A1.2,1.2,0,0,0,356,154a.946.946,0,0,0-.318-.241.99.99,0,0,0-.379-.077h-1.627Z" transform="translate(-178.101 -79.649)" fill="#fff"/>
      <path id="Path_282611" data-name="Path 282611" d="M359.84,159.873V152.36h1.454v6.231h3.847v1.282Z" transform="translate(-179.169 -79.649)" fill="#fff"/>
      <path id="Path_282612" data-name="Path 282612" d="M366.253,152.357l1.859,3.623,1.876-3.623h1.583l-2.737,4.854v2.625h-1.446v-2.625l-2.719-4.871Z" transform="translate(-179.842 -79.646)" fill="#fff"/>
      <path id="Path_282613" data-name="Path 282613" d="M377.643,155.062v4.811H376.18V152.36h1.127l3.916,4.931v-4.923h1.463v7.5H381.5Z" transform="translate(-181.447 -79.649)" fill="#fff"/>
      <path id="Path_282614" data-name="Path 282614" d="M388.695,159.916a3.442,3.442,0,0,1-1.506-.318,3.554,3.554,0,0,1-1.145-.861,3.631,3.631,0,0,1-.749-1.222,3.821,3.821,0,0,1,0-2.849,3.778,3.778,0,0,1,1.936-2.057,3.529,3.529,0,0,1,1.472-.31,3.288,3.288,0,0,1,1.489.336,3.7,3.7,0,0,1,1.145.861,3.976,3.976,0,0,1,.74,1.231,3.753,3.753,0,0,1,.267,1.394,3.881,3.881,0,0,1-.275,1.437,3.969,3.969,0,0,1-.757,1.2,3.589,3.589,0,0,1-1.17.861A3.443,3.443,0,0,1,388.695,159.916Zm-2.186-3.8a3.14,3.14,0,0,0,.146.938,2.8,2.8,0,0,0,.43.809,2.289,2.289,0,0,0,.688.559,2.048,2.048,0,0,0,.929.207,1.9,1.9,0,0,0,.929-.215,2.04,2.04,0,0,0,.688-.577,2.522,2.522,0,0,0,.43-.809,3,3,0,0,0,.138-.912,2.953,2.953,0,0,0-.155-.947,2.582,2.582,0,0,0-.43-.8,2.074,2.074,0,0,0-.689-.559,2.005,2.005,0,0,0-.912-.207,2.1,2.1,0,0,0-.947.215,2.127,2.127,0,0,0-.688.577,2.523,2.523,0,0,0-.413.8,3.072,3.072,0,0,0-.146.921Z" transform="translate(-182.679 -79.641)" fill="#fff"/>
      <path id="Path_282615" data-name="Path 282615" d="M397,152.386h1.342l.861,2.487.861-2.487h1.351l-1.282,3.442.955,2.4,2.126-5.843H404.8l-3.107,7.487h-1.2l-1.3-3.15-1.3,3.15h-1.231l-3.038-7.513h1.566l2.143,5.843.929-2.4Z" transform="translate(-183.878 -79.649)" fill="#fff"/>
      <path id="Path_282616" data-name="Path 282616" d="M320.35,182.61c7.229-.181,14.458-.258,21.687-.327l21.687-.1,21.687.1,10.843.112,10.843.215-10.843.215-10.843.112-21.687.1-21.687-.1C334.808,182.886,327.579,182.791,320.35,182.61Z" transform="translate(-173.663 -83.807)" fill="#fff"/>
      <path id="Path_282617" data-name="Path 282617" d="M320.35,188.15c7.229-.181,14.458-.267,21.687-.336l21.687-.095,21.687.095,10.843.12,10.843.215-10.843.207-10.843.12-21.687.1-21.687-.1C334.808,188.408,327.579,188.322,320.35,188.15Z" transform="translate(-173.663 -84.579)" fill="#fff"/>
      <path id="Path_282618" data-name="Path 282618" d="M320.35,193.68c7.229-.172,14.458-.258,21.687-.327l21.687-.1,21.687.1,10.843.12,10.843.207-10.843.215-10.843.12-21.687.095-21.687-.095C334.808,193.947,327.579,193.9,320.35,193.68Z" transform="translate(-173.663 -85.35)" fill="#fff"/>
      <path id="Path_282619" data-name="Path 282619" d="M320.35,199.22c3.132-.181,6.265-.258,9.4-.327s6.265-.095,9.4-.1,6.265,0,9.4.1l4.7.112c1.566.077,3.133.12,4.7.215-1.566.095-3.133.138-4.7.207l-4.7.12c-3.133.086-6.265.095-9.4.1s-6.265,0-9.4-.1S323.491,199.4,320.35,199.22Z" transform="translate(-173.663 -86.122)" fill="#fff"/>
      <rect id="Rectangle_29979" data-name="Rectangle 29979" width="97.659" height="17.762" transform="translate(253.248 67.507)" fill="#4488c8"/>
      <rect id="Rectangle_29980" data-name="Rectangle 29980" width="97.659" height="41.695" transform="translate(253.356 92.16)" fill="#4488c8"/>
      <path id="Path_282630" data-name="Path 282630" d="M450.64,182.61c7.229-.181,14.458-.258,21.687-.327l21.687-.1,21.687.1,10.843.112,10.843.215-10.843.215-10.843.112-21.687.1-21.687-.1C465.1,182.886,457.834,182.791,450.64,182.61Z" transform="translate(-191.828 -83.807)" fill="#fff"/>
      <path id="Path_282631" data-name="Path 282631" d="M450.64,188.15c7.229-.181,14.458-.267,21.687-.336l21.687-.095,21.687.095,10.843.12,10.843.215-10.843.207-10.843.12-21.687.1-21.687-.1C465.1,188.408,457.834,188.322,450.64,188.15Z" transform="translate(-191.828 -84.579)" fill="#fff"/>
      <path id="Path_282632" data-name="Path 282632" d="M450.64,193.68c7.229-.172,14.458-.258,21.687-.327l21.687-.1,21.687.1,10.843.12,10.843.207-10.843.215-10.843.12-21.687.095-21.687-.095C465.1,193.947,457.834,193.9,450.64,193.68Z" transform="translate(-191.828 -85.35)" fill="#fff"/>
      <path id="Path_282633" data-name="Path 282633" d="M450.64,199.22c7.229-.181,14.458-.258,21.687-.327l21.687-.1,21.687.1,10.843.112,10.843.215-10.843.207-10.843.12-21.687.1-21.687-.1C465.1,199.478,457.834,199.4,450.64,199.22Z" transform="translate(-191.828 -86.122)" fill="#fff"/>
      <path id="Path_282634" data-name="Path 282634" d="M450.64,204.76c7.229-.181,14.458-.267,21.687-.336l21.687-.095,21.687.095,10.843.12,10.843.215-10.843.207-10.843.12-21.687.1-21.687-.1C465.1,205.018,457.834,204.907,450.64,204.76Z" transform="translate(-191.828 -86.895)" fill="#fff"/>
      <path id="Path_282635" data-name="Path 282635" d="M450.64,210.29c7.229-.172,14.458-.258,21.687-.327l21.687-.1,21.687.1,10.843.12,10.843.207-10.843.215-10.843.12-21.687.095-21.687-.095C465.1,210.557,457.834,210.471,450.64,210.29Z" transform="translate(-191.828 -87.666)" fill="#fff"/>
      <path id="Path_282636" data-name="Path 282636" d="M450.64,215.83c3.133-.181,6.265-.258,9.4-.327s6.265-.095,9.4-.1,6.265,0,9.4.1l4.7.112c1.566.077,3.133.12,4.7.215-1.566.095-3.133.138-4.7.207l-4.7.121c-3.133.086-6.265.095-9.4.1s-6.265,0-9.4-.1S453.773,216.011,450.64,215.83Z" transform="translate(-191.828 -88.437)" fill="#fff"/>
      <path id="Path_282646" data-name="Path 282646" d="M450.64,271.1c7.229-.181,14.458-.258,21.687-.327l21.687-.1,21.687.1,10.843.12,10.843.207-10.843.215-10.843.121-21.687.095-21.687-.1C465.1,271.358,457.834,271.281,450.64,271.1Z" transform="translate(-191.828 -96.143)" fill="#fff"/>
      <path id="Path_282647" data-name="Path 282647" d="M450.64,276.64c7.229-.181,14.458-.258,21.687-.327l21.687-.1,21.687.095,10.843.12,10.843.215-10.843.207-10.843.12-21.687.1-21.687-.1C465.1,276.89,457.834,276.812,450.64,276.64Z" transform="translate(-191.828 -96.916)" fill="#fff"/>
      <path id="Path_282648" data-name="Path 282648" d="M450.64,282.172c7.229-.172,14.458-.258,21.687-.327l21.687-.095,21.687.095,10.843.12,10.843.207-10.843.215-10.843.121-21.687.095-21.687-.095C465.1,282.438,457.834,282.352,450.64,282.172Z" transform="translate(-191.828 -97.688)" fill="#fff"/>
      <path id="Path_282649" data-name="Path 282649" d="M450.64,287.71c3.133-.181,6.265-.258,9.4-.327s6.265-.095,9.4-.1,6.265,0,9.4.1l4.7.12c1.566.069,3.133.112,4.7.207-1.566.095-3.133.138-4.7.215l-4.7.12c-3.133.077-6.265.086-9.4.095s-6.265,0-9.4-.1S453.773,287.9,450.64,287.71Z" transform="translate(-191.828 -98.459)" fill="#fff"/>
      <rect id="Rectangle_29983" data-name="Rectangle 29983" width="321.11" height="22.702" transform="translate(29.105 37.84)" fill="#fff"/>
      <path id="Path_282650" data-name="Path 282650" d="M505.19,134.9H183.22V111.34H505.19Zm-321.11-.861H504.33V112.2H184.081Z" transform="translate(-154.545 -73.93)" fill="#c7c7c7"/>
      <rect id="Rectangle_29984" data-name="Rectangle 29984" width="22.702" height="22.702" transform="translate(327.831 37.84)" fill="#4488c8"/>
      <path id="Path_282651" data-name="Path 282651" d="M552.056,131.99l-2.349,1.781-4.355-5.749-1.592-2.1a3.631,3.631,0,0,0,.921-.516,3.8,3.8,0,0,0,1.2-1.566l1.721,2.229Z" transform="translate(-204.81 -75.673)" fill="#fff"/>
      <path id="Path_282652" data-name="Path 282652" d="M546.137,117.183a6.411,6.411,0,1,0-2.083,9.561,6.171,6.171,0,0,0,2.22-1.954,6.42,6.42,0,0,0-.138-7.608Zm-2.754,6.945a3.634,3.634,0,0,1-.921.516,3.787,3.787,0,1,1,.921-.516Z" transform="translate(-203.538 -74.395)" fill="#fff"/>
      <path id="Path_282653" data-name="Path 282653" d="M195.965,129.225a2.849,2.849,0,0,1-1.885-.6l.74-1.54a2.03,2.03,0,0,0,.542.3,2.478,2.478,0,0,0,.964.164,1.825,1.825,0,0,0,.861-.2,1.661,1.661,0,0,0,.611-.611,4.6,4.6,0,0,0,.422-1.024c.121-.413.241-.861.361-1.437l1.059-4.957h1.9l-1.067,4.957a17.593,17.593,0,0,1-.534,2.022,5.259,5.259,0,0,1-.8,1.566,3.382,3.382,0,0,1-1.274,1A4.536,4.536,0,0,1,195.965,129.225Z" transform="translate(-156.059 -75.043)" fill="#212121"/>
      <path id="Path_282654" data-name="Path 282654" d="M206.614,129.124a3.339,3.339,0,0,1-2.676-1.239,3.873,3.873,0,0,1-.688-1.291,4.949,4.949,0,0,1-.25-1.54,5.215,5.215,0,0,1,.473-2.169,6.446,6.446,0,0,1,1.265-1.867,6.214,6.214,0,0,1,1.842-1.317,4.991,4.991,0,0,1,2.169-.491,3.279,3.279,0,0,1,2.642,1.248,3.941,3.941,0,0,1,.68,1.308,5.036,5.036,0,0,1,.241,1.523,5.25,5.25,0,0,1-.473,2.151,6.308,6.308,0,0,1-1.256,1.867,6.437,6.437,0,0,1-1.824,1.308,4.957,4.957,0,0,1-2.143.508Zm.37-1.678a2.633,2.633,0,0,0,1.386-.37,4.054,4.054,0,0,0,1.084-.947,4.458,4.458,0,0,0,.7-1.291,4.183,4.183,0,0,0,.25-1.394,3.521,3.521,0,0,0-.129-.964,2.264,2.264,0,0,0-.379-.809,1.8,1.8,0,0,0-.637-.551,1.859,1.859,0,0,0-.861-.207,2.754,2.754,0,0,0-1.386.361,3.813,3.813,0,0,0-1.084.947,4.432,4.432,0,0,0-.955,2.694,3.443,3.443,0,0,0,.129.964,2.41,2.41,0,0,0,.379.809,1.988,1.988,0,0,0,.645.551,1.833,1.833,0,0,0,.861.207Z" transform="translate(-157.303 -75.027)" fill="#212121"/>
      <path id="Path_282655" data-name="Path 282655" d="M216.313,119.31h5.009a1.4,1.4,0,0,1,.723.172,1.592,1.592,0,0,1,.516.439,2.177,2.177,0,0,1,.3.637,2.65,2.65,0,0,1,.1.74,2.823,2.823,0,0,1-.129.861,3.149,3.149,0,0,1-1.756,1.928,1.782,1.782,0,0,1,.955.706,2.22,2.22,0,0,1,.327,1.231,2.858,2.858,0,0,1-.3,1.317,2.892,2.892,0,0,1-.809.955,3.494,3.494,0,0,1-1.17.594,4.518,4.518,0,0,1-1.36.2H214.23Zm2.754,8.15a1.136,1.136,0,0,0,.516-.12,1.549,1.549,0,0,0,.783-.861,1.42,1.42,0,0,0,.129-.594,1.239,1.239,0,0,0-.215-.723.688.688,0,0,0-.585-.3H217l-.542,2.582Zm.585-4.071a1.127,1.127,0,0,0,.491-.112,1.248,1.248,0,0,0,.43-.31,1.506,1.506,0,0,0,.344-.482,1.67,1.67,0,0,0,.12-.628,1.033,1.033,0,0,0-.207-.68.663.663,0,0,0-.551-.258h-2.392l-.525,2.461Z" transform="translate(-158.869 -75.041)" fill="#212121"/>
      <path id="Path_282656" data-name="Path 282656" d="M232.526,129.127a3.339,3.339,0,0,1-2.676-1.239,3.873,3.873,0,0,1-.688-1.291,4.706,4.706,0,0,1-.241-1.523,5.353,5.353,0,0,1,.473-2.169,6.652,6.652,0,0,1,1.274-1.867,6.213,6.213,0,0,1,1.842-1.317,4.982,4.982,0,0,1,2.16-.491,3.279,3.279,0,0,1,2.651,1.248,3.941,3.941,0,0,1,.68,1.308,5.025,5.025,0,0,1,.232,1.523,5.232,5.232,0,0,1-.465,2.151,6.308,6.308,0,0,1-1.257,1.867,6.437,6.437,0,0,1-1.824,1.308,4.983,4.983,0,0,1-2.16.491Zm.37-1.678a2.651,2.651,0,0,0,1.386-.37,3.89,3.89,0,0,0,1.076-.947,4.3,4.3,0,0,0,.706-1.291,4.182,4.182,0,0,0,.25-1.394,3.521,3.521,0,0,0-.129-.964,2.264,2.264,0,0,0-.379-.809,1.8,1.8,0,0,0-.637-.551,1.859,1.859,0,0,0-.861-.207,2.728,2.728,0,0,0-1.386.361,3.968,3.968,0,0,0-1.093.947,4.527,4.527,0,0,0-.7,1.282,4.3,4.3,0,0,0-.25,1.411,3.837,3.837,0,0,0,.12.964,2.582,2.582,0,0,0,.387.809,1.9,1.9,0,0,0,.645.551A1.833,1.833,0,0,0,232.9,127.448Z" transform="translate(-160.917 -75.03)" fill="#212121"/>
      <path id="Path_282657" data-name="Path 282657" d="M242.224,119.31h6.239l-.353,1.661h-4.363l-.525,2.513h3.606l-.327,1.54H242.9l-.861,4.045H240.15Z" transform="translate(-162.482 -75.042)" fill="#212121"/>
      <path id="Path_282658" data-name="Path 282658" d="M251.1,119.31h6.248l-.361,1.661h-4.355l-.525,2.513h3.606l-.336,1.54h-3.6l-.861,4.045H249Z" transform="translate(-163.716 -75.042)" fill="#212121"/>
      <path id="Path_282659" data-name="Path 282659" d="M260,119.31h6.325l-.344,1.661h-4.458l-.491,2.349h3.847l-.336,1.54h-3.83l-.542,2.582h4.57l-.361,1.661H257.93Z" transform="translate(-164.961 -75.042)" fill="#212121"/>
      <path id="Path_282660" data-name="Path 282660" d="M267.16,129.069l2.074-9.759h4.122a2.074,2.074,0,0,1,.99.224,2.229,2.229,0,0,1,.749.6,2.8,2.8,0,0,1,.456.861,3.039,3.039,0,0,1,.164,1,3.167,3.167,0,0,1-.181,1.05,4.133,4.133,0,0,1-.491.972,4.071,4.071,0,0,1-.732.809,3.243,3.243,0,0,1-.912.568l1.325,3.666h-2.151l-1.153-3.27H269.7l-.68,3.27Zm5.112-4.931a1.1,1.1,0,0,0,.542-.164,1.72,1.72,0,0,0,.473-.422,2.687,2.687,0,0,0,.344-.62,2.126,2.126,0,0,0,.129-.74,1.428,1.428,0,0,0-.258-.861.766.766,0,0,0-.628-.353h-2.117l-.671,3.167Z" transform="translate(-166.248 -75.041)" fill="#212121"/>
      <rect id="Rectangle_29985" data-name="Rectangle 29985" width="1.067" height="12.831" transform="translate(110.576 42.771)" fill="#263238"/>
      <path id="Path_282661" data-name="Path 282661" d="M442.935,283.527s-39.587,10.732-46.119,9.553-28.64-30.886-33.563-41.678-13.029-64.449-11.446-70.361,9.75-6.024,16.67,9.243,23.236,48.692,26.162,51.42S446.153,280.7,442.935,283.527Z" transform="translate(-178.021 -83.131)" fill="#f7a9a0"/>
      <path id="Path_282662" data-name="Path 282662" d="M382.2,281.22l51.308-10.241s-36.885-28.873-39.114-32.22-22.513-45.508-28.95-55.568-16.515-10.146-14.337,6.549c2.289,17.522,7.255,54.432,10.4,61.256S382.2,281.22,382.2,281.22Z" transform="translate(-177.91 -82.985)" fill="#4488c8"/>
      <path id="Path_282663" data-name="Path 282663" d="M395.889,278.5l-13.683,2.728S364.641,257.8,361.508,251s-8.107-43.735-10.387-61.256c-1.5-11.506,2.814-15.017,7.745-12.806Z" transform="translate(-177.911 -82.989)" fill="#3e82c2"/>
      <path id="Path_282664" data-name="Path 282664" d="M408.14,305.5c6.067-3.176,13.46-10.878,18.494-11.678a5.826,5.826,0,0,1,6.291,2.995s2.315-5.163,7.005-5.112c2.41,0,4.509,3.873,4.509,3.873s2.04-4.045,6.2-3.769c3.313.224,4.923,4.062,4.923,4.062s3.761-2.969,7.065-1.661c6.713,2.659,7.84,31.188-2.5,36.007-4.819,2.246-4.716-4.742-4.716-4.742s-2.582,10.009-8.451,10.387-5.164-8.683-5.164-8.683-2.582,9.673-8.718,9.466c-6.377-.224-4.148-9.174-4.148-9.174s-4.045,6.506-8.7,5.267c-7.694-2.048.568-17.5-1.162-23.7H409.4Z" transform="translate(-185.903 -99.075)" fill="#f7a9a0"/>
      <path id="Path_282665" data-name="Path 282665" d="M414.69,299.852c-6.024,2.5-12.909-6.988-19.062-4.776-8.021,2.866-.6,12.762,11.558,14.372h9.656Z" transform="translate(-183.692 -99.499)" fill="#f7a9a0"/>
      <path id="Path_282666" data-name="Path 282666" d="M463.481,297.192a.077.077,0,0,1,.146,0c2.651,9.294,2.719,20.318-.594,29.458-.112.3-.645.25-.594-.1C464.066,316.443,464.7,307.346,463.481,297.192Z" transform="translate(-193.472 -99.834)" fill="#263238"/>
      <path id="Path_282667" data-name="Path 282667" d="M449.9,295.985c0-.112.172-.129.207,0,2.685,9.587,2.418,22.014-2.651,32.091-.172.344-.671.482-.508.069C449.81,321.192,451.05,305.168,449.9,295.985Z" transform="translate(-191.308 -99.66)" fill="#263238"/>
      <path id="Path_282668" data-name="Path 282668" d="M431.587,328.983c4.484-9.854,5.361-20.155,4.733-30.861,0-.146.189-.138.232,0,1.721,5.163,1.42,12.048.723,17.349a28.64,28.64,0,0,1-5.336,13.64C431.811,329.267,431.492,329.164,431.587,328.983Z" transform="translate(-189.169 -99.956)" fill="#263238"/>
      <path id="Path_282669" data-name="Path 282669" d="M395.126,293.845c3.933-1.317,7.986,1.833,11.3,3.589a20.121,20.121,0,0,0,3.339,1.592,6.739,6.739,0,0,0,5.706-.439c1.833-1.179,7.573-6.885,11.713-4.991a8.718,8.718,0,0,1,3.546,3c1.265-2.289,2.874-4.793,5.68-5.258a4.493,4.493,0,0,1,3.511.912,7.593,7.593,0,0,1,1.377,1.4,6.612,6.612,0,0,1,.947,1.566v-.052l.078-.172.181-.353a3.6,3.6,0,0,1,.439-.688,4.527,4.527,0,0,1,.534-.542.861.861,0,0,1,.6-.241.069.069,0,0,1,0,.129.981.981,0,0,0-.448.43c-.129.2-.25.4-.387.6l-.413.568-.207.31-.086.146c-.043.06-.095.095-.138.146s-.155,0-.2,0h0a8.263,8.263,0,0,1-1.136-1.282,9.068,9.068,0,0,0-1.377-1.317,4.3,4.3,0,0,0-3.365-.861c-2.5.5-4.105,2.728-5.439,4.716h0a.069.069,0,0,1-.1.077c-1.386-1.2-2.694-2.582-4.6-2.84-2.048-.3-3.993.688-5.7,1.721a24.918,24.918,0,0,0-2.444,1.661c-.7.542-1.36,1.145-2.108,1.618-3.193,2.005-6.687.448-7.556.077a42.442,42.442,0,0,1-4.983-2.642,13.934,13.934,0,0,0-5.336-2.151,5.163,5.163,0,0,0-4.742,1.773c-.594.766-1.36,2.212.206,5.5,0,0,0,.06-.043.043C392.656,300.824,390.048,295.532,395.126,293.845Z" transform="translate(-183.663 -99.017)" fill="#263238"/>
      <path id="Path_282670" data-name="Path 282670" d="M373.055,300.977H322.693c-.422-1.618-.818-3.219-1.222-4.785-.456-1.807-.912-3.571-1.351-5.284-.095-.387-.2-.766-.293-1.145-.327-1.317-.654-2.582-.972-3.838-.189-.766-.387-1.515-.568-2.255s-.387-1.489-.568-2.212c-.052-.189-.095-.379-.146-.568l-.155-.62c-.06-.258-.129-.5-.189-.749h0c-.069-.267-.138-.516-.2-.775-.129-.482-.25-.964-.361-1.429-.181-.688-.353-1.368-.525-2.022-.069-.293-.146-.577-.215-.861-.12-.456-.232-.861-.344-1.342-.077-.293-.146-.585-.215-.861-.3-1.162-.577-2.246-.861-3.262-.077-.267-.138-.525-.207-.783l-.318-1.265c-.069-.258-.138-.508-.2-.749-.224-.861-.422-1.661-.594-2.358-.052-.181-.095-.361-.146-.534-.112-.465-.224-.861-.31-1.231a1.387,1.387,0,0,0-.112-.422,3.75,3.75,0,0,1-.095-.4c-.026-.12-.052-.181-.069-.258s-.06-.241-.086-.344,0-.112-.043-.155l-.112-.447h49.053s1.609,5.559,4.2,14.535l1.721,5.9C368.9,286.441,370.9,293.421,373.055,300.977Z" transform="translate(-172.53 -94.66)" fill="#3e82c2"/>
      <path id="Path_282671" data-name="Path 282671" d="M332.7,302.832h-1.257q-2.8-11.583-5.422-23.184-.628-2.831-1.248-5.654c-.043-.181-.077-.353-.12-.534s.12-.138.146-.043a1.425,1.425,0,0,1,.052.181l1.721,6.076Q329.679,291.227,332.7,302.832Z" transform="translate(-174.262 -96.515)" fill="#263238"/>
      <path id="Path_282672" data-name="Path 282672" d="M359.694,260l-2.16,10.826-1.773,8.89-3.021,15.138-.318,1.549-.516,2.582-.387,1.962h-28.83l-1.188-4.759c-.456-1.807-.912-3.571-1.351-5.284-.095-.387-.2-.766-.293-1.145-.327-1.317-.654-2.582-.972-3.838-.189-.766-.387-1.515-.568-2.255s-.387-1.489-.568-2.212c-.052-.189-.095-.379-.146-.568l-.155-.62c-.06-.258-.129-.5-.189-.749h0c-.069-.267-.138-.516-.2-.774-.129-.482-.25-.964-.361-1.429-.181-.688-.353-1.368-.525-2.022-.069-.293-.146-.577-.215-.861-.12-.456-.232-.861-.344-1.343-.077-.293-.146-.585-.215-.861-.3-1.162-.577-2.246-.861-3.262-.077-.267-.138-.525-.207-.783l-.318-1.265c-.069-.258-.138-.508-.2-.749-.224-.861-.422-1.661-.594-2.358-.052-.181-.095-.361-.146-.534-.112-.465-.224-.861-.31-1.231a1.388,1.388,0,0,0-.112-.422,3.744,3.744,0,0,1-.095-.4c-.026-.12-.052-.181-.069-.258s-.06-.241-.086-.344,0-.112-.043-.155l-.112-.447Z" transform="translate(-172.534 -94.656)" fill="#263238"/>
      <path id="Path_282673" data-name="Path 282673" d="M356.047,260h0c0,.267-.207,3.184-.68,7.651-.129,1.3-.293,2.728-.473,4.26-.293,2.418-.645,5.086-1.084,7.909-.757,4.923-1.721,10.327-3.021,15.534-.447,1.893-.947,3.761-1.48,5.594H286.03c.74-9.647,1.429-18.365,1.971-25.241.757-9.682,1.239-15.731,1.239-15.731h57.41Z" transform="translate(-168.879 -94.652)" fill="#3e82c2"/>
      <path id="Path_282674" data-name="Path 282674" d="M365.389,266.517c-.069,2.263-.163,4.527-.31,6.781-.155,2.444-.379,4.879-.7,7.315a2.542,2.542,0,0,1,0,.267q-.439,3.442-1.024,6.842a23.984,23.984,0,0,1-1.566,6.36,6.161,6.161,0,0,1-1.489,2,4.3,4.3,0,0,1-2.022,1.05,1.84,1.84,0,0,1-.37.06H357.8a.138.138,0,0,1,.069.138,20.135,20.135,0,0,1-.086,2.281v.095c-.077.663-.2,1.308-.318,1.962h-1.136c.189-.714.344-1.437.525-2.16s.439-1.454.611-2.2a.075.075,0,0,1,.052-.069,3.373,3.373,0,0,1-3.27-2.048,5.913,5.913,0,0,1-.052-2.978c.2-1.291.387-2.582.585-3.881.37-2.384.861-4.742,1.274-7.108.06-.353.129-.723.189-1.076.861-4.819,1.721-9.639,2.806-14.415a2.908,2.908,0,0,1,.12-.594.116.116,0,0,1,.232,0,7.335,7.335,0,0,1-.1.964q-.275,2.754-.654,5.473c-.31,2.143-.516,4.3-.861,6.429l-.31,2.186c-.5,3.511-1.007,7.031-1.609,10.534-.275,1.627-1.291,4.544,1.05,5.052a2.375,2.375,0,0,0,1.592-.2,4.992,4.992,0,0,0,2.177-2.754,36.379,36.379,0,0,0,1.239-5.861c.387-2.143.723-4.3,1.024-6.437h0q.568-4.027,1.2-8.046l.645-4.1.31-1.893C365.191,266.345,365.389,266.38,365.389,266.517Z" transform="translate(-178.359 -95.355)" fill="#263238"/>
      <path id="Path_282675" data-name="Path 282675" d="M302.156,283.516a31.846,31.846,0,0,0,7.805-1.05c1.179-.3,2.341-.68,3.494-1.059a8.985,8.985,0,0,0,3.193-1.6c1.773-1.523,2.582-3.941,3.373-6.076a57.909,57.909,0,0,0,2.04-7.384.112.112,0,0,1,.215,0,28.764,28.764,0,0,1-1.059,8.382c-.637,2.315-1.5,4.9-3.365,6.515s-4.638,2.306-7.16,2.582a33.081,33.081,0,0,1-8.5-.112.146.146,0,0,1-.034-.2Z" transform="translate(-171.123 -95.529)" fill="#263238"/>
      <path id="Path_282676" data-name="Path 282676" d="M296.6,266.436q-.206,5.318-.447,10.637-.542,12.392-1.188,24.776H293.78q.818-12.418,1.721-24.811l.809-10.6A.146.146,0,0,1,296.6,266.436Z" transform="translate(-169.959 -95.533)" fill="#263238"/>
      <path id="Path_282677" data-name="Path 282677" d="M363.54,269.031c-1.282,1.213-78.373-4.527-78.735-5.034-.981-1.377,24.329-77.986,42.306-91.162,10.327-7.582,17.745-2.857,20.568-.146C359.272,183.85,364.659,267.929,363.54,269.031Z" transform="translate(-168.704 -81.931)" fill="#ebebeb"/>
      <path id="Path_282678" data-name="Path 282678" d="M349.01,195.732l4.639-6.1,3.649,5.43-1.515,4.931-4.6.241Z" transform="translate(-177.659 -84.845)" fill="#212121"/>
      <path id="Path_282679" data-name="Path 282679" d="M350.556,201.911l-6.076,51.05,8.322,17.676,6.429-18.692-4.079-50.275Z" transform="translate(-177.027 -86.524)" fill="#212121"/>
      <path id="Path_282680" data-name="Path 282680" d="M367.937,287.256s-10.155-.723-23.735-1.721c-.8-4.854-2.444-16.678-2.642-16.678-.155.25-4.174,11.523-5.508,16.067-13.193-1.016-63.055-5.74-63.5-6.11-.121-.1,8.055-15.215,8.055-15.215,7.866-22.16,22.134-60.731,27.392-70.4,9.957-18.322,18.546-22.2,18.546-22.2l17.3,51.721c.086-.861,4.3-47.59,4.3-47.59,1.084,1.67,7.3,12.048,10.542,32.573,3.3,20.929,4.837,49.613,5.723,63.967C364.4,271.688,367.946,286.972,367.937,287.256Z" transform="translate(-166.999 -82.248)" fill="#4488c8"/>
      <path id="Path_282681" data-name="Path 282681" d="M355.6,222.71c-.06,4.449-.215,8.9-.387,13.348s-.4,8.89-.611,13.339-.508,8.847-.766,13.322l-.473,6.661c-.189,2.22-.353,4.441-.568,6.661,0-2.229.095-4.458.146-6.678l.232-6.678c.172-4.441.413-8.89.611-13.33s.508-8.89.818-13.33S355.182,227.142,355.6,222.71Z" transform="translate(-178.186 -89.457)" fill="#37474f"/>
      <path id="Path_282682" data-name="Path 282682" d="M351.648,240.472a2.22,2.22,0,1,1-.617-1.588,2.229,2.229,0,0,1,.617,1.588Z" transform="translate(-177.405 -91.616)" fill="#37474f"/>
      <path id="Path_282683" data-name="Path 282683" d="M350.438,255.072a2.229,2.229,0,1,1-2.177-2.272,2.229,2.229,0,0,1,2.177,2.272Z" transform="translate(-177.237 -93.652)" fill="#37474f"/>
      <path id="Path_282684" data-name="Path 282684" d="M349.278,269.632a2.229,2.229,0,1,1-2.177-2.272A2.229,2.229,0,0,1,349.278,269.632Z" transform="translate(-177.075 -95.682)" fill="#37474f"/>
      <path id="Path_282685" data-name="Path 282685" d="M350.147,185.005c-4.966-.7-10.052-10.663-10.947-17.479-.052-.473,7.547-15.241,8.752-18.33.241-.628,17.539,12.255,17.539,12.255A52.822,52.822,0,0,0,359,172.561C358.821,173.017,354.931,185.677,350.147,185.005Z" transform="translate(-176.291 -79.205)" fill="#f7a9a0"/>
      <path id="Path_282686" data-name="Path 282686" d="M366.313,161.446a53,53,0,0,0-6.489,11.119c0,.1-.293.861-.706,2.031-8.873-4.441-12.53-12.367-14.019-17.625,1.652-3.356,3.184-6.515,3.675-7.745C349.024,148.572,366.313,161.446,366.313,161.446Z" transform="translate(-177.114 -79.209)" fill="#263238"/>
      <path id="Path_282687" data-name="Path 282687" d="M346.874,122.331c-3.589,6.807-3.752,28.4.516,34.062,6.179,8.176,18.279,11.145,25.732,3.279,7.22-7.625,6.928-35.8,1.988-41.127C367.821,110.7,352.175,112.271,346.874,122.331Z" transform="translate(-176.986 -74.242)" fill="#f7a9a0"/>
      <path id="Path_282688" data-name="Path 282688" d="M366.43,140.452a14.137,14.137,0,0,1-1.91-.241,3.1,3.1,0,0,1-1.9-.611,1,1,0,0,1-.1-1.2,2.461,2.461,0,0,1,2.367-.775,3.588,3.588,0,0,1,2.367,1.076,1.059,1.059,0,0,1-.818,1.756Z" transform="translate(-179.52 -77.586)" fill="#263238"/>
      <path id="Path_282689" data-name="Path 282689" d="M366.951,143.178c0-.052-.112.077-.112.138.095,1.454-.043,3.133-1.342,3.666-.043,0,0,.086,0,.077C367.106,146.784,367.27,144.546,366.951,143.178Z" transform="translate(-179.955 -78.367)" fill="#263238"/>
      <path id="Path_282690" data-name="Path 282690" d="M365.328,141.46c-2.349-.1-2.384,4.6-.207,4.7S367.3,141.546,365.328,141.46Z" transform="translate(-179.683 -78.129)" fill="#263238"/>
      <path id="Path_282691" data-name="Path 282691" d="M376.981,143c0-.052.112.077.112.129-.06,1.463.121,3.141,1.437,3.632.043,0,0,.095,0,.086C376.9,146.621,376.68,144.392,376.981,143Z" transform="translate(-181.543 -78.342)" fill="#263238"/>
      <path id="Path_282692" data-name="Path 282692" d="M378.283,141.269c2.341-.163,2.5,4.544.318,4.69S376.312,141.4,378.283,141.269Z" transform="translate(-181.545 -78.102)" fill="#263238"/>
      <path id="Path_282693" data-name="Path 282693" d="M379.7,136.346c-.654-.112-1.231-.327-1.867-.5a3.141,3.141,0,0,1-1.807-.861,1,1,0,0,1,.069-1.213,2.461,2.461,0,0,1,2.461-.448,3.623,3.623,0,0,1,2.2,1.4,1.059,1.059,0,0,1-1.059,1.618Z" transform="translate(-181.401 -76.974)" fill="#263238"/>
      <path id="Path_282694" data-name="Path 282694" d="M364.976,158.336c.344.336.688.809,1.222.861a3.993,3.993,0,0,0,1.566-.353c.043,0,.095,0,.06.069a1.954,1.954,0,0,1-1.85.783,1.575,1.575,0,0,1-1.145-1.3C364.847,158.31,364.976,158.284,364.976,158.336Z" transform="translate(-179.865 -80.479)" fill="#263238"/>
      <path id="Path_282695" data-name="Path 282695" d="M366.854,150.734a4.94,4.94,0,0,0,3.3,2.229,6.17,6.17,0,0,0,1.781.095,2.216,2.216,0,0,0,.344,0l.318-.052a.344.344,0,0,0,.293-.318h0a.861.861,0,0,0,0-.146h0v-.129c0-1.119-.06-2.831-.06-2.831.4.207,2.5,1.162,2.461.577-.25-4.854-.534-10.258-1.816-15.034a.138.138,0,0,0-.267,0c.06,4.673.947,9.312,1.076,14.01a8.607,8.607,0,0,0-2.332-.731c-.164.052.241,3.3.181,3.8a.236.236,0,0,1,0,.052c-1.885.232-3.3-.353-5.163-1.635C366.88,150.493,366.76,150.614,366.854,150.734Z" transform="translate(-180.142 -77.232)" fill="#263238"/>
      <path id="Path_282696" data-name="Path 282696" d="M371.18,155.02a5.878,5.878,0,0,1-2.375,1.816,2.685,2.685,0,0,1-1.609.086c-1.162-.318-1.188-1.386-.964-2.3a6.44,6.44,0,0,1,.534-1.394A7.633,7.633,0,0,0,371.18,155.02Z" transform="translate(-180.045 -79.77)" fill="#263238"/>
      <path id="Path_282697" data-name="Path 282697" d="M368.805,157.062a2.685,2.685,0,0,1-1.609.086c-1.162-.318-1.188-1.386-.964-2.3A2.737,2.737,0,0,1,368.805,157.062Z" transform="translate(-180.045 -79.996)" fill="#ff97b8"/>
      <path id="Path_282698" data-name="Path 282698" d="M344.336,141.227s-5.542-13.5-3.735-20.525c.818-3.176,5.551-4.664,5.551-4.664a7.358,7.358,0,0,1,3.442-6.962c4.372-2.995,13.477-.749,13.477-.749s7.332-7.745,15.258-2.969.921,13.485.921,13.485,2.418,4.9-5.706,7.16c-7.909,2.2-22.5-3.442-22.5-3.442a53.155,53.155,0,0,1-2.668,15.6A4.845,4.845,0,0,1,344.336,141.227Z" transform="translate(-176.436 -72.879)" fill="#263238"/>
      <path id="Path_282699" data-name="Path 282699" d="M365.391,109.086a15.112,15.112,0,0,0-5.783-2.014,16.351,16.351,0,0,0-5.491,0c-3.219.62-6.274,2.444-7.306,5.706a6.239,6.239,0,0,0,.448,4.871c0,.06.129,0,.086-.06-1.575-2.728,0-6.334,2.384-8.055,2.642-1.936,6.274-2.263,9.466-1.9a26.24,26.24,0,0,1,6.145,1.635.095.095,0,0,0,.052-.181Z" transform="translate(-177.311 -73.303)" fill="#263238"/>
      <path id="Path_282700" data-name="Path 282700" d="M387.62,110.382a7.332,7.332,0,0,0-4.3-5.4,12.521,12.521,0,0,0-8.064-.972,15.757,15.757,0,0,0-7.306,3.838c-.052,0,0,.12.069.077a13.858,13.858,0,0,1,13.847-2.823,6.774,6.774,0,0,1,3.675,10.809,14.14,14.14,0,0,1-6.291,4.6.043.043,0,1,0,0,.086,14.536,14.536,0,0,0,6.153-3.778A8.21,8.21,0,0,0,387.62,110.382Z" transform="translate(-180.296 -72.869)" fill="#263238"/>
      <path id="Path_282701" data-name="Path 282701" d="M376.453,129.453a25.9,25.9,0,0,1-10.938.181,52.5,52.5,0,0,1-10.964-3.279c-2.057-.861-4.088-1.781-6.093-2.745a.06.06,0,0,0-.052.1,58.015,58.015,0,0,0,10.921,5.327,28.856,28.856,0,0,0,11.1,1.627,24.751,24.751,0,0,0,6.076-1.136Z" transform="translate(-177.572 -75.641)" fill="#263238"/>
      <path id="Path_282702" data-name="Path 282702" d="M347.482,144.741s-3.528-7.616-6.885-6.48-1.626,11.592,1.816,13.58a3.726,3.726,0,0,0,5.267-1.093Z" transform="translate(-176.234 -77.667)" fill="#f7a9a0"/>
      <path id="Path_282703" data-name="Path 282703" d="M341.548,141.749a.052.052,0,0,0-.043.095c2.349,1.472,3.262,4.062,3.761,6.661a2.058,2.058,0,0,0-2.935-1.1c-.069,0,0,.155,0,.146a2.306,2.306,0,0,1,2.349,1.231,11.18,11.18,0,0,1,.861,2.229c.077.241.508.2.473-.077v-.069C346.651,147.653,344.956,142.7,341.548,141.749Z" transform="translate(-176.608 -78.169)" fill="#263238"/>
      <path id="Path_282704" data-name="Path 282704" d="M358.7,173.788l-7.126,10.034L340.245,165.75l-5.835,4.071s9.974,26.919,10.275,25.818l6.885-9.4,5.766,8.606,2.874-18.184Z" transform="translate(-175.624 -81.516)" fill="#ebebeb"/>
      <path id="Path_282705" data-name="Path 282705" d="M359.253,186.609c.379-3.021.861-6.024,1.067-9.088,0-.1-.146-.181-.2-.06-1.145,2.762-2.513,14.312-3.046,17.04h0c-.241-.37-5.413-7.6-5.491-7.513-1.386,1.437-6.454,8.279-6.842,8.916-1.575-4.3-8.477-21.256-10.516-25.4a.1.1,0,1,0-.2.069c1.265,4.432,10.1,26.8,10.327,26.781a120.787,120.787,0,0,0,7.263-9.957c.818,1.515,5.895,9.535,6.024,9.1a95.216,95.216,0,0,0,1.609-9.88Z" transform="translate(-175.57 -82.168)" fill="#263238"/>
      <g id="Group_241743" data-name="Group 241743" transform="translate(183.494 35.172)" opacity="0.3">
        <path id="Path_282706" data-name="Path 282706" d="M408.043,172.32A32.917,32.917,0,1,1,426.7,129.669a32.917,32.917,0,0,1-18.657,42.651Z" transform="translate(-363.12 -108.74)" fill="#fff"/>
        <path id="Path_282707" data-name="Path 282707" d="M371.08,170.38a32.917,32.917,0,0,0,38.072,10.542,33.261,33.261,0,0,0,7.874-4.406Z" transform="translate(-364.23 -117.334)" fill="#ebebeb"/>
        <path id="Path_282708" data-name="Path 282708" d="M366.15,129.954l62.926,8.4a32.48,32.48,0,0,0-1.971-7.565,32.143,32.143,0,0,0-4.363-7.814l-46.472-6.2a32.934,32.934,0,0,0-10.12,13.184Z" transform="translate(-363.543 -109.86)" fill="#ebebeb"/>
        <path id="Path_282709" data-name="Path 282709" d="M364.366,156.317l59.94,7.995a33.233,33.233,0,0,0,2.754-5.843L363.23,150A31.657,31.657,0,0,0,364.366,156.317Z" transform="translate(-363.136 -114.492)" fill="#ebebeb"/>
        <path id="Path_282710" data-name="Path 282710" d="M364.45,136.856l64.69,8.606v-1.2l-64.355-8.606C364.657,136.082,364.545,136.46,364.45,136.856Z" transform="translate(-363.306 -112.493)" fill="#ebebeb"/>
        <path id="Path_282711" data-name="Path 282711" d="M389.23,110.6l28.709,3.838c-.818-.551-1.661-1.059-2.53-1.532l-23.356-3.115C391.106,110.014,390.168,110.281,389.23,110.6Z" transform="translate(-366.761 -108.886)" fill="#ebebeb"/>
      </g>
      <rect id="Rectangle_29986" data-name="Rectangle 29986" width="8.657" height="38.055" transform="translate(247.287 135.086) rotate(158.61)" fill="#ebebeb"/>
      <path id="Path_282712" data-name="Path 282712" d="M430.149,127.3a37.4,37.4,0,1,0,2.453,10.534,37.4,37.4,0,0,0-2.453-10.534ZM427.3,138.275a32.04,32.04,0,1,1-34.6-29.337A32.04,32.04,0,0,1,427.3,138.275Z" transform="translate(-178.902 -72.845)" fill="#a6a6a6"/>
      <path id="Path_282713" data-name="Path 282713" d="M434.646,252.046l12.186-4.776h0l-12.306-31.42-12.186,4.776h0Z" transform="translate(-187.882 -88.501)" fill="#263238"/>
      <path id="Path_282714" data-name="Path 282714" d="M419.978,135.414l-.052-.112c-.232-.516.258.5.077.164s-.4-.809-.628-1.2a28.312,28.312,0,0,0-2.685-3.907l-.43-.516c-.043-.052.353.4,0,0l-.275-.31c-.353-.387-.714-.766-1.093-1.136a26.625,26.625,0,0,0-2.642-2.272c-.215-.164-.447-.327-.671-.482s.353.224-.069-.043l-.413-.275c-.542-.344-1.084-.663-1.652-.955a20.447,20.447,0,0,0-1.859-.861c-.293-.129-.585-.241-.861-.353-.508-.2.224.069-.155-.052l-.534-.181a26.008,26.008,0,0,0-4.983-1.024h-2.47a28.18,28.18,0,0,0-3.072.2,2.179,2.179,0,0,1-.189-4.355,27.487,27.487,0,0,1,18.485,4.3,29.924,29.924,0,0,1,8.941,9.466,23.573,23.573,0,0,1,1.36,2.582,2.2,2.2,0,0,1-1.4,2.745,2.237,2.237,0,0,1-2.745-1.4Z" transform="translate(-183.825 -74.794)" fill="#fff"/>
      <path id="Path_282715" data-name="Path 282715" d="M426.483,145.057a2.134,2.134,0,1,0,.129-1.633,2.143,2.143,0,0,0-.129,1.633Z" transform="translate(-188.445 -78.241)" fill="#fff"/>
      <path id="Path_282716" data-name="Path 282716" d="M323.353,195.147c1.145,27.676,11.076,64.088,20.835,71.274s47.564-13.769,65.576-23.838c4.432-2.47-19-37.005-23.1-33.468-6.024,5.232-28.821,17.212-29.346,17.582-1.136.861-10.938-17.212-17.978-32.762C329.532,172.238,322.69,179.175,323.353,195.147Z" transform="translate(-174.076 -83.538)" fill="#f7a9a0"/>
      <path id="Path_282717" data-name="Path 282717" d="M442.538,187.109c3.193,2.737,1.48,6.73,1.48,6.73a9,9,0,0,1,5.353,2.926c2.306,2.874-1.188,7.745-1.188,7.745a11.042,11.042,0,0,1,5.164,3.985c1.936,2.969-.861,8.408-.861,8.408a9.707,9.707,0,0,1,2.332,6.351c-.284,6.222-8.563,10.886-13.769,13.907s-22.909,6.687-26.2,7.745L395.18,211.481s19.613-20.215,26.274-22.892C426.987,186.326,438.958,184.037,442.538,187.109Z" transform="translate(-184.096 -84.286)" fill="#f7a9a0"/>
      <path id="Path_282718" data-name="Path 282718" d="M448.675,195.069c-6.54.964-12.435,3.812-18.477,6.317a.116.116,0,1,0,.086.215c5.981-2.582,12.4-3.907,18.477-6.231a.157.157,0,1,0-.086-.3Z" transform="translate(-188.968 -85.603)" fill="#263238"/>
      <path id="Path_282719" data-name="Path 282719" d="M453.869,207.54a17.409,17.409,0,0,0-4.2,1.652c-1.437.68-2.866,1.394-4.3,2.126q-4.3,2.194-8.417,4.6c-.12.069-.043.275.095.207,2.831-1.454,5.688-2.866,8.606-4.2q2.169-1.007,4.363-1.971a20.318,20.318,0,0,0,4.036-2.014.232.232,0,0,0-.181-.4Z" transform="translate(-189.911 -87.342)" fill="#263238"/>
      <path id="Path_282720" data-name="Path 282720" d="M459.092,222.057a11.209,11.209,0,0,0-3.692,1.721q-1.928,1.033-3.856,2.057c-2.582,1.36-5.163,2.719-7.745,3.993a.114.114,0,0,0,.095.207c2.668-1.274,5.353-2.521,8.012-3.821,1.308-.637,2.582-1.282,3.907-1.936a11.188,11.188,0,0,0,3.391-2.057.1.1,0,0,0-.112-.164Z" transform="translate(-190.865 -89.364)" fill="#263238"/>
      <path id="Path_282721" data-name="Path 282721" d="M382.19,210.629l23.33,38.133s-51.859,25.818-61.807,18.339S323.2,220.285,322.371,197.23s7.823-22.3,16.429-6.119,15.809,34.423,17.074,33.89S382.19,210.629,382.19,210.629Z" transform="translate(-173.937 -83.417)" fill="#4488c8"/>
      <path id="Path_282722" data-name="Path 282722" d="M322.9,215.12c.361,2.582.921,5.215,1.5,7.8s1.222,5.164,1.9,7.745c1.343,5.163,2.814,10.207,4.492,15.224a142.681,142.681,0,0,0,5.723,14.742,51.093,51.093,0,0,0,3.8,6.885c.379.534.732,1.084,1.153,1.575l.611.757.671.706a7.8,7.8,0,0,0,3.089,2.065,20.946,20.946,0,0,0,7.745.077,66.174,66.174,0,0,0,7.745-1.627c5.1-1.351,10.1-3.089,15.06-4.931s9.862-3.83,14.733-5.921,9.656-4.217,14.484-6.472v.06l-1.764-2.978,1.764,2.917v.043h-.043c-9.466,4.785-19.131,9.148-29.019,12.995-4.957,1.9-9.974,3.649-15.1,5.052a68.577,68.577,0,0,1-7.814,1.678,21.068,21.068,0,0,1-8.072-.086,8.666,8.666,0,0,1-3.442-2.3l-.7-.749c-.224-.258-.422-.525-.637-.783-.439-.525-.792-1.084-1.179-1.635a52.025,52.025,0,0,1-3.83-7.031,128.5,128.5,0,0,1-5.637-14.9q-2.4-7.59-4.3-15.318-.916-3.873-1.721-7.745C323.571,220.387,323.193,217.753,322.9,215.12Z" transform="translate(-174.019 -88.399)" fill="#37474f"/>
      <path id="Path_282723" data-name="Path 282723" d="M355.1,220.9c.783,1.506,1.558,3.012,2.4,4.484.413.74.861,1.472,1.274,2.186a10.5,10.5,0,0,0,1.454,1.979,1.523,1.523,0,0,0,.2.164.269.269,0,0,0,.078,0h0a.25.25,0,0,0-.155,0h.052l.542-.284,1.119-.611,2.229-1.213,4.492-2.453,8.95-4.854c3-1.575,6.024-3.158,9.036-4.682h.06v.06l.62,1.145-.74-1.076h.095c-2.891,1.773-5.835,3.442-8.769,5.164s-5.9,3.339-8.881,4.974l-4.484,2.41-2.255,1.188c-.379.2-.757.4-1.136.577l-.594.275-.1.043a.627.627,0,0,1-.232,0h-.069a1.169,1.169,0,0,1-.206-.112,2.037,2.037,0,0,1-.284-.25,11.846,11.846,0,0,1-1.463-2.169c-.422-.749-.818-1.506-1.179-2.272C356.417,224.037,355.72,222.487,355.1,220.9Z" transform="translate(-178.508 -88.469)" fill="#37474f"/>
      <path id="Path_282724" data-name="Path 282724" d="M321.47,220.89a41.393,41.393,0,0,1,2.117,4.466l1.833,4.578a17.59,17.59,0,0,1-2.435-4.3,29.817,29.817,0,0,1-1.515-4.742Z" transform="translate(-173.82 -89.203)" fill="#37474f"/>
      <g id="Group_241744" data-name="Group 241744" transform="translate(272.092 73.05)">
        <path id="Path_282773" data-name="Path 282773" d="M338.283,152.36h1.291l2.857,7.513h-1.506l-.7-1.867h-2.582l-.688,1.867h-1.5ZM340,156.973l-1.041-2.952-1.076,2.952Z" transform="translate(-335.46 -152.308)" fill="#fff"/>
        <path id="Path_282774" data-name="Path 282774" d="M344.52,159.873V152.36H347.7a2.22,2.22,0,0,1,.955.215,2.393,2.393,0,0,1,.757.577,2.583,2.583,0,0,1,.5.8,2.419,2.419,0,0,1,.181.861,2.652,2.652,0,0,1-.172.929,2.5,2.5,0,0,1-.473.8,2.367,2.367,0,0,1-.74.559,2.22,2.22,0,0,1-.955.215h-1.773v2.513Zm1.463-3.8H347.7a.861.861,0,0,0,.671-.327,1.377,1.377,0,0,0,.275-.861,1.53,1.53,0,0,0-.086-.508,1.205,1.205,0,0,0-.224-.387.948.948,0,0,0-.318-.241.991.991,0,0,0-.379-.077h-1.627Z" transform="translate(-336.724 -152.308)" fill="#fff"/>
        <path id="Path_282775" data-name="Path 282775" d="M352.18,159.873V152.36h3.184a2.22,2.22,0,0,1,.955.215,2.5,2.5,0,0,1,.757.577,2.582,2.582,0,0,1,.5.8,2.418,2.418,0,0,1,.181.861,2.652,2.652,0,0,1-.172.929,2.5,2.5,0,0,1-.473.8,2.366,2.366,0,0,1-.74.559,2.221,2.221,0,0,1-.955.215h-1.773v2.513Zm1.463-3.8h1.721a.861.861,0,0,0,.671-.327,1.377,1.377,0,0,0,.275-.861,1.529,1.529,0,0,0-.086-.508A1.2,1.2,0,0,0,356,154a.946.946,0,0,0-.318-.241.99.99,0,0,0-.379-.077h-1.627Z" transform="translate(-337.791 -152.308)" fill="#fff"/>
        <path id="Path_282776" data-name="Path 282776" d="M359.84,159.873V152.36h1.454v6.231h3.847v1.282Z" transform="translate(-338.858 -152.308)" fill="#fff"/>
        <path id="Path_282777" data-name="Path 282777" d="M366.253,152.357l1.859,3.623,1.876-3.623h1.583l-2.737,4.854v2.625h-1.446v-2.625l-2.719-4.871Z" transform="translate(-339.531 -152.304)" fill="#fff"/>
        <path id="Path_282778" data-name="Path 282778" d="M377.643,155.062v4.811H376.18V152.36h1.127l3.916,4.931v-4.923h1.463v7.5H381.5Z" transform="translate(-341.137 -152.308)" fill="#fff"/>
        <path id="Path_282779" data-name="Path 282779" d="M388.695,159.916a3.442,3.442,0,0,1-1.506-.318,3.554,3.554,0,0,1-1.145-.861,3.631,3.631,0,0,1-.749-1.222,3.821,3.821,0,0,1,0-2.849,3.778,3.778,0,0,1,1.936-2.057,3.529,3.529,0,0,1,1.472-.31,3.288,3.288,0,0,1,1.489.336,3.7,3.7,0,0,1,1.145.861,3.976,3.976,0,0,1,.74,1.231,3.753,3.753,0,0,1,.267,1.394,3.881,3.881,0,0,1-.275,1.437,3.969,3.969,0,0,1-.757,1.2,3.589,3.589,0,0,1-1.17.861A3.443,3.443,0,0,1,388.695,159.916Zm-2.186-3.8a3.14,3.14,0,0,0,.146.938,2.8,2.8,0,0,0,.43.809,2.289,2.289,0,0,0,.688.559,2.048,2.048,0,0,0,.929.207,1.9,1.9,0,0,0,.929-.215,2.04,2.04,0,0,0,.688-.577,2.522,2.522,0,0,0,.43-.809,3,3,0,0,0,.138-.912,2.953,2.953,0,0,0-.155-.947,2.582,2.582,0,0,0-.43-.8,2.074,2.074,0,0,0-.689-.559,2.005,2.005,0,0,0-.912-.207,2.1,2.1,0,0,0-.947.215,2.127,2.127,0,0,0-.688.577,2.523,2.523,0,0,0-.413.8,3.072,3.072,0,0,0-.146.921Z" transform="translate(-342.368 -152.3)" fill="#fff"/>
        <path id="Path_282780" data-name="Path 282780" d="M397,152.386h1.342l.861,2.487.861-2.487h1.351l-1.282,3.442.955,2.4,2.126-5.843H404.8l-3.107,7.487h-1.2l-1.3-3.15-1.3,3.15h-1.231l-3.038-7.513h1.566l2.143,5.843.929-2.4Z" transform="translate(-343.567 -152.308)" fill="#fff"/>
      </g>
    </g>
    <g id="freepik--Suitcase--inject-97" transform="translate(70.659 241.758)">
      <rect id="Rectangle_29987" data-name="Rectangle 29987" width="111.959" height="67.827" transform="translate(2.65 28.023)" fill="#4488c8"/>
      <rect id="Rectangle_29988" data-name="Rectangle 29988" width="111.959" height="31.943" transform="translate(2.65 28.023)" opacity="0.1"/>
      <rect id="Rectangle_29989" data-name="Rectangle 29989" width="117.251" height="31.661" transform="translate(0 18.054)" fill="#4488c8"/>
      <path id="Path_282725" data-name="Path 282725" d="M186.785,320.55V338.6H178.3V328.33H145.912V338.6H137.42V320.55Z" transform="translate(-103.481 -320.55)" fill="#455a64"/>
      <rect id="Rectangle_29990" data-name="Rectangle 29990" width="7.639" height="15.121" transform="translate(23.517 42.15)" fill="#263238"/>
      <rect id="Rectangle_29991" data-name="Rectangle 29991" width="7.639" height="15.121" transform="translate(86.088 42.15)" fill="#263238"/>
    </g>
    <g id="freepik--Plant--inject-97" transform="translate(382.234 160.45)">
      <path id="Path_282726" data-name="Path 282726" d="M589.919,354.547s-19.888-4.509-30.792-14.552S542.14,312,542.14,312a170.814,170.814,0,0,1,22.306,5.861c1.781,1.9,5.163,5.826,6.747,9.535a45.615,45.615,0,0,0,.052-6.816,30.119,30.119,0,0,1,7.083,4.3C587.372,332.74,589.919,354.547,589.919,354.547Z" transform="translate(-542.14 -254.341)" fill="#63bd92"/>
      <path id="Path_282727" data-name="Path 282727" d="M555.235,321.16c-2.711-1.876-5.473-3.683-8.167-5.577a.156.156,0,0,1,.164-.267c5.163,3.064,10.172,6.334,15.06,9.759q2.582,1.79,5.034,3.709l-.344-.594c-.6-1-1.231-1.979-1.859-2.96a42.65,42.65,0,0,0-4.217-5.628c-.06-.069,0-.164.095-.095,1.549,1.781,3.09,3.554,4.51,5.447a32.242,32.242,0,0,1,1.885,2.788,16.382,16.382,0,0,1,.861,1.5c.095.172.206.344.3.516,2.582,2.014,5.077,4.122,7.47,6.351q2.212,2.065,4.3,4.3c-.766-2.41-1.437-4.845-2.332-7.212,0-.077.1-.112.129,0,.861,2.487,1.816,4.983,2.487,7.539q2.289,2.47,4.355,5.164l-.078-.327c-.224-.938-.456-1.867-.706-2.805-.491-1.8-1.015-3.58-1.626-5.344a31.1,31.1,0,0,0-5.336-10.095.069.069,0,0,1,.095-.095,38.9,38.9,0,0,1,7.616,15.912c.215.861.413,1.721.611,2.582.095.447.215.912.293,1.377.6.809,1.2,1.627,1.721,2.47a85.93,85.93,0,0,1,8.494,16.368,190.677,190.677,0,0,1,6.377,19.871.107.107,0,0,1-.206.052c-3.933-11.644-7.892-23.442-14.561-33.821q-2.117-3.3-4.544-6.36a37.472,37.472,0,0,1-9.673-1.928,42.637,42.637,0,0,1-9.69-4.673,60.265,60.265,0,0,1-4.974-3.761.069.069,0,1,1,.086-.1,39.428,39.428,0,0,0,9.122,5.516,49.142,49.142,0,0,0,10.034,3.365c1.463.327,2.952.559,4.441.766a83.829,83.829,0,0,0-5.861-6.506c-.671-.663-1.368-1.308-2.057-1.953a47.894,47.894,0,0,0-7.349-4.217c-3.262-1.575-6.472-3.236-9.7-4.88-1.816-.929-3.623-1.876-5.456-2.771-.086,0,0-.155.069-.112,3.27,1.575,6.583,3.055,9.888,4.561,3.107,1.429,6.248,2.857,9.225,4.527l.379.224c-2.694-2.341-5.482-4.578-8.339-6.738Q559.314,323.991,555.235,321.16Z" transform="translate(-542.817 -254.8)" fill="#263238"/>
      <path id="Path_282728" data-name="Path 282728" d="M557.867,334c1.618.706,3.27,1.334,4.871,2.083a53.205,53.205,0,0,1,4.768,2.582c.069,0,0,.138-.06.1-1.592-.757-3.193-1.472-4.768-2.263s-3.193-1.67-4.845-2.392C557.755,334.12,557.79,334,557.867,334Z" transform="translate(-544.322 -257.408)" fill="#263238"/>
      <path id="Path_282729" data-name="Path 282729" d="M664.378,245a28.4,28.4,0,0,0-5.938,16.515c-.069,1.79.215,4.3.422,7.194-7.418,3.959-12.986,11.093-12.986,11.093,4.217-2.53,10-3.554,13.124-3.141a39.5,39.5,0,0,1-.766,5.947c-1.377-.077-4.036.1-8.434,1.67a18.882,18.882,0,0,1,7.608,1.506c-3.546,11.282-14.088,22.874-43.184,27.788a60.979,60.979,0,0,1,5.164-40.947C628.1,255.447,664.378,245,664.378,245Z" transform="translate(-551.985 -245)" fill="#63bd92"/>
      <path id="Path_282730" data-name="Path 282730" d="M602.566,363.069q.757-7.229,1.885-14.415a289.214,289.214,0,0,1,5.869-28.485,113.565,113.565,0,0,1,4.2-12.978,21.133,21.133,0,0,1-.1-2.332v-2.8q0-2.8.267-5.585a67.885,67.885,0,0,1,1.79-10.912c.534-2.065,1.153-4.114,1.721-6.162a.069.069,0,0,1,.129.043,80.618,80.618,0,0,0-2.143,10.886,103.157,103.157,0,0,0-.981,10.921c0,1-.052,2.005-.052,3v1.282a93.907,93.907,0,0,1,4.9-10.146,123.521,123.521,0,0,1,9.966-14.905,6.211,6.211,0,0,1,.241-1.627c.129-.645.275-1.3.422-1.945.293-1.334.628-2.651.99-3.967.723-2.633,1.721-5.164,2.5-7.745,0-.086.155-.043.129,0-.766,2.582-1.282,5.25-1.867,7.874-.293,1.3-.577,2.582-.861,3.9-.146.645-.284,1.3-.422,1.945v.146c1.179-1.48,2.375-2.943,3.606-4.389,5.559-6.515,11.652-12.522,17.78-18.494.757-.731,1.532-1.446,2.3-2.169.06-.06.146,0,.086.095-5.852,6.119-11.626,12.3-17.091,18.769-1.3,1.54-2.582,3.1-3.829,4.673.654-.447,1.325-.861,1.979-1.317,1.721-1.1,3.442-2.186,5.163-3.176s3.546-1.953,5.361-2.849,3.864-1.678,5.663-2.728c.078-.043.146.086.069.12a42,42,0,0,0-5.31,2.935c-1.773,1.058-3.546,2.117-5.284,3.218s-3.442,2.151-5.163,3.253c-1.411.921-2.806,1.928-4.3,2.78a137.638,137.638,0,0,0-9.32,13.563,100.7,100.7,0,0,0-4.819,9.139l1.041-.447,2.668-1.188c1.721-.757,3.443-1.5,5.164-2.246,3.262-1.42,6.575-2.719,9.776-4.3a45.39,45.39,0,0,0,5.224-2.9c.078-.052.138.069.069.112-5.964,4.114-12.659,7.014-19.26,9.94l-2.866,1.265c-.783.344-1.575.74-2.384,1.041a102.1,102.1,0,0,0-4.923,13.485,273.581,273.581,0,0,0-6.325,28.15c-1.67,9.466-2.8,19.079-3.675,28.683-.112,1.2-.215,2.4-.353,3.6a.379.379,0,0,1-.757,0C601.559,372.8,602.058,367.914,602.566,363.069Z" transform="translate(-550.406 -246.254)" fill="#263238"/>
      <path id="Path_282731" data-name="Path 282731" d="M623.156,285.925c.534-2.96,1.317-5.852,2.117-8.743,0-.086.146-.043.129,0-.74,2.849-1.265,5.74-1.8,8.606s-1.024,5.9-1.437,8.855a.043.043,0,0,1-.086,0A79.116,79.116,0,0,1,623.156,285.925Z" transform="translate(-553.285 -249.48)" fill="#263238"/>
      <path id="Path_282732" data-name="Path 282732" d="M637.9,295.6a50.71,50.71,0,0,1,6.325-3.563c1.067-.551,2.134-1.076,3.21-1.592s2.263-.981,3.356-1.54c.077,0,.146.086.069.12-1.067.534-2.074,1.179-3.115,1.721l-3.236,1.764a72.655,72.655,0,0,1-6.454,3.339.164.164,0,0,1-.155-.25Z" transform="translate(-555.486 -251.12)" fill="#263238"/>
      <path id="Path_282733" data-name="Path 282733" d="M591.121,313.251s-18.4-4.4-26.885-16.7c-8.072-11.79-10.68-31.893-10.886-33.657.327,1.618,4.131,19.191,16.661,27.367C579.632,296.487,588.909,301.642,591.121,313.251Z" transform="translate(-543.703 -247.494)" fill="#263238" opacity="0.1"/>
      <path id="Path_282734" data-name="Path 282734" d="M577.483,284.447a23.522,23.522,0,0,1,6.79,11.188h-.06a27.619,27.619,0,0,0-6.816-11.093C577.336,284.49,577.422,284.387,577.483,284.447Z" transform="translate(-547.052 -250.497)" fill="#263238"/>
      <path id="Path_282735" data-name="Path 282735" d="M591.121,313.232s-18.4-4.4-26.885-16.7c-8.072-11.79-10.68-31.893-10.886-33.657v-.12s8.83,12.547,18.072,15.74S593.78,292.716,591.121,313.232Z" transform="translate(-543.703 -247.475)" fill="#63bd92"/>
      <path id="Path_282736" data-name="Path 282736" d="M557.133,270.735a76.169,76.169,0,0,0,5.688,9.725,39.41,39.41,0,0,0,7.573,7.8c2.5,1.979,5.163,3.778,7.676,5.731a.356.356,0,0,0-.06-.095c-.473-.706-.981-1.394-1.506-2.057-1.05-1.351-2.2-2.625-3.365-3.881-2.289-2.478-4.621-4.914-6.67-7.6a28.212,28.212,0,0,1-2.952-4.75c0-.077.095-.12.129,0,2.986,6.213,8.95,10.2,13.2,15.448a28.392,28.392,0,0,1,1.721,2.332,9.468,9.468,0,0,1,1.058,1.867A38.716,38.716,0,0,1,585.9,301.6a25.047,25.047,0,0,0-.74-3.571,17.97,17.97,0,0,0-1.945-4.656c-.052-.077.069-.155.112-.077a21.946,21.946,0,0,1,2.143,4.63,15.766,15.766,0,0,1,.671,3.976h0a36.065,36.065,0,0,1,2.487,3.873c-.078-.4-.146-.792-.224-1.179-.37-1.833-.775-3.666-1.248-5.473a32.963,32.963,0,0,0-4.423-10.37c-.052-.069.06-.146.112-.077a39.774,39.774,0,0,1,4.905,10.146c.585,1.807,1.05,3.64,1.463,5.5.207.861.387,1.807.559,2.719.094.473.189.955.267,1.437a66.476,66.476,0,0,1,4.251,12.478,183.691,183.691,0,0,1,3.924,23.236,192.872,192.872,0,0,1,1.265,24.716c0,1.033-.078,2.065-.138,3.1a.211.211,0,1,1-.422,0c-.181-4.088-.284-8.176-.534-12.255s-.594-8.158-1.033-12.229a215.839,215.839,0,0,0-3.83-23.787c-1.5-6.73-3.442-13.5-7.109-19.4a36.28,36.28,0,0,0-6.635-7.9c-2.582-2.315-5.4-4.346-8.124-6.489a44.187,44.187,0,0,1-7.453-7.169,58.738,58.738,0,0,1-5.86-9.466c-.43-.861-.861-1.661-1.317-2.5C557,270.735,557.1,270.657,557.133,270.735Z" transform="translate(-544.215 -248.583)" fill="#263238"/>
      <path id="Path_282737" data-name="Path 282737" d="M560.819,273.863a62.732,62.732,0,0,0,4.105,7.169c0,.06-.052.112-.086.06a50.034,50.034,0,0,1-4.139-7.186C560.656,273.829,560.785,273.786,560.819,273.863Z" transform="translate(-544.726 -249.018)" fill="#263238"/>
      <path id="Path_282738" data-name="Path 282738" d="M667.621,312s.293,26.153-15.344,33.7-24.019,1.265-34.647,3.8h0c.413-.62,7.995-11.523,20.06-14.527C650.117,331.793,663.861,322.852,667.621,312Z" transform="translate(-552.664 -254.341)" fill="#63bd92"/>
      <path id="Path_282739" data-name="Path 282739" d="M667.621,312s.293,26.153-15.344,33.7-24.019,1.265-34.647,3.8h0a59.045,59.045,0,0,1,17.78-5.241C645.289,342.981,664.127,336.578,667.621,312Z" transform="translate(-552.664 -254.341)" opacity="0.1"/>
      <path id="Path_282740" data-name="Path 282740" d="M614.461,352.5a26.787,26.787,0,0,1,6.222-4.217c.336-.155.68-.284,1.024-.43a6.9,6.9,0,0,1,.525-.6,18.773,18.773,0,0,1,1.472-1.394,21.431,21.431,0,0,1,3.141-2.272c2.582-1.523,5.43-2.582,8.081-4,.078-.043.146.077.069.112-1.317.68-2.582,1.429-3.855,2.177s-2.5,1.411-3.709,2.194a27.111,27.111,0,0,0-3.1,2.315c-.275.241-.542.508-.8.766a42.619,42.619,0,0,1,5.284-1.4c2.866-.577,5.757-.99,8.606-1.592a42.727,42.727,0,0,0,4.148-1.119c1.3-1.05,2.582-2.091,3.821-3.219a31.23,31.23,0,0,0,4.045-4.484c.052-.069.172,0,.112.069a47.111,47.111,0,0,1-6.411,7.074,18.469,18.469,0,0,0,2.005-.861,32.3,32.3,0,0,0,13.322-11.084c.052-.077.164,0,.121.069A36.591,36.591,0,0,1,647.8,340.921a32.7,32.7,0,0,1-6.816,3.219,63.263,63.263,0,0,1-8.46,2.005,58.036,58.036,0,0,0-8.279,2,24.793,24.793,0,0,0-6.954,3.658,32.392,32.392,0,0,0-9.372,11.618c-2.961,5.938-4.372,12.573-5.164,19.122,0,.284-.465.284-.448,0C603.05,371.566,605.985,360.129,614.461,352.5Z" transform="translate(-550.529 -256.919)" fill="#263238"/>
      <path id="Path_282741" data-name="Path 282741" d="M637.518,345.16a9.037,9.037,0,0,1,3.219-2.917,11.894,11.894,0,0,0,3.821-3.158c.052-.077.164,0,.112.069a12.984,12.984,0,0,1-3.373,3.021,11.8,11.8,0,0,0-3.683,3.047C637.57,345.281,637.475,345.221,637.518,345.16Z" transform="translate(-555.436 -258.112)" fill="#263238"/>
      <path id="Path_282742" data-name="Path 282742" d="M621.627,378.49l-.714,14.38-2.177,43.941H585.922l-2.177-43.941-.714-14.38Z" transform="translate(-547.841 -263.61)" fill="#37474f"/>
      <path id="Path_282743" data-name="Path 282743" d="M621.627,378.49l-.714,14.38H583.744l-.714-14.38Z" transform="translate(-547.841 -263.61)" fill="#263238"/>
      <rect id="Rectangle_29992" data-name="Rectangle 29992" width="43.193" height="13.718" transform="translate(32.892 108.873)" fill="#37474f"/>
    </g>
    <g id="freepik--Floor--inject-61" transform="translate(85.643 336.749)">
      <path id="Path_282434" data-name="Path 282434" d="M41.45,444.89l44.871-.207,44.871-.077,89.733-.146,89.733.146,44.871.069,44.871.215-44.871.206-44.871.077-89.733.146-89.733-.146L86.321,445.1Z" transform="translate(-41.45 -444.46)" fill="#263238"/>
    </g>
  </g>
</svg>
