<svg id="Freelancer-cuate" xmlns="http://www.w3.org/2000/svg" width="450.668" height="434.686" viewBox="0 0 450.668 434.686">
  <g id="freepik--background-complete--inject-61" transform="translate(1.588 0)">
    <rect id="Rectangle_29544" data-name="Rectangle 29544" width="37.989" height="12.09" transform="translate(426.04 372.135) rotate(180)" fill="#ebebeb"/>
    <rect id="Rectangle_29545" data-name="Rectangle 29545" width="37.989" height="12.09" transform="translate(333.573 252.862) rotate(180)" fill="#ebebeb"/>
    <path id="Path_282425" data-name="Path 282425" d="M421.7,402.611l19.124-.313,9.454-.13h9.411l-.5.486v-12.09l.54.54-18.995-.065-9.5-.1-9.5-.119.259-.259Zm0,0-.248-12.09v-.249h.259l9.5-.119,9.5-.1,18.995-.076h.54v13.128h-10.07l-9.541-.13Z" transform="translate(-12.46 -15.241)" fill="#ebebeb"/>
    <path id="Path_282426" data-name="Path 282426" d="M198.509,129.81l19.124-.313,9.454-.13,9.411-.054-.486.5v-12.09l.54.54-18.995-.076-9.5-.086-9.5-.119.259-.259Zm0,0-.249-12.09v-.249h.259l9.5-.119,9.5-.086,18.995-.076h.54v13.128h-.5l-9.584-.054-9.541-.13Z" transform="translate(-30.42 -37.192)" fill="#ebebeb"/>
    <path id="Path_282427" data-name="Path 282427" d="M218.129,143.94l19.124-.313,9.443-.13h9.411l-.486.5-.054-12.09.54.54-18.984-.076-9.5-.086-9.5-.119.248-.259Zm0,0-.259-12.09V131.6h.27l9.5-.119,9.5-.086,18.984-.076h.551v13.128h-.5l-9.573-.054-9.551-.13Z" transform="translate(-28.842 -36.055)" fill="#ebebeb"/>
    <rect id="Rectangle_29546" data-name="Rectangle 29546" width="37.989" height="12.09" transform="translate(248.378 92.618) rotate(180)" fill="#ebebeb"/>
    <rect id="Rectangle_29547" data-name="Rectangle 29547" width="37.989" height="12.09" transform="translate(38.249 387.381) rotate(180)" fill="#ebebeb"/>
    <rect id="Rectangle_29548" data-name="Rectangle 29548" width="37.989" height="12.09" transform="translate(59.437 14.025) rotate(180)" fill="#ebebeb"/>
    <path id="Path_282428" data-name="Path 282428" d="M43.179,71.171,62.3,70.857l9.454-.13h9.411l-.5.486V59.123l.54.54-18.995-.076-9.487-.13-9.5-.119.205-.3Zm0,0L42.92,59.037v-.249h.259l9.551-.076,9.5-.1,18.995-.076h.54V71.624H71.693l-9.541-.13Z" transform="translate(-42.92 -41.912)" fill="#ebebeb"/>
    <path id="Path_282429" data-name="Path 282429" d="M402.089,57.061l19.124-.313,9.454-.13h9.411l-.5.486V45.013l.54.54-18.995-.076-9.5-.086-9.5-.119.259-.259Zm0,0-.259-12.09v-.249h.259l9.5-.119,9.5-.1,18.995-.076h.54v.54l-.054,12.09v.5h-10.07l-9.54-.13Z" transform="translate(-14.039 -43.047)" fill="#ebebeb"/>
    <path id="Path_282430" data-name="Path 282430" d="M313.77,43.15V253.842H450.7V43.15ZM445.641,248.774H318.816V48.207H445.641Z" transform="translate(-21.125 -43.15)" fill="#ebebeb"/>
    <rect id="Rectangle_29549" data-name="Rectangle 29549" width="126.825" height="200.568" transform="translate(297.691 5.057)" fill="#fff"/>
    <rect id="Rectangle_29550" data-name="Rectangle 29550" width="126.825" height="5.057" transform="translate(424.516 107.863) rotate(180)" fill="#ebebeb"/>
    <rect id="Rectangle_29551" data-name="Rectangle 29551" width="155.534" height="14.5" transform="translate(438.876 225.17) rotate(180)" fill="#dbdbdb"/>
    <path id="Path_282431" data-name="Path 282431" d="M318.44,47.83H445.266V177.584H318.44Zm122.147,4.678H323.118v120.4H440.587Z" transform="translate(-20.749 -42.773)" fill="#dbdbdb"/>
    <rect id="Rectangle_29552" data-name="Rectangle 29552" width="2.528" height="125.086" transform="translate(381.514 5.057)" fill="#dbdbdb"/>
    <rect id="Rectangle_29553" data-name="Rectangle 29553" width="2.528" height="125.086" transform="translate(338.165 5.057)" fill="#dbdbdb"/>
    <path id="Path_282432" data-name="Path 282432" d="M59.51,43.15V253.842H196.438V43.15ZM191.392,248.774H64.567V48.207H191.392Z" transform="translate(-41.585 -43.15)" fill="#ebebeb"/>
    <rect id="Rectangle_29554" data-name="Rectangle 29554" width="126.825" height="200.568" transform="translate(22.982 5.057)" fill="#fff"/>
    <rect id="Rectangle_29555" data-name="Rectangle 29555" width="126.825" height="5.057" transform="translate(149.807 107.863) rotate(180)" fill="#ebebeb"/>
    <rect id="Rectangle_29556" data-name="Rectangle 29556" width="155.534" height="14.5" transform="translate(164.145 225.17) rotate(180)" fill="#dbdbdb"/>
    <path id="Path_282433" data-name="Path 282433" d="M64.18,47.83H191.005V177.584H64.18Zm122.093,4.678H68.858v120.4H186.327Z" transform="translate(-41.209 -42.773)" fill="#dbdbdb"/>
    <rect id="Rectangle_29557" data-name="Rectangle 29557" width="2.528" height="125.086" transform="translate(106.794 5.057)" fill="#dbdbdb"/>
    <rect id="Rectangle_29558" data-name="Rectangle 29558" width="2.528" height="125.086" transform="translate(63.456 5.057)" fill="#dbdbdb"/>
  </g>
  <g id="freepik--Floor--inject-61" transform="translate(0 433.603)">
    <path id="Path_282434" data-name="Path 282434" d="M41.45,445l56.336-.259,56.336-.1,112.661-.184,112.661.184,56.336.086,56.336.27-56.336.259-56.336.1-112.661.184-112.661-.184-56.336-.1Z" transform="translate(-41.45 -444.46)" fill="#263238"/>
  </g>
  <g id="freepik--Table--inject-61" transform="translate(312.234 275.455)">
    <rect id="Rectangle_29559" data-name="Rectangle 29559" width="137.101" height="19.459" transform="translate(0.659)" fill="#455a64"/>
    <rect id="Rectangle_29560" data-name="Rectangle 29560" width="130.564" height="6.321" transform="translate(3.933 19.459)" fill="#455a64"/>
    <rect id="Rectangle_29561" data-name="Rectangle 29561" width="130.564" height="2.096" transform="translate(3.933 19.459)" fill="#263238"/>
    <path id="Path_282435" data-name="Path 282435" d="M335.649,455.4H330.43l15.191-133.46h13.322Z" transform="translate(-330.43 -296.171)" fill="#455a64"/>
    <path id="Path_282436" data-name="Path 282436" d="M357.888,321.95l-1.556,8.925H343.55l1.016-8.925Z" transform="translate(-329.374 -296.17)" fill="#263238"/>
    <path id="Path_282437" data-name="Path 282437" d="M455.456,455.4h5.219L445.483,321.94H432.15Z" transform="translate(-322.245 -296.171)" fill="#455a64"/>
    <path id="Path_282438" data-name="Path 282438" d="M432.15,321.95l1.567,8.925h12.771l-1.016-8.925Z" transform="translate(-322.245 -296.17)" fill="#263238"/>
  </g>
  <g id="freepik--Plant--inject-61" transform="translate(364.857 268.809)">
    <path id="Path_282439" data-name="Path 282439" d="M428.243,377.438a65.308,65.308,0,0,0-2.085,11.777c.108.195.086.918,0,.724,0,.648-1,.529-1-.108v-1.243c-2.3-2.852-5.64-4.657-8.341-7.142a15.6,15.6,0,0,1-4.57-7.272c-2.237-7.725-.141-15.9-2.831-23.6-2.323-6.634-6.483-12.4-10.016-18.368-3.717-6.364-6.483-13.041-6.742-20.529-.216-5.7.465-13.311,4.808-17.579,4.6-4.538,10.318-1.134,13.841,2.906,10.221,11.734,14.954,26.558,16.866,41.717,1.08,8.384,2.161,16.834,1.891,25.3A67.645,67.645,0,0,1,428.243,377.438Z" transform="translate(-378.049 -291.939)" fill="#63bd92"/>
    <path id="Path_282440" data-name="Path 282440" d="M425.407,390.763a145.5,145.5,0,0,0-.281-23.77v-.086c.13-6.429.637-12.825.389-19.265a113.831,113.831,0,0,0-2.831-20.648.065.065,0,1,0-.119,0,136.132,136.132,0,0,1,2.237,20.194q.195,5.4-.087,10.891c-.065,1.178-.173,2.366-.259,3.555h0a127.161,127.161,0,0,0-19.114-50.588c-.13-.205-.508,0-.378.238a132.153,132.153,0,0,1,15.6,37.536c-4.916-9.108-12.35-16.6-17.86-25.348,0,0-.108,0-.076.054,4.948,9.724,13.117,17.428,18.368,27.012.9,3.911,1.642,7.866,2.161,11.831a132.98,132.98,0,0,1,1.189,16.445c-2.993-5.6-6.1-10.945-8.557-16.866-.065-.162-.292-.054-.238.108,2.085,6.148,4.884,12.771,8.806,18.011,0,3.89-.1,7.79-.324,11.669-.605,10.383-2.377,20.615-3.241,30.966a.239.239,0,0,0,.475.054,239.474,239.474,0,0,0,4.138-31.993Z" transform="translate(-377.244 -290.409)" fill="#263238"/>
    <path id="Path_282441" data-name="Path 282441" d="M413.519,310.752c0-.076-.151,0-.119.054,1.891,5.24,2.971,10.545,4.322,15.915a.2.2,0,0,0,.389-.065C417.571,321.211,415.626,315.777,413.519,310.752Z" transform="translate(-376.377 -290.428)" fill="#263238"/>
    <path id="Path_282442" data-name="Path 282442" d="M460.829,331.521a76.943,76.943,0,0,1-4.322,8.957c-3.414,6.191-6.969,11.885-7.563,19.092a44.474,44.474,0,0,1-1.372,9.562,28.638,28.638,0,0,1-3.814,7.488c-3.7,5.4-8.32,10.038-11.755,15.624a65.824,65.824,0,0,0-7.8,18.833c-.086.357-.659.259-.573-.1v-.086a.1.1,0,0,1,0-.076c-.54-15.472.691-31.074,5.4-45.9a157.93,157.93,0,0,1,7.5-19.092c2.528-5.4,5.672-10.545,10.113-14.554,2.885-2.593,9.13-7.563,13.236-4.916C461.759,327.609,461.607,329.587,460.829,331.521Z" transform="translate(-375.563 -289.23)" fill="#63bd92"/>
    <path id="Path_282443" data-name="Path 282443" d="M445.581,365.621a127.072,127.072,0,0,1-8.989,12.966c-1.5,1.956-3.025,3.9-4.516,5.856-.713.929-1.5,1.848-2.161,2.842l1.232-4.97c2-7.812,3.922-15.7,6.893-23.219a157.759,157.759,0,0,1,10.74-21.069c.108-.173-.184-.3-.281-.13-3.241,5.4-6.591,10.74-9.346,16.412a88.512,88.512,0,0,0-3.965,9.724,149.554,149.554,0,0,1,5.284-20.821c0-.054-.065-.1-.1,0a71.313,71.313,0,0,0-5.478,21.609h0q-1,3.015-1.858,6.083c-2.442,8.644-4.581,17.406-6.558,26.191a93,93,0,0,1,1.491-17.212.108.108,0,0,0-.205,0,54.585,54.585,0,0,0-1.491,18.141q-1.135,5.008-2.161,10.027c-1.523,7.131-3.393,14.392-4.322,21.609a.143.143,0,0,0,.281.054c1.08-3.911,1.707-7.952,2.572-11.885s1.772-7.92,2.69-11.885c1.34-5.759,2.755-11.507,4.181-17.288.962-2.1,2.82-3.965,4.2-5.726,1.523-1.934,3.047-3.879,4.527-5.845a87.354,87.354,0,0,0,7.455-11.518C445.765,365.6,445.624,365.535,445.581,365.621Z" transform="translate(-375.863 -288.248)" fill="#263238"/>
    <path id="Path_282444" data-name="Path 282444" d="M444.926,357.422a80.4,80.4,0,0,0-8.806,13.992c0,.054.076.13.108.065,2.96-4.646,5.878-9.324,8.838-13.971C445.11,357.433,444.98,357.357,444.926,357.422Z" transform="translate(-374.549 -286.672)" fill="#263238"/>
    <path id="Path_282445" data-name="Path 282445" d="M383.635,345.957c2.01,3.458,4.322,7.563,3.436,11.745-.551,2.626-2.474,4.754-2.82,7.434-.778,5.91,5.121,9.821,9.378,12.609,10.632,6.98,25.2,13.193,27.131,27.433.076.5.951.378.886-.119a.315.315,0,0,0,0-.1s.054,0,.054-.076a54.6,54.6,0,0,0-.205-21.75c-1.578-7.336-4.787-13.938-8.568-20.378-6.4-10.913-13.16-22.085-22.83-30.448-2.68-2.3-8.158-6.483-10.3-1.242S381.15,341.743,383.635,345.957Z" transform="translate(-379.134 -288.994)" fill="#63bd92"/>
    <path id="Path_282446" data-name="Path 282446" d="M392.311,367.2c7.045,7.628,18.249,11.885,24.311,20.443a85.563,85.563,0,0,0-18.681-35.094.275.275,0,0,1,.389-.389A69.248,69.248,0,0,1,413.6,374.262a98.809,98.809,0,0,0-6.58-16.812.184.184,0,0,1,.313-.184,64.192,64.192,0,0,1,7.088,18.908c8,19.34,8.73,42.03,7.055,62.419,0,.292-.465.3-.454,0,.454-16.067.194-32.414-3.652-48.113l-.259-.972c-6.591-9.195-17.741-13.463-24.916-22.193A.084.084,0,0,1,392.311,367.2Z" transform="translate(-378.085 -287.1)" fill="#263238"/>
    <path id="Path_282447" data-name="Path 282447" d="M390.808,360c3.7,3.393,7.336,6.872,11.042,10.254,0,0,0,.108-.054.076a53.885,53.885,0,0,1-11.2-10.1.162.162,0,0,1,.216-.227Z" transform="translate(-378.214 -286.464)" fill="#263238"/>
    <path id="Path_282448" data-name="Path 282448" d="M390.266,346.4a116.557,116.557,0,0,0,11.064,15.213c.054.065,0,.162-.1.1a53.721,53.721,0,0,1-11.172-15.2.119.119,0,0,1,.205-.108Z" transform="translate(-378.255 -287.56)" fill="#263238"/>
    <path id="Path_282449" data-name="Path 282449" d="M405.66,448.706h32.393l-4.365-43.586H410.652Z" transform="translate(-377 -282.832)" fill="#455a64"/>
    <path id="Path_282450" data-name="Path 282450" d="M409.52,412.208h24.57l-.713-7.088H410.33Z" transform="translate(-376.689 -282.832)" fill="#263238"/>
    <rect id="Rectangle_29562" data-name="Rectangle 29562" width="30.361" height="6.958" transform="translate(60.037 124.417) rotate(180)" fill="#455a64"/>
  </g>
  <g id="freepik--Lamp--inject-61" transform="translate(0.001 22.657)">
    <rect id="Rectangle_29563" data-name="Rectangle 29563" width="5.835" height="291.349" transform="translate(36.249 114.843)" fill="#263238"/>
    <rect id="Rectangle_29564" data-name="Rectangle 29564" width="196.094" height="5.834" transform="translate(0 150.477) rotate(-45)" fill="#263238"/>
    <rect id="Rectangle_29565" data-name="Rectangle 29565" width="5.835" height="63.261" transform="translate(7.53 412.026) rotate(-90)" fill="#263238"/>
    <path id="Path_282451" data-name="Path 282451" d="M175.156,97.442l19.557-18.368L176.3,64.12,161.65,77.885Z" transform="translate(-31.778 -64.12)" fill="#9d9d9d"/>
    <path id="Path_282452" data-name="Path 282452" d="M194.106,78.453,174.55,96.821l-5.37-7.779L185.938,71.83Z" transform="translate(-31.172 -63.5)" opacity="0.1"/>
    <path id="Path_282453" data-name="Path 282453" d="M173.172,128.054l52.77-49.594L200.735,64.89,161.19,102.058Z" transform="translate(-31.815 -64.058)" fill="#9d9d9d"/>
  </g>
  <g id="freepik--Mug--inject-61" transform="translate(323.298 180.871)">
    <path id="Path_282454" data-name="Path 282454" d="M364.206,273.228s-18.746-8.644-18.746-20.216,24.311-19.027,24.311-28.092-10.6-14.37-10.6-14.37,16.747,5.727,16.747,17.169-16.034,19.211-17.558,26.536C356.221,264.325,364.206,273.228,364.206,273.228Z" transform="translate(-340.285 -210.55)" fill="#dbdbdb" opacity="0.6"/>
    <path id="Path_282455" data-name="Path 282455" d="M362.876,272.226s18.757-6.785,18.757-15.894-24.375-14.965-24.375-22.074S367.868,223,367.868,223s-16.758,4.495-16.758,13.5,18.368,15.191,19.729,22.5S362.876,272.226,362.876,272.226Z" transform="translate(-339.83 -209.548)" fill="#dbdbdb" opacity="0.6"/>
    <rect id="Rectangle_29566" data-name="Rectangle 29566" width="17.839" height="2.788" transform="translate(14.802 91.797)" fill="#4488c8"/>
    <rect id="Rectangle_29567" data-name="Rectangle 29567" width="17.839" height="1.837" transform="translate(14.802 91.797)" opacity="0.1"/>
    <path id="Path_282456" data-name="Path 282456" d="M391.551,290.141a10.1,10.1,0,0,1-10.048,4.322,9.716,9.716,0,0,1-1.8-.519,12.965,12.965,0,0,1-2.528-1.329l2.269-3.36a8.245,8.245,0,0,0,1.34.767,5.932,5.932,0,0,0,7.466-2.161c2.442-3.436,3.317-11.28.843-14.305-.162-.216-.886-.573-3.76,0-.529.119-1.081.248-1.8.432a7.562,7.562,0,0,1-1.631.357l-.076-2.02-.194-2.01a4.625,4.625,0,0,0,.854-.227,26.462,26.462,0,0,1,4.052-.843c2.161-.216,4.322,0,5.694,1.707C396.24,275.868,394.609,285.841,391.551,290.141Z" transform="translate(-337.733 -205.832)" fill="#4488c8"/>
    <path id="Path_282457" data-name="Path 282457" d="M379.439,287.74a8.24,8.24,0,0,0,1.34.767l-1.08,3.922a12.966,12.966,0,0,1-2.528-1.329Z" transform="translate(-337.733 -204.339)" opacity="0.1"/>
    <path id="Path_282458" data-name="Path 282458" d="M386.2,269.23l-1.2,4.322c-.529.119-1.08.249-1.8.432a7.561,7.561,0,0,1-1.632.356l-.076-2.02-.194-2.01a4.629,4.629,0,0,0,.854-.227A26.453,26.453,0,0,1,386.2,269.23Z" transform="translate(-337.401 -205.828)" opacity="0.1"/>
    <path id="Path_282459" data-name="Path 282459" d="M340.67,264.37s.151,1.329.454,3.425c.054.313.1.67.151,1.016.216,1.437.5,3.144.81,4.97a2.542,2.542,0,0,1,0,.324c.475,2.626,1.08,5.478,1.718,8.179a1.82,1.82,0,0,0,.1.346c.184.724.378,1.437.573,2.161s.411,1.361.616,2a30.18,30.18,0,0,0,1.361,3.447c3.7,7.65,8.86,8.5,12.058,8.5H370.2c3.241,0,8.363-.854,12.047-8.5l.335-.745c.086-.184.162-.378.238-.573s.162-.4.238-.605l.162-.432a58.291,58.291,0,0,0,1.912-6.634,2.669,2.669,0,0,0,.076-.281s0-.065,0-.108c.227-.951.432-1.912.627-2.863.335-1.556.637-3.1.886-4.56.108-.67.227-1.329.335-1.956a2.731,2.731,0,0,1,.086-.519c.065-.421.14-.832.194-1.232s.108-.767.162-1.08.1-.713.151-1.08c.281-1.934.421-3.155.421-3.155Z" transform="translate(-340.67 -206.219)" fill="#4488c8"/>
    <path id="Path_282460" data-name="Path 282460" d="M342,273.621c.475,2.626,1.08,5.478,1.718,8.179a4.127,4.127,0,0,1,.886.162,12.33,12.33,0,0,1,4.009,1.729,23.839,23.839,0,0,1,3.349,2.8,23.7,23.7,0,0,0,3.241,2.766,7.564,7.564,0,0,0,3.9,1.264,4.916,4.916,0,0,0,3.565-1.686,24.342,24.342,0,0,0,2.669-3.328,40.9,40.9,0,0,1,2.626-3.49,9.9,9.9,0,0,1,1.642-1.5,7.205,7.205,0,0,1,1.08-.529,3.61,3.61,0,0,1,1.156-.194,4.419,4.419,0,0,1,2.226.551,8.772,8.772,0,0,1,1.794,1.329c1.08.994,2.01,2.161,2.971,3.187a7.434,7.434,0,0,0,3.306,2.453,2.431,2.431,0,0,0,1,0,58.277,58.277,0,0,0,1.913-6.634c-.378-.1-.767-.194-1.145-.313a11.98,11.98,0,0,1-3.825-2.161,25.106,25.106,0,0,1-3.068-3.09,25.022,25.022,0,0,0-2.961-3.079,7.65,7.65,0,0,0-3.771-1.642,4.959,4.959,0,0,0-3.706,1.34,22.587,22.587,0,0,0-2.96,3.047c-.951,1.081-1.891,2.161-2.96,3.241a9.5,9.5,0,0,1-1.783,1.34,6.27,6.27,0,0,1-1.081.432,4.019,4.019,0,0,1-1.188.086,4.625,4.625,0,0,1-2.161-.778,8.448,8.448,0,0,1-1.653-1.5c-.994-1.08-1.794-2.3-2.658-3.447a7.5,7.5,0,0,0-3.047-2.777c-1.307-.465-2.7.27-3.792,1.135C342.875,272.908,342.454,273.211,342,273.621Z" transform="translate(-340.563 -205.735)" opacity="0.1"/>
    <path id="Path_282461" data-name="Path 282461" d="M342,273.339a2.53,2.53,0,0,1,0,.324c.421-.367.843-.713,1.275-1.08,1.08-.864,2.485-1.6,3.792-1.134a7.5,7.5,0,0,1,3.047,2.777c.864,1.145,1.664,2.366,2.658,3.447a8.45,8.45,0,0,0,1.653,1.5,4.625,4.625,0,0,0,2.161.778,4.02,4.02,0,0,0,1.189-.086,6.265,6.265,0,0,0,1.08-.432,9.494,9.494,0,0,0,1.783-1.34c1.08-1.016,2.01-2.161,2.96-3.241a22.6,22.6,0,0,1,2.96-3.047,4.96,4.96,0,0,1,3.706-1.34,7.648,7.648,0,0,1,3.771,1.642A25.018,25.018,0,0,1,377,275.186a25.116,25.116,0,0,0,3.069,3.09,11.982,11.982,0,0,0,3.825,2.161c.378.119.767.216,1.145.313a2.709,2.709,0,0,0,.076-.281,10.555,10.555,0,0,1-1.08-.357,14.749,14.749,0,0,1-6.591-5.24,22.547,22.547,0,0,0-3-3.187,8.277,8.277,0,0,0-4.052-1.8,5.608,5.608,0,0,0-4.214,1.448,23.919,23.919,0,0,0-3.079,3.112c-.951,1.081-1.858,2.161-2.874,3.187a4.5,4.5,0,0,1-3.555,1.7,5.154,5.154,0,0,1-3.414-2.031c-.951-1.081-1.772-2.237-2.669-3.382a7.943,7.943,0,0,0-3.349-2.863,3.241,3.241,0,0,0-2.247.13,7.282,7.282,0,0,0-1.88,1.156C342.7,272.669,342.346,272.993,342,273.339Z" transform="translate(-340.563 -205.777)" fill="#fff"/>
    <path id="Path_282462" data-name="Path 282462" d="M343.62,281.15a1.82,1.82,0,0,0,.1.346l.7.151a14.986,14.986,0,0,1,7.077,4.57,21.61,21.61,0,0,0,3.241,2.885,8.222,8.222,0,0,0,4.214,1.394,5.511,5.511,0,0,0,4.041-1.837,24.988,24.988,0,0,0,2.788-3.393,35.525,35.525,0,0,1,2.55-3.447,4.68,4.68,0,0,1,3.349-2.053,5.272,5.272,0,0,1,3.6,1.7c1.08.951,1.988,2.053,2.993,3.1a7.877,7.877,0,0,0,3.6,2.528,2.508,2.508,0,0,0,.94,0l.162-.432a2.43,2.43,0,0,1-1,0,7.432,7.432,0,0,1-3.306-2.453c-.962-1.08-1.88-2.161-2.971-3.187a8.774,8.774,0,0,0-1.794-1.329,4.419,4.419,0,0,0-2.226-.551,3.609,3.609,0,0,0-1.156.194,7.2,7.2,0,0,0-1.08.529,9.9,9.9,0,0,0-1.642,1.5,40.909,40.909,0,0,0-2.626,3.49,24.339,24.339,0,0,1-2.669,3.328,4.916,4.916,0,0,1-3.566,1.685,7.563,7.563,0,0,1-3.9-1.264,23.71,23.71,0,0,1-3.241-2.766,23.828,23.828,0,0,0-3.349-2.8,12.329,12.329,0,0,0-4.009-1.729A1.324,1.324,0,0,0,343.62,281.15Z" transform="translate(-340.433 -205.031)" fill="#fff"/>
  </g>
  <g id="freepik--Character--inject-61" transform="translate(0 98.614)">
    <path id="Path_282463" data-name="Path 282463" d="M175.035,383.39l-82.5,66.524h4.646l95.287-66.524Z" transform="translate(-37.34 -114.385)" fill="#c7c7c7"/>
    <path id="Path_282464" data-name="Path 282464" d="M179.1,383.39,138.33,449.914h4.646l49.972-66.524Z" transform="translate(-33.654 -114.385)" fill="#c7c7c7"/>
    <path id="Path_282465" data-name="Path 282465" d="M195.592,383.39l40.766,66.524h-4.646L181.74,383.39Z" transform="translate(-30.161 -114.385)" fill="#c7c7c7"/>
    <path id="Path_282466" data-name="Path 282466" d="M202.448,383.39l82.494,66.524H280.3L185.02,383.39Z" transform="translate(-29.897 -114.385)" fill="#c7c7c7"/>
    <path id="Path_282467" data-name="Path 282467" d="M351.7,374.505V355.046l-113.3-4.657L178.562,190.62H41.45L89.963,374.505l115.9,32.533h7.261Z" transform="translate(-41.45 -129.897)" fill="#455a64"/>
    <path id="Path_282468" data-name="Path 282468" d="M41.45,190.62H57.138l50.544,167.613L210.23,387.287,351.7,355.046v19.459l-138.57,32.533h-7.261l-115.9-32.533Z" transform="translate(-41.45 -129.897)" fill="#37474f"/>
    <path id="Path_282469" data-name="Path 282469" d="M415.488,453.779c-3.663.086-98.463-29.173-101.37-32.619-.313-.378,1.167-14.413,3.62-25.553.108-.54-33.678-44.8-33.678-44.8l61.079-23.77,29.227,60.506,7.563,15.742s31.625,31.8,34.435,35.872S419.14,453.693,415.488,453.779Z" transform="translate(-21.927 -118.92)" fill="#ebebeb"/>
    <path id="Path_282470" data-name="Path 282470" d="M416.078,449.213c-3.814.1-102.785-30.113-105.832-33.657-1.167-1.329.605-7.455,5.4-25.056l64.828,7.812s33.495,31.442,36.412,35.655S419.881,449.1,416.078,449.213Z" transform="translate(-19.848 -113.813)" fill="#9d9d9d"/>
    <path id="Path_282471" data-name="Path 282471" d="M415.463,443.015c-16.466-5.467-83.4-25.931-100.095-30.145-.13,0-.162.054,0,.108,16.207,5.781,83.3,25.748,100.051,30.253C415.7,443.382,415.776,443.134,415.463,443.015Z" transform="translate(-19.417 -112.013)" fill="#263238"/>
    <path id="Path_282472" data-name="Path 282472" d="M405.409,425.713a13.938,13.938,0,0,0-11.161,1.026,13.494,13.494,0,0,0-6.418,7.725c0,.1.162.162.205.065,2.928-6.213,10.578-10.113,17.288-8.644a.108.108,0,0,0,.086-.173Z" transform="translate(-13.577 -111.037)" fill="#263238"/>
    <path id="Path_282473" data-name="Path 282473" d="M383.037,403.9c-6.612-2.161-15.018-2.161-20.81,2.042-.227.162,0,.475.238.432a96.66,96.66,0,0,1,20.443-1.631.432.432,0,0,0,.13-.843Z" transform="translate(-15.645 -112.85)" fill="#263238"/>
    <path id="Path_282474" data-name="Path 282474" d="M387.217,407.186c-6.612-2.161-15.019-2.161-20.81,2.053-.227.162,0,.475.238.432a96.013,96.013,0,0,1,20.443-1.632.432.432,0,0,0,.13-.854Z" transform="translate(-15.309 -112.585)" fill="#263238"/>
    <path id="Path_282475" data-name="Path 282475" d="M391.4,410.486c-6.612-2.161-15.019-2.161-20.81,2.053-.227.162,0,.475.238.432a95.954,95.954,0,0,1,20.443-1.632.432.432,0,0,0,.13-.853Z" transform="translate(-14.972 -112.32)" fill="#263238"/>
    <path id="Path_282476" data-name="Path 282476" d="M395.557,413.786c-6.612-2.161-15.019-2.161-20.81,2.042-.227.162,0,.486.238.443a95.966,95.966,0,0,1,20.443-1.632.432.432,0,0,0,.13-.854Z" transform="translate(-14.637 -112.054)" fill="#263238"/>
    <path id="Path_282477" data-name="Path 282477" d="M394.751,389.586c-2.507-3.814-7.563-2.377-10.535-.119A36.444,36.444,0,0,0,373,404.594c-.054.14,0,.227.151.259a.846.846,0,0,0,1.026.9c5.727-1.826,12.08-3.069,17.071-6.6C394.168,397.1,397.128,393.195,394.751,389.586Zm-12.458,11.626c-2.788.972-5.618,1.794-8.374,2.863a109.319,109.319,0,0,1,6.742-8.7,39.974,39.974,0,0,1,3.792-3.738c2.161-1.75,10.329-5.316,8.784,2.161C392.385,397.852,385.632,400.067,382.294,401.212Z" transform="translate(-14.772 -114.077)" fill="#263238"/>
    <path id="Path_282478" data-name="Path 282478" d="M357.405,401.827c5.51,2.658,11.972,2.831,17.925,3.684.616.086.951-.551.864-1.08a.184.184,0,0,0,.108-.281,36.445,36.445,0,0,0-13.5-13.052c-3.3-1.74-8.525-2.312-10.372,1.858C350.663,396.922,354.229,400.282,357.405,401.827Zm-2.863-5c-2.755-7.066,5.943-4.916,8.309-3.544a39.176,39.176,0,0,1,4.322,3.069q4.23,3.523,8.093,7.455c-2.9-.594-5.824-.94-8.741-1.437-3.382-.583-10.416-1.642-11.939-5.543Z" transform="translate(-16.463 -113.871)" fill="#263238"/>
    <path id="Path_282479" data-name="Path 282479" d="M389.842,395.79l-67.335,9.951s-36.736-66.719-51.582-83.315h0a23.585,23.585,0,0,0-2.712-2.658h0a13.917,13.917,0,0,0-4.862-1.21h0c-19.913-2.42-86.913,4.095-133.222,1.08l21.609-28.9,9.584-12.825c52.165-5.943,116.183-27.271,145.064-12.782C337.688,280.85,389.842,395.79,389.842,395.79Z" transform="translate(-34.314 -124.3)" fill="#263238"/>
    <path id="Path_282480" data-name="Path 282480" d="M367.049,375.11c-11.442,1.48-8.179.9-19.611,2.5-5.6.778-33.711,4.635-38.81,6.234a.108.108,0,1,0,0,.216c5.337,0,33.376-4.419,38.951-5.305,11.4-1.8,8.1-1.4,19.448-3.328a.162.162,0,1,0,.022-.313Z" transform="translate(-19.959 -115.052)" fill="#37474f"/>
    <path id="Path_282481" data-name="Path 282481" d="M322.145,388.2c-7.617-12.739-42.311-75.633-49.215-78.1-6.288-2.258-132.044.357-133.9.367a.1.1,0,0,0,0,.205c14.889-.184,129.829-.594,133.114.7,6.818,2.69,48.3,75.633,49.323,77.156C321.724,388.94,322.4,388.637,322.145,388.2Z" transform="translate(-33.606 -120.356)" fill="#37474f"/>
    <path id="Path_282482" data-name="Path 282482" d="M97.525,292.014s-3.976,37.979,15.267,56.779c23.025,22.571,175.036,16.877,198.536,9.26s24.278-45.607-1.459-54.413c-24.483-8.374-133.071-13.193-135.642-14.219s-10.1-13.041-10.1-13.041Z" transform="translate(-36.965 -122.996)" fill="#263238"/>
    <path id="Path_282483" data-name="Path 282483" d="M128.688,289.868c0-.184-.313-.119-.313.054a20.9,20.9,0,0,1-4.895,13.452c-3.609,4.171-8.925,6.483-13.744,8.936-.465.238-.108.962.367.821a43.011,43.011,0,0,0,8.514-3.674,20.53,20.53,0,0,0,6.4-5.316A18.281,18.281,0,0,0,128.688,289.868Z" transform="translate(-35.973 -121.92)" fill="#37474f"/>
    <path id="Path_282484" data-name="Path 282484" d="M168.9,287.264c-1.08-1.372-2.247-2.68-3.371-4.009-2.647-3.166-5.316-6.332-8.093-9.378-.27-.292-.778.119-.54.432,1.869,2.453,3.857,4.819,5.8,7.207l3.014,3.663a22.785,22.785,0,0,1,2.809,3.566c.735,1.361-.227,2.517-1.632,2.669a4.938,4.938,0,0,1-3.393-1.243c-2.161-1.686-3.922-4.095-5.737-6.148-1.08-1.253-2.237-2.518-3.371-3.749s-2.5-2.582-3.7-3.89a.1.1,0,0,0-.162.119c1.08,1.448,2.02,2.95,3.079,4.4s2.161,2.874,3.241,4.322,2.085,2.658,3.241,3.944a13.309,13.309,0,0,0,3.241,2.9c2.02,1.189,5.51,1.437,6.591-1.167A3.674,3.674,0,0,0,168.9,287.264Z" transform="translate(-32.674 -123.206)" fill="#37474f"/>
    <path id="Path_282485" data-name="Path 282485" d="M307.706,356.878c-8.114.151-16.207.627-24.321.8s-16.088.216-24.138.14q-24.235-.227-48.427-1.88c-16.294-1.08-33.862-2.755-50.037-4.992-7.747-1.08-15.591-1.966-23.252-3.609a36.736,36.736,0,0,1-18.368-9.368c-10.481-10.167-14.554-25.11-16.207-39.383-.227-1.923-.411-3.836-.562-5.759,0-.13-.216-.13-.205,0,.951,14.64,3.241,29.907,12.436,41.674a36.53,36.53,0,0,0,15,11.647c7.25,2.906,15.289,3.587,22.938,4.624,16.207,2.161,33.884,3.9,50.22,5.175s32.933,2.064,49.421,2.312,32.987,0,49.453-.8c2.02-.1,4.019-.216,6.029-.4C307.814,357.061,307.814,356.878,307.706,356.878Z" transform="translate(-36.562 -121.681)" fill="#37474f"/>
    <path id="Path_282486" data-name="Path 282486" d="M324.02,321.786a26.1,26.1,0,0,0-10.859-15.537c-5.835-3.987-12.814-5.8-19.729-6.807-7.812-1.134-15.732-1.718-23.6-2.474q-24.192-2.355-48.427-4.322c-16.142-1.329-50.912-4.03-52.867-4.106a.152.152,0,0,0,0,.3c15.58,1.729,29.767,3.241,45.38,4.635s31.334,2.917,47.054,4.473q11.712,1.145,23.435,2.355c7.228.746,14.673,1.48,21.458,4.322,5.824,2.4,11.064,6.256,14.046,11.885a28.006,28.006,0,0,1,2.323,18.033,31.8,31.8,0,0,1-7.563,15.245,27.011,27.011,0,0,1-14.122,8.514c-1.426.313-3.144.529-4.462.8-.1,0-.205.227-.1.227,11.669.3,22.463-8.222,26.677-18.887A31.215,31.215,0,0,0,324.02,321.786Z" transform="translate(-31.234 -122.018)" fill="#37474f"/>
    <path id="Path_282487" data-name="Path 282487" d="M139.579,205.559c7.725,30.253,23.079,66.427,29.389,72.2,8,7.3,56.887,16.888,59.426,17.136,4.235.421,12.966-43.219,9.022-43.068-10.459.227-42.679-3.047-44.991-5.305s-18.768-22.02-35.655-44.3C145.176,186.889,134.792,186.781,139.579,205.559Z" transform="translate(-33.65 -129.861)" fill="#4488c8"/>
    <path id="Path_282488" data-name="Path 282488" d="M218.06,288.57c.7.335,10.8,5.089,16.953,6.72,4.614,1.221,18,4.376,19.848-.573,1.253-3.371-6.4-6.159-11.755-8.244-2.831-1.081-6.353-3.944-5.564-5.759,1.361-3.241,8.644-.194,13.452,2.442,9.292,5.111,21.728,14.392,27.217,9.616,2.064-1.815-.465-4.949-4.138-8.006,5.921,3.522,12.22,6.375,14.6,4.452,1.361-1.08,1.394-2.55.583-4.192,1.815.551,3.4.389,4.484-.81,1.848-2.02.854-4.927-1.3-7.887a2.247,2.247,0,0,0,1.7-1.167c3.868-6.223-16.65-23.316-23.641-24.786-20.529-4.322-42.084-2.95-42.084-2.95C220.534,254.038,218,288.548,218.06,288.57Z" transform="translate(-27.238 -125.343)" fill="#eb9481"/>
    <path id="Path_282489" data-name="Path 282489" d="M245.462,267.4a34.727,34.727,0,0,1,13.765,4.97c5.273,3.3,8.806,7.218,13.247,11.15.119.108,0,.292-.151.184-2.161-1.869-10.88-8.871-13.139-10.448a32.953,32.953,0,0,0-13.733-5.716S245.418,267.389,245.462,267.4Z" transform="translate(-25.035 -123.719)" fill="#263238"/>
    <path id="Path_282490" data-name="Path 282490" d="M248.8,259.28c5.4,1.34,10.945,2.7,16,5.121,5.521,2.647,9.9,7.077,14.208,11.345q3.868,3.847,7.563,7.844c.108.119,0,.3-.151.184q-6.569-6.591-13.506-12.814a43.876,43.876,0,0,0-14.673-8.741c-3.1-1.08-6.288-1.956-9.465-2.809Z" transform="translate(-24.766 -124.372)" fill="#263238"/>
    <path id="Path_282491" data-name="Path 282491" d="M253.941,252.13c5.251.951,9.821,1.761,14.522,4.441,6.2,3.566,12.263,9.659,14.392,11.82,2.345,2.388,4.614,4.862,6.839,7.358.1.1-.086.259-.173.162a174.227,174.227,0,0,0-16.3-15.4,34.735,34.735,0,0,0-9.054-5.575,61.587,61.587,0,0,0-10.221-2.766S253.919,252.13,253.941,252.13Z" transform="translate(-24.352 -124.948)" fill="#263238"/>
    <path id="Path_282492" data-name="Path 282492" d="M234.038,248.948,219.343,299.73s-43.338-11.248-51.409-19.546S144.294,228.43,139.507,207.3s5.975-20.853,16.207-7.7,35.526,45,36.92,45.671S234.038,248.948,234.038,248.948Z" transform="translate(-33.654 -129.912)" fill="#4488c8"/>
    <path id="Path_282493" data-name="Path 282493" d="M209.443,273.06c1.783-5.975,3.62-11.95,5.175-18,.886-3.436,1.794-6.872,2.647-10.319,0-.13-.184-.205-.227-.076-2.031,5.932-4.052,11.885-5.8,17.914s-3.544,11.982-5.219,18.011q-1.426,5.121-2.528,10.34c0,.065.1.108.119,0C205.824,285.1,207.639,279.089,209.443,273.06Z" transform="translate(-28.411 -125.554)" fill="#263238"/>
    <path id="Path_282494" data-name="Path 282494" d="M213.1,297.992c-12.307-3.468-39.016-11.529-45.174-17.849-8.06-8.3-23.63-51.755-28.416-72.878-2.28-10.146-1-15.375,2.085-16.585a9.955,9.955,0,0,1,.983.54C158.5,213.078,191.5,265.276,213.1,297.992Z" transform="translate(-33.653 -129.893)" opacity="0.1"/>
    <path id="Path_282495" data-name="Path 282495" d="M93.456,305.533c.238.248,91.84-19.827,92.7-20.885,1.189-1.5-15.191-70.393-32.414-90.954-4.322-5.143-18.076-4.786-24.235.4C98.966,219.809,92.591,304.647,93.456,305.533Z" transform="translate(-37.271 -129.946)" fill="#4488c8"/>
    <path id="Path_282496" data-name="Path 282496" d="M124.489,198.785c-18.271,14.046-66.416,70.879-56.357,84.352s79.058,9,99.187,3.241c5.986-1.729-9.378-39.826-15.775-41.706-5.316-1.578-35.18,6.537-35.72,4.8-.616-1.956,6.007-14.543,16.672-37.568C144.813,185.322,132.56,192.583,124.489,198.785Z" transform="translate(-39.413 -129.71)" fill="#eb9481"/>
    <path id="Path_282497" data-name="Path 282497" d="M171.22,237.029c13.311.335,16.682,2.474,28.092-3.241,7.466-3.728,13.052-.551,7.974,6.483-8.3,11.518-25.575,14.694-31.874,14.046Z" transform="translate(-31.007 -126.551)" fill="#eb9481"/>
    <path id="Path_282498" data-name="Path 282498" d="M137.31,243.514s15.969-5.7,30.188-6.742c9.832-.713,31.409.1,48.178,24.3,3.976,5.737,5.564,16.726-4.322,9.724-7.023-4.981-9.984-10.264-14.6-12.415,0,0,.367,14.23-5.532,17.99a129.408,129.408,0,0,1-16.131,8.719,27.825,27.825,0,0,1-1.9-2.863s-5.845,2.982-15.5.432Z" transform="translate(-33.736 -126.196)" fill="#eb9481"/>
    <path id="Path_282499" data-name="Path 282499" d="M174.706,237.48c4.127,3.112,12.782,9.843,17.936,17.806,5.726,8.838,14.381,27.433,7.8,31.593-4.819,3.047-8.741-3.76-8.741-3.76s1.956,8.438-3,10.243c-4.516,1.642-7.239-3.8-7.239-3.8s.3,5.327-4.322,6.072c-5.6.9-5.316-10.4-11.777-14.4C163.9,280.331,174.706,237.48,174.706,237.48Z" transform="translate(-31.49 -126.127)" fill="#eb9481"/>
    <path id="Path_282500" data-name="Path 282500" d="M181.056,258.12c3.414,3.555,9.076,13.614,9.519,23.154,0,.205-.14.335-.194.14a103.587,103.587,0,0,0-9.4-23.241Z" transform="translate(-30.222 -124.466)" fill="#263238"/>
    <path id="Path_282501" data-name="Path 282501" d="M172.946,263.711c2.626,3.371,8.006,14.046,8.125,23.673,0,.227-.162.335-.205.14a110.392,110.392,0,0,0-8.006-23.77S172.914,263.668,172.946,263.711Z" transform="translate(-30.876 -124.017)" fill="#263238"/>
    <path id="Path_282502" data-name="Path 282502" d="M192.338,256.64c4.041,1.956,6.483,4.484,9.616,7.563a58.572,58.572,0,0,0,4.895,4.322c1.567,1.221,3.89,3.058,5.964,1.891,1.156-.637,1.394-2.161,1.361-3.328a17.46,17.46,0,0,0-1.534-5.219s.076-.108.108,0a25.131,25.131,0,0,1,1.837,4.722,5.781,5.781,0,0,1-.162,3.371c-1.016,2.237-3.825,2.085-5.672,1.08a18.981,18.981,0,0,1-3.069-2.161c-.929-.756-1.826-1.556-2.69-2.388-1.794-1.7-3.49-3.49-5.251-5.208a56.636,56.636,0,0,0-5.489-4.538C192.187,256.716,192.263,256.608,192.338,256.64Z" transform="translate(-29.317 -124.585)" fill="#263238"/>
    <path id="Path_282503" data-name="Path 282503" d="M198.952,273.031a135.94,135.94,0,0,0-6.483-16.3.058.058,0,1,1,.1-.065c2.788,3.674,6.721,12.879,7.563,15.753s1.642,6.429,1.156,9.368c-.735,4.43-3.814,4.786-4.938,4.819a5.77,5.77,0,0,1-3.663-1.232,11.636,11.636,0,0,1-2.885-3.782c0-.065.054-.14.1-.065,1.243,2,3.512,4.138,5.975,4.225a4.117,4.117,0,0,0,2.982-1.026,5.294,5.294,0,0,0,1.3-3.458A24.505,24.505,0,0,0,198.952,273.031Z" transform="translate(-29.512 -124.585)" fill="#263238"/>
    <path id="Path_282504" data-name="Path 282504" d="M143.085,245.128l13.862,48.243s-86.254,4.927-91.03-10.74,36.887-66.989,54.175-81.035c20.032-16.326,21.1-9.476,14.586,6.861-6.829,17.1-18.584,41.522-18.584,41.522Z" transform="translate(-39.512 -129.766)" fill="#4488c8"/>
    <path id="Path_282505" data-name="Path 282505" d="M87.118,253.482a97.8,97.8,0,0,1,13.311-5.121,96.16,96.16,0,0,1,13.754-3.036c2.647-.421,5.316-.7,7.974-1a.065.065,0,0,1,0,.13,121.5,121.5,0,0,0-13.862,2.906c-4.549,1.189-9.054,2.453-13.56,3.8-2.539.767-5.046,1.653-7.563,2.5a.1.1,0,1,1-.054-.173Z" transform="translate(-37.784 -125.576)" fill="#263238"/>
    <path id="Path_282506" data-name="Path 282506" d="M139.138,242.506c-.443,0-24.429,3.782-25.229,4.009.151-.324,6.234-11.745,7.142-13.409.086-.173.162-.335.259-.508.54-.724,1.08-1.437,1.61-2.161l1.966-2.863-2.1,2.755c-.324.432-.627.875-.929,1.307q.908-1.761,1.783-3.566c.951-1.912,1.837-3.836,2.712-5.781h-.1c-1.794,3.328-3.684,6.6-5.489,9.919s-8.644,15.526-8.59,15.526,26.515-4.7,27.012-4.819a.207.207,0,0,0-.054-.411Z" transform="translate(-35.758 -127.349)" fill="#263238"/>
    <path id="Path_282507" data-name="Path 282507" d="M134.664,270.16c-1.513-5.4-2.993-10.8-4.7-16.1-.972-3.025-1.934-6.051-2.939-9.065,0-.119-.238-.076-.205,0,1.307,5.467,2.626,10.934,4.181,16.337s3.047,10.8,4.668,16.11c.918,3.036,1.934,6.04,3.036,9.033a.054.054,0,1,0,.108,0C137.69,280.975,136.188,275.573,134.664,270.16Z" transform="translate(-34.581 -125.528)" fill="#263238"/>
    <path id="Path_282508" data-name="Path 282508" d="M157.35,287.115c-.605-1.513-1.329-3.674-2-5.165-.173-.389-.465-.367-.335,0,.421,1.351.713,2.842,1.08,4.225-1.21,0-2.409.054-3.62.108l-4.181.184q-4.106.162-8.2.238-8.32.151-16.607,0a319.171,319.171,0,0,1-33.127-2.345c-3.079-.389-6.159-.843-9.206-1.394A89.1,89.1,0,0,1,72.166,281c-.076,0-.119.119,0,.14a50.573,50.573,0,0,0,7.7,2.323c2.744.594,5.521,1.08,8.3,1.545,5.543.854,11.118,1.4,16.7,1.815q16.628,1.2,33.311,1c3.112,0,6.223-.108,9.335-.205,1.567-.054,3.144-.108,4.711-.194S157.479,287.375,157.35,287.115Z" transform="translate(-38.984 -122.625)" fill="#263238"/>
    <rect id="Rectangle_29568" data-name="Rectangle 29568" width="110.359" height="4.452" transform="translate(124.373 170.833)" fill="#455a64"/>
    <rect id="Rectangle_29569" data-name="Rectangle 29569" width="61.068" height="4.452" transform="translate(124.373 170.833)" fill="#a6a6a6"/>
    <path id="Path_282509" data-name="Path 282509" d="M211.36,301.543h96.724l13.668-65.693H225.028Z" transform="translate(-27.777 -126.258)" fill="#a6a6a6"/>
    <path id="Path_282510" data-name="Path 282510" d="M215.42,301.543h96.724l13.668-65.693H229.088Z" transform="translate(-27.451 -126.258)" fill="#c7c7c7"/>
    <path id="Path_282511" data-name="Path 282511" d="M260.544,268.093a5.694,5.694,0,0,0,5.77,6.483,7.326,7.326,0,0,0,7.12-6.483,5.694,5.694,0,0,0-5.77-6.483,7.336,7.336,0,0,0-7.12,6.483Z" transform="translate(-23.824 -124.185)" fill="#ebebeb"/>
    <path id="Path_282512" data-name="Path 282512" d="M145.827,216.549s-16.131-16-26.677-15.764l-9,7.866s-2.95.94-3.836-.929c-2.161-4.624-2.572-15.753,7.066-22.9,8.817-6.548,23.165-5.932,35.115-2.68,11.475,3.123,21.382,10.8,17.8,18.3S145.827,216.549,145.827,216.549Z" transform="translate(-36.333 -130.771)" fill="#4488c8"/>
    <path id="Path_282513" data-name="Path 282513" d="M145.974,212.8s13.268-9.3,14.673-14.889-9.724-11-16.931-13.149c-11.14-3.328-18.757-2.669-25.067,3.241S145.974,212.8,145.974,212.8Z" transform="translate(-35.301 -130.53)" opacity="0.1"/>
    <path id="Path_282514" data-name="Path 282514" d="M146.049,212.384S133.213,190.17,116.93,187.89l1.264,12.242s9.724.108,26.677,15.764Z" transform="translate(-35.376 -130.117)" fill="#4488c8"/>
    <path id="Path_282515" data-name="Path 282515" d="M114,199.418a20.68,20.68,0,0,1,8.73,1.253,38.529,38.529,0,0,1,7.974,3.792,67.19,67.19,0,0,1,7.239,5.1l3.382,2.885,3.241,3.036.367.346.411-.216a74.427,74.427,0,0,0,8.817-5.219,42.138,42.138,0,0,0,4.073-3.1,26.568,26.568,0,0,0,3.576-3.652,45.377,45.377,0,0,1-8.136,6c-1.437.875-2.917,1.7-4.408,2.474s-2.993,1.567-4.506,2.269l.767.14-3.241-3.144c-1.08-1-2.28-1.977-3.425-2.95s-2.409-1.837-3.652-2.7a43.329,43.329,0,0,0-12.242-5.856c-.724-.216-1.48-.346-2.161-.508a18.692,18.692,0,0,0-6.807.054Z" transform="translate(-35.612 -129.22)" fill="#263238"/>
    <path id="Path_282516" data-name="Path 282516" d="M109.77,207.086a48.263,48.263,0,0,0,9-7.866A49.334,49.334,0,0,0,109.77,207.086Z" transform="translate(-35.952 -129.205)" fill="#263238"/>
    <path id="Path_282517" data-name="Path 282517" d="M137.9,206.875a90.315,90.315,0,0,0-1.545,15.407c-.086,3.609,1.307,16.553,5.316,16.077s-2.517-8.817-3.663-15.634.681-11.831.918-15.915Z" transform="translate(-33.814 -128.595)" fill="#4488c8"/>
    <g id="Group_241741" data-name="Group 241741" transform="translate(102.533 78.215)" opacity="0.1">
      <path id="Path_282518" data-name="Path 282518" d="M137.9,206.875a90.315,90.315,0,0,0-1.545,15.407c-.086,3.609,1.307,16.553,5.316,16.077s-2.517-8.817-3.663-15.634.681-11.831.918-15.915Z" transform="translate(-136.347 -206.81)"/>
    </g>
    <path id="Path_282519" data-name="Path 282519" d="M151.111,207.53a129.483,129.483,0,0,1,2.982,15.008c.432,3.241.519,15.04-3.144,15.029s1.361-8.2,1.7-14.468-1.826-11.885-2.463-15.516Z" transform="translate(-32.746 -128.537)" fill="#4488c8"/>
    <g id="Group_241742" data-name="Group 241742" transform="translate(116.873 78.993)" opacity="0.1">
      <path id="Path_282520" data-name="Path 282520" d="M151.111,207.53a129.483,129.483,0,0,1,2.982,15.008c.432,3.241.519,15.04-3.144,15.029s1.361-8.2,1.7-14.468-1.826-11.885-2.463-15.516Z" transform="translate(-149.618 -207.53)"/>
    </g>
    <path id="Path_282521" data-name="Path 282521" d="M146.222,211.047c-4.181-.281-11.982-9.011-14.64-15.948-.173-.475,1.08-5.046,2.474-10.675.789-3.425,1.6-7.25,2.074-10.8l21.5,8.428a56.865,56.865,0,0,0-4,13.311,7.623,7.623,0,0,0,0,1.48v.248C153.644,199.962,152.78,211.469,146.222,211.047Z" transform="translate(-34.199 -131.265)" fill="#eb9481"/>
    <path id="Path_282522" data-name="Path 282522" d="M153.125,196.806a1.6,1.6,0,0,1,0,.249,15.053,15.053,0,0,1-2.312-.194c-12.6-2.01-13.592-17.828-13.592-22.69l19.956,7.812a57.708,57.708,0,0,0-3.987,13.355A9.656,9.656,0,0,0,153.125,196.806Z" transform="translate(-33.743 -131.221)" fill="#263238"/>
    <path id="Path_282523" data-name="Path 282523" d="M140.2,148.6c-4.506,7-6.721,30.253-2.68,36.736,5.867,9.389,18.595,13.733,27.357,5.964,8.492-7.563,10.8-37.892,6.04-44.094C163.827,138.021,146.853,138.237,140.2,148.6Z" transform="translate(-33.89 -133.926)" fill="#eb9481"/>
    <path id="Path_282524" data-name="Path 282524" d="M153.364,163.907a18.516,18.516,0,0,0,2.042-.432,3.436,3.436,0,0,0,2-.843,1.081,1.081,0,0,0,0-1.318,2.69,2.69,0,0,0-2.626-.605,3.857,3.857,0,0,0-2.463,1.4,1.134,1.134,0,0,0,1.048,1.794Z" transform="translate(-32.546 -132.314)" fill="#263238"/>
    <path id="Path_282525" data-name="Path 282525" d="M168.149,165.935a20.062,20.062,0,0,1-1.934-.778,3.36,3.36,0,0,1-1.826-1.167,1.08,1.08,0,0,1,.227-1.3,2.68,2.68,0,0,1,2.69-.162,3.944,3.944,0,0,1,2.161,1.794,1.145,1.145,0,0,1-1.318,1.61Z" transform="translate(-31.567 -132.181)" fill="#263238"/>
    <path id="Path_282526" data-name="Path 282526" d="M152.178,180.593c.324.411.637.962,1.2,1.08a4.117,4.117,0,0,0,1.729-.173s.086,0,0,.086a2.161,2.161,0,0,1-2.085.594,1.686,1.686,0,0,1-1.08-1.534C152,180.55,152.124,180.528,152.178,180.593Z" transform="translate(-32.559 -130.707)" fill="#263238"/>
    <path id="Path_282527" data-name="Path 282527" d="M154.232,177.656a5.4,5.4,0,0,0,3.241,2.809,6.634,6.634,0,0,0,1.9.335h.724a.411.411,0,0,0,.357-.313h0a.822.822,0,0,0,0-.162h0v-.14c.184-1.2.3-3.036.3-3.036.411.27,2.517,1.567,2.561.929.357-5.229.746-11.053,0-16.348,0-.173-.281-.162-.292,0-.529,5.013-.184,10.092-.637,15.127a9.086,9.086,0,0,0-2.42-1.08c-.173,0-.162,3.566-.281,4.095h0c-2.053,0-3.5-.8-5.283-2.409C154.286,177.429,154.156,177.515,154.232,177.656Z" transform="translate(-32.376 -132.232)" fill="#263238"/>
    <path id="Path_282528" data-name="Path 282528" d="M158.819,178.905a6.385,6.385,0,0,1-2.777,1.642,2.928,2.928,0,0,1-1.74-.119c-1.2-.486-1.08-1.632-.735-2.582a7.25,7.25,0,0,1,.746-1.426A8.266,8.266,0,0,0,158.819,178.905Z" transform="translate(-32.447 -131.04)" fill="#263238"/>
    <path id="Path_282529" data-name="Path 282529" d="M156.042,180.441a2.928,2.928,0,0,1-1.74-.119c-1.2-.486-1.08-1.632-.735-2.582a2.95,2.95,0,0,1,2.474,2.7Z" transform="translate(-32.447 -130.934)" fill="#ff9abb"/>
    <path id="Path_282530" data-name="Path 282530" d="M156.281,167.6s-.13.054-.14.119c-.195,1.556-.681,3.241-2.161,3.587v.086C155.72,171.425,156.346,169.113,156.281,167.6Z" transform="translate(-32.395 -131.75)" fill="#263238"/>
    <path id="Path_282531" data-name="Path 282531" d="M155.252,165.914c-2.453-.583-3.436,4.322-1.167,4.905S157.337,166.4,155.252,165.914Z" transform="translate(-32.489 -131.89)" fill="#263238"/>
    <path id="Path_282532" data-name="Path 282532" d="M164.5,168.7s.108.1.1.162c-.367,1.513-.529,3.317.746,4.117v.086C163.671,172.471,163.919,170.1,164.5,168.7Z" transform="translate(-31.584 -131.661)" fill="#263238"/>
    <path id="Path_282533" data-name="Path 282533" d="M166.2,167.481c2.5.324,1.664,5.305-.648,5S164.1,167.211,166.2,167.481Z" transform="translate(-31.574 -131.76)" fill="#263238"/>
    <path id="Path_282534" data-name="Path 282534" d="M142.594,164.036c3.241-4,3.349-12.566,6.364-13.787,6.483-2.636,13.527,9.5,20.432,12.047,6.688,2.474,10.491-1.016,11.248-6.893s-2.528-11.215-9.649-15.062c-7.358-3.987-15.591-3.425-20.345-2.355,0,0,2.68-2.1,2.355-3.177s-4.56.357-5.964,1.08a10.675,10.675,0,0,0-2.809,2.636,11.355,11.355,0,0,0-2.95-1.426,6.775,6.775,0,0,0-4.614.335c-.27.357,2.053,1.556,3.738,2.258,0,0-4.732,3.079-5.975,6.731s-1.848,22.906-.562,23.587C135.516,170.9,141.3,165.656,142.594,164.036Z" transform="translate(-34.071 -134.42)" fill="#455a64"/>
    <path id="Path_282535" data-name="Path 282535" d="M141.292,139.14c.065,0,.119.1,0,.13a12.177,12.177,0,0,0-5.478,3.8,15.127,15.127,0,0,0-2.788,7.444c-.659,5.143.1,10.308.529,15.429a.135.135,0,0,1-.27,0c-.8-5.4-1.5-11.2-.573-16.628C133.545,144.726,136.365,140.069,141.292,139.14Z" transform="translate(-34.142 -134.04)" fill="#455a64"/>
    <path id="Path_282536" data-name="Path 282536" d="M148.139,147.36a17.158,17.158,0,0,1,5.932,2.6,24.622,24.622,0,0,1,4.322,4.462c3.058,3.457,6.656,6.569,11.15,7.9v.086c-4.214-.951-7.7-3.576-10.632-6.645a54.515,54.515,0,0,0-4.322-4.819,22.615,22.615,0,0,0-6.483-3.241.194.194,0,0,1,.032-.346Z" transform="translate(-32.875 -133.379)" fill="#455a64"/>
    <path id="Path_282537" data-name="Path 282537" d="M153.81,137.366a34.24,34.24,0,0,1,9.627.27,26.785,26.785,0,0,1,8.784,2.852c4.668,2.6,8.093,7.423,7.4,12.966a11.5,11.5,0,0,1-3.825,7.38.145.145,0,1,1-.195-.216,11.885,11.885,0,0,0,2.226-14.046c-2.788-5.013-8.406-7.358-13.787-8.384a49.174,49.174,0,0,0-10.232-.713Z" transform="translate(-32.408 -134.2)" fill="#455a64"/>
    <path id="Path_282538" data-name="Path 282538" d="M151.394,175.778a7.239,7.239,0,1,1,9.184-6.818h0a7.239,7.239,0,0,1-7.4,7.077A6.969,6.969,0,0,1,151.394,175.778Zm3.62-13.03a6,6,0,0,0-1.545-.227,6.278,6.278,0,1,0,1.545.227Z" transform="translate(-33.029 -132.235)" fill="#37474f"/>
    <path id="Path_282539" data-name="Path 282539" d="M166.508,178.063c-2.669-.746-4.322-4.16-3.749-7.887a8.644,8.644,0,0,1,2.291-4.776,4.516,4.516,0,0,1,7.628,1.189,8.644,8.644,0,0,1,.735,5.24c-.616,3.955-3.5,6.785-6.483,6.332a3.242,3.242,0,0,1-.421-.1Zm2.906-13.182-.367-.086a3.89,3.89,0,0,0-3.317,1.286,7.8,7.8,0,0,0-2.02,4.235c-.529,3.425.994,6.483,3.414,6.883s4.8-2.1,5.338-5.521a7.736,7.736,0,0,0-.637-4.646,4.009,4.009,0,0,0-2.409-2.139Z" transform="translate(-31.698 -132.056)" fill="#37474f"/>
    <path id="Path_282540" data-name="Path 282540" d="M159.2,169.262l-.5-.832c1.221-.746,3.922-1.578,5.4.562l-.8.551C161.974,167.619,159.305,169.2,159.2,169.262Z" transform="translate(-32.015 -131.748)" fill="#37474f"/>
    <path id="Path_282541" data-name="Path 282541" d="M129.428,166.559l-.778-.573c.259-.367,2.669-3.566,4.851-3.576s14.694,3.241,15.235,3.328l-.238.94c-3.63-.918-13.409-3.306-14.986-3.3S130.109,165.673,129.428,166.559Z" transform="translate(-34.433 -132.168)" fill="#37474f"/>
    <path id="Path_282542" data-name="Path 282542" d="M140.177,166.449s-3.144-8.5-6.872-7.563-2.68,12.35.778,14.781a4.019,4.019,0,0,0,5.759-.735Z" transform="translate(-34.247 -132.457)" fill="#eb9481"/>
    <path id="Path_282543" data-name="Path 282543" d="M133.48,161.9v.1c2.4,1.794,3.155,4.646,3.468,7.488a2.161,2.161,0,0,0-3.058-1.426c-.086,0,0,.162,0,.162a2.474,2.474,0,0,1,2.42,1.523,11.464,11.464,0,0,1,.7,2.463c.065.281.529.259.508,0v-.065C138.472,168.7,137.067,163.207,133.48,161.9Z" transform="translate(-34.044 -132.209)" fill="#263238"/>
  </g>
</svg>
