<svg xmlns="http://www.w3.org/2000/svg" width="452" height="458.434" viewBox="0 0 452 458.434">
  <g id="Group_242826" data-name="Group 242826" transform="translate(24232 24477)">
    <g id="Enthusiastic-cuate" transform="translate(-24255.461 -24499.061)">
      <g id="freepik--background-complete--inject-72" transform="translate(23.46 22.061)">
        <rect id="Rectangle_24846" data-name="Rectangle 24846" width="136.036" height="208.584" transform="translate(53.435 22.446)" fill="#dbdbdb"/>
        <rect id="Rectangle_24847" data-name="Rectangle 24847" width="57.444" height="92.777" transform="translate(60.849 30.801)" fill="#fff"/>
        <rect id="Rectangle_24848" data-name="Rectangle 24848" width="57.444" height="92.777" transform="translate(124.613 30.801)" fill="#fff"/>
        <rect id="Rectangle_24849" data-name="Rectangle 24849" width="57.444" height="92.777" transform="translate(60.849 129.898)" fill="#fff"/>
        <rect id="Rectangle_24850" data-name="Rectangle 24850" width="57.444" height="92.777" transform="translate(124.613 129.898)" fill="#fff"/>
        <rect id="Rectangle_24851" data-name="Rectangle 24851" width="32.224" height="298.416" transform="translate(53.435 22.446)" fill="#ebebeb"/>
        <path id="Path_262471" data-name="Path 262471" d="M101.251,57.88l.245,32.265.092,32.265.174,64.531-.174,64.531-.082,32.265L101.251,316l-.245-32.265-.092-32.265-.174-64.531.174-64.531.092-32.265Z" transform="translate(-21.708 -21.249)" fill="#fff"/>
        <path id="Path_262472" data-name="Path 262472" d="M86.791,65.2l.245,28.809.143,28.809.112,57.617-.112,57.628-.143,28.809-.245,28.809-.256-28.809-.143-28.809-.113-57.628.113-57.617.143-28.809Z" transform="translate(-22.036 -21.083)" fill="#fff"/>
        <path id="Path_262473" data-name="Path 262473" d="M94.021,71.85l.245,33.738.092,33.728.174,67.476-.174,67.466L94.267,308l-.245,33.728L93.766,308l-.082-33.738-.174-67.466.174-67.476.092-33.728Z" transform="translate(-21.872 -20.933)" fill="#fff"/>
        <path id="Path_262474" data-name="Path 262474" d="M81.4,59.55l.256,35.3.092,35.3.164,70.616-.164,70.616L81.657,306.7,81.4,342l-.245-35.3-.092-35.313L80.9,200.771l.164-70.616.092-35.3Z" transform="translate(-22.158 -21.211)" fill="#fff"/>
        <rect id="Rectangle_24852" data-name="Rectangle 24852" width="32.224" height="298.416" transform="translate(189.471 320.862) rotate(180)" fill="#ebebeb"/>
        <path id="Path_262475" data-name="Path 262475" d="M183.2,57.88l.256,32.265.092,32.265.164,64.531-.164,64.531-.092,32.265L183.2,316l-.245-32.265-.092-32.265-.174-64.531.174-64.531.092-32.265Z" transform="translate(-19.85 -21.249)" fill="#fff"/>
        <path id="Path_262476" data-name="Path 262476" d="M197.671,65.2l.245,28.809.143,28.809.123,57.617-.112,57.628-.143,28.809-.256,28.809-.245-28.809-.143-28.809-.123-57.628.123-57.617.143-28.809Z" transform="translate(-19.522 -21.083)" fill="#fff"/>
        <path id="Path_262477" data-name="Path 262477" d="M190.441,71.85l.245,33.738.092,33.728.174,67.476-.174,67.466L190.687,308l-.245,33.728L190.186,308l-.092-33.738-.164-67.466.174-67.476.092-33.728Z" transform="translate(-19.686 -20.933)" fill="#fff"/>
        <path id="Path_262478" data-name="Path 262478" d="M203.051,59.55l.245,35.3.092,35.3.174,70.616-.174,70.616-.082,35.313-.256,35.3-.245-35.3-.092-35.313-.174-70.616.174-70.616.092-35.3Z" transform="translate(-19.4 -21.211)" fill="#fff"/>
        <circle id="Ellipse_5591" data-name="Ellipse 5591" cx="54.222" cy="54.222" r="54.222" transform="translate(226.062 76.682) rotate(-45)" fill="#ebebeb"/>
        <path id="Path_262479" data-name="Path 262479" d="M337.207,149.9a54.2,54.2,0,1,1-.655-103.484,47.043,47.043,0,1,0,22.734,13.775A54.2,54.2,0,0,1,337.166,149.9Z" transform="translate(-17.949 -21.563)" fill="#dbdbdb" opacity="0.5"/>
        <path id="Path_262480" data-name="Path 262480" d="M299.621,92.608a7.639,7.639,0,1,1-9.593-4.94A7.639,7.639,0,0,1,299.621,92.608Z" transform="translate(-17.537 -20.582)" fill="#c7c7c7"/>
        <path id="Path_262481" data-name="Path 262481" d="M347.851,77.188a7.639,7.639,0,1,1-9.593-4.95,7.639,7.639,0,0,1,9.593,4.95Z" transform="translate(-16.443 -20.932)" fill="#c7c7c7"/>
        <path id="Path_262482" data-name="Path 262482" d="M326.806,81.47a11.5,11.5,0,1,1-21.917,7.006Z" transform="translate(-17.079 -20.714)" fill="#c7c7c7"/>
        <path id="Path_262483" data-name="Path 262483" d="M326.479,88.964A11.5,11.5,0,0,1,309.4,94.425,13.775,13.775,0,0,1,326.479,88.964Z" transform="translate(-16.977 -20.569)" fill="#dbdbdb"/>
        <circle id="Ellipse_5592" data-name="Ellipse 5592" cx="39.056" cy="39.056" r="39.056" transform="translate(342.804 212.719) rotate(-76.32)" fill="#ebebeb"/>
        <path id="Path_262484" data-name="Path 262484" d="M395.746,240.613a39.056,39.056,0,1,1,39.608-63.15,33.881,33.881,0,1,0,8.5,17.16,39.076,39.076,0,0,1-48.066,46.02Z" transform="translate(-15.68 -18.848)" fill="#dbdbdb" opacity="0.5"/>
        <path id="Path_262485" data-name="Path 262485" d="M429.79,200.8a5.492,5.492,0,1,1-.572-4.169A5.492,5.492,0,0,1,429.79,200.8Z" transform="translate(-14.492 -18.165)" fill="#c7c7c7"/>
        <path id="Path_262486" data-name="Path 262486" d="M394.51,191.553a5.5,5.5,0,1,1-3.917-6.709,5.5,5.5,0,0,1,3.917,6.709Z" transform="translate(-15.293 -18.375)" fill="#c7c7c7"/>
        <path id="Path_262487" data-name="Path 262487" d="M397.909,189.94a12.272,12.272,0,0,0,1.943,6.688,9.47,9.47,0,0,0,5.471,3.61,9.2,9.2,0,0,0,6.535-.358,13.6,13.6,0,0,0,5.226-4.663,10.574,10.574,0,0,1-4.551,5.932,9.2,9.2,0,0,1-3.763,1.248,11.249,11.249,0,0,1-3.937-.389,12.036,12.036,0,0,1-3.559-1.667,9.049,9.049,0,0,1-2.639-2.966,9.92,9.92,0,0,1-.726-7.435Z" transform="translate(-14.98 -18.255)" fill="#c7c7c7"/>
        <rect id="Rectangle_24853" data-name="Rectangle 24853" width="90.241" height="124.879" transform="translate(326.049 258.735)" fill="#ebebeb"/>
        <rect id="Rectangle_24854" data-name="Rectangle 24854" width="98.984" height="4.633" transform="translate(321.671 254.102)" fill="#dbdbdb"/>
        <rect id="Rectangle_24855" data-name="Rectangle 24855" width="31.13" height="4.633" transform="translate(420.656 254.102)" fill="#ebebeb"/>
        <rect id="Rectangle_24856" data-name="Rectangle 24856" width="30.578" height="124.879" transform="translate(416.289 258.735)" fill="#dbdbdb"/>
        <path id="Path_262488" data-name="Path 262488" d="M422.57,332.478H351.76V292.43h70.81Zm-70.564-.256h70.329V292.686H352.005Z" transform="translate(-16.017 -15.931)" fill="#c7c7c7"/>
        <rect id="Rectangle_24857" data-name="Rectangle 24857" width="13.786" height="7.926" transform="translate(361.28 288.208)" fill="#c7c7c7"/>
        <path id="Path_262489" data-name="Path 262489" d="M394.631,311.325H380.59V304.34h14.041Zm-13.786-.256h13.53V304.6h-13.53Z" transform="translate(-15.363 -15.661)" fill="#c7c7c7"/>
        <path id="Path_262490" data-name="Path 262490" d="M422.57,381.638H351.76V341.59h70.81Zm-70.564-.256h70.329V341.846H352.005Z" transform="translate(-16.017 -14.817)" fill="#c7c7c7"/>
        <rect id="Rectangle_24858" data-name="Rectangle 24858" width="13.786" height="7.926" transform="translate(361.28 338.483)" fill="#c7c7c7"/>
        <path id="Path_262491" data-name="Path 262491" d="M394.631,360.485H380.59V353.5h14.041Zm-13.786-.256h13.53v-6.474h-13.53Z" transform="translate(-15.363 -14.547)" fill="#c7c7c7"/>
        <path id="Path_262492" data-name="Path 262492" d="M65.822,239.825l-13.428.276-6.811.123c-2.27,0-4.561,0-6.842.051h-.46v-.45l-.051-11.444v-.522h.511l13.54.061c4.51,0,9.02.112,13.54.164H66.1v.276c0,1.933-.092,3.866-.133,5.778Zm0,0-.143-5.788c0-1.9-.123-3.784-.143-5.655l.286.276c-4.52.051-9.03.164-13.54.164l-13.54.072.511-.511-.061,11.444-.45-.46H45.43l6.729.123Z" transform="translate(-23.125 -17.395)" fill="#ebebeb"/>
        <path id="Path_262493" data-name="Path 262493" d="M51.052,253.935l-13.428.276-6.811.123c-2.281,0-4.561,0-6.842.051h-.46v-.45l-.051-11.444V242H37.512c4.51,0,9.02.113,13.54.164h.276v.276c0,1.933-.092,3.866-.133,5.778Zm0,0-.153-5.8c0-1.9-.112-3.784-.133-5.655l.286.276c-4.52.051-9.03.164-13.54.164l-13.5.1.5-.5-.051,11.444-.45-.46c2.229,0,4.449,0,6.688.051l6.729.123Z" transform="translate(-23.46 -17.075)" fill="#ebebeb"/>
        <path id="Path_262494" data-name="Path 262494" d="M461.882,253.935l-13.418.276-6.811.123c-2.281,0-4.571,0-6.852.051h-.45v-.45l-.061-11.444V242h14.021c4.52,0,9.03.113,13.54.164h.286v.276c0,1.933-.092,3.866-.133,5.778Zm0,0-.143-5.788c0-1.9-.112-3.784-.133-5.655l.276.276c-4.51.051-9.02.164-13.54.164l-13.54.061.511-.5-.051,11.444-.46-.46c2.229,0,4.459,0,6.7.051l6.729.123Z" transform="translate(-14.145 -17.075)" fill="#ebebeb"/>
        <path id="Path_262495" data-name="Path 262495" d="M447.112,55.465l-13.417.286-6.811.112c-2.281,0-4.571,0-6.852.061h-.45v-.46l-.061-11.454V43.5h.511l13.54.061c4.51,0,9.03.123,13.54.174h.286v.276c0,1.943-.082,3.876-.133,5.778Zm0,0-.143-5.778c-.051-1.912-.112-3.794-.133-5.666l.276.276c-4.51,0-9.03.164-13.54.174l-13.561.061.511-.511V55.465l-.46-.46c2.229,0,4.459,0,6.7.061l6.729.112Z" transform="translate(-14.48 -21.575)" fill="#ebebeb"/>
        <path id="Path_262496" data-name="Path 262496" d="M461.882,69.575l-13.418.286-6.811.113c-2.281,0-4.571,0-6.852.061h-.45v-.46l-.061-11.444V57.62h.511l13.54.061c4.52,0,9.03.123,13.54.174h.286v.276c0,1.943-.092,3.876-.133,5.778Zm0,0-.143-5.778c0-1.912-.112-3.794-.133-5.666l.276.276c-4.51,0-9.02.164-13.54.174l-13.54.061.511-.511-.051,11.444-.46-.46c2.229,0,4.459,0,6.7.061l6.729.112Z" transform="translate(-14.145 -21.255)" fill="#ebebeb"/>
        <path id="Path_262497" data-name="Path 262497" d="M65.822,55.465l-13.428.286-6.811.112c-2.27,0-4.561,0-6.842.061h-.46v-.46L38.23,44.011V43.5h.511l13.571.072c4.51,0,9.02.123,13.54.174h.276v.266c0,1.943-.092,3.876-.133,5.778Zm0,0-.143-5.778c0-1.912-.123-3.794-.143-5.666l.286.276c-4.52,0-9.03.164-13.54.174l-13.54.061.511-.511-.061,11.444-.45-.46c2.229,0,4.449,0,6.688.061l6.729.113Z" transform="translate(-23.125 -21.575)" fill="#ebebeb"/>
      </g>
      <g id="freepik--Shadow--inject-72" transform="translate(166.068 455.077)" opacity="0.18">
        <ellipse id="Ellipse_5593" data-name="Ellipse 5593" cx="68.008" cy="12.709" rx="68.008" ry="12.709" fill="#ebebeb"/>
      </g>
      <g id="freepik--Floor--inject-72" transform="translate(34.812 405.163)">
        <path id="Path_262498" data-name="Path 262498" d="M34.56,397.181l55.081-.245,55.081-.092,110.162-.174,110.162.174,55.081.092,55.081.245-55.081.256-55.081.082-110.162.174-110.162-.174-55.081-.082Z" transform="translate(-34.56 -396.67)" fill="#263238"/>
      </g>
      <g id="freepik--Plant--inject-72" transform="translate(49.498 237.105)">
        <path id="Path_262499" data-name="Path 262499" d="M99.6,319.237a66.393,66.393,0,0,0-2.117,11.955c.112.2.092.941,0,.736,0,.655-1.023.542-1.023-.113v-1.248c-2.332-2.9-5.727-4.745-8.478-7.271a15.883,15.883,0,0,1-4.643-7.384c-2.27-7.844-.143-16.158-2.874-23.982-2.362-6.739-6.6-12.61-10.176-18.715-3.784-6.463-6.566-13.295-6.852-20.822-.215-5.8.47-13.52,4.888-17.866,4.674-4.6,10.472-1.145,14.062,2.955,10.4,11.894,15.207,27,17.15,42.4,1.023,8.529,2.178,17.109,1.923,25.71A68.774,68.774,0,0,1,99.6,319.237Z" transform="translate(-48.593 -232.338)" fill="#63bd92"/>
        <path id="Path_262500" data-name="Path 262500" d="M97.292,333.868a147.665,147.665,0,0,0-.286-24.155s0,0,0-.082c.133-6.535.644-13.039.389-19.574a116.156,116.156,0,0,0-2.874-20.985c0-.082-.143-.061-.123,0a137.04,137.04,0,0,1,2.27,20.525q.2,5.543-.092,11.065c-.061,1.2-.174,2.4-.245,3.62h0A129.122,129.122,0,0,0,76.9,252.872c-.133-.215-.511,0-.378.235A134.38,134.38,0,0,1,92.4,291.232c-5-9.255-12.538-16.864-18.142-25.761,0-.051-.1,0-.082.051,5.032,9.9,13.295,17.713,18.633,27.459.92,3.978,1.667,8,2.229,12.027a136.453,136.453,0,0,1,1.207,16.71,184.459,184.459,0,0,1-8.693-17.14c-.061-.164-.3-.051-.245.1,2.117,6.248,4.97,12.978,8.948,18.306,0,3.958-.092,7.915-.327,11.863-.614,10.544-2.424,20.955-3.252,31.457a.245.245,0,0,0,.481.061A243.066,243.066,0,0,0,97.292,333.868Z" transform="translate(-48.348 -231.874)" fill="#263238"/>
        <path id="Path_262501" data-name="Path 262501" d="M85.833,252.551c0-.072-.143,0-.113,0,1.923,5.328,3.007,10.728,4.4,16.189a.2.2,0,0,0,.4-.072C89.954,263.238,87.98,257.654,85.833,252.551Z" transform="translate(-48.087 -231.88)" fill="#263238"/>
        <path id="Path_262502" data-name="Path 262502" d="M134.493,274.513a79.513,79.513,0,0,1-4.428,9.1c-3.467,6.3-7.087,12.067-7.742,19.431-.286,3.273-.389,6.566-1.391,9.715a28.881,28.881,0,0,1-3.876,7.609c-3.753,5.482-8.457,10.227-11.935,15.882a66.7,66.7,0,0,0-7.936,19.124c-.092.368-.665.276-.583-.092a.245.245,0,0,0,0-.082.153.153,0,0,1,0-.082c-.552-15.729.706-31.57,5.5-46.634a161.026,161.026,0,0,1,7.619-19.431c2.567-5.461,5.768-10.718,10.227-14.8,2.925-2.638,9.276-7.629,13.438-4.991C135.434,270.545,135.28,272.549,134.493,274.513Z" transform="translate(-47.843 -231.518)" fill="#63bd92"/>
        <path id="Path_262503" data-name="Path 262503" d="M118.781,309.866A128.729,128.729,0,0,1,109.638,323c-1.514,1.994-3.068,3.958-4.582,5.952-.716.941-1.524,1.872-2.178,2.884.409-1.657.818-3.3,1.237-4.96,2.045-7.946,3.978-15.964,7.005-23.6a160.81,160.81,0,0,1,10.912-21.4c.112-.174-.184-.307-.3-.133-3.313,5.461-6.688,10.922-9.48,16.68a88.049,88.049,0,0,0-4.029,9.9,153.241,153.241,0,0,1,5.359-21.19c0-.061-.072-.1-.092,0a72.445,72.445,0,0,0-5.563,22h0c-.685,2.045-1.309,4.091-1.892,6.136-2.475,8.8-4.653,17.682-6.668,26.59a94.681,94.681,0,0,1,1.514-17.488c0-.133-.174-.164-.2,0a55.47,55.47,0,0,0-1.524,18.408q-1.135,5.113-2.229,10.227c-1.544,7.251-3.436,14.624-4.346,21.987a.153.153,0,0,0,.3.051c1.074-3.968,1.728-8.089,2.608-12.1s1.8-8.059,2.731-12.068c1.37-5.86,2.8-11.689,4.254-17.518,1.023-2.137,2.864-4.04,4.275-5.829,1.544-1.964,3.068-3.937,4.6-5.932a88.673,88.673,0,0,0,7.568-11.71C118.965,309.835,118.832,309.784,118.781,309.866Z" transform="translate(-47.931 -231.22)" fill="#263238"/>
        <path id="Path_262504" data-name="Path 262504" d="M119.058,302.661a81.458,81.458,0,0,0-8.948,14.215c0,.061.072.123.113.061,3.007-4.715,5.962-9.47,8.969-14.185C119.2,302.671,119.11,302.589,119.058,302.661Z" transform="translate(-47.534 -230.744)" fill="#263238"/>
        <path id="Path_262505" data-name="Path 262505" d="M53.5,289.393c2.045,3.508,4.367,7.721,3.487,11.935-.552,2.669-2.506,4.837-2.853,7.558-.8,6,5.2,9.971,9.521,12.814,10.8,7.087,25.567,13.4,27.612,27.868.072.511.961.378.9-.123a.3.3,0,0,0,0-.092v-.082a55.45,55.45,0,0,0-.215-22.141c-1.606-7.455-4.868-14.154-8.7-20.709-6.5-11.086-13.387-22.437-23.2-30.926-2.72-2.352-8.294-6.576-10.462-1.278S51.047,285.067,53.5,289.393Z" transform="translate(-48.921 -231.446)" fill="#63bd92"/>
        <path id="Path_262506" data-name="Path 262506" d="M63.065,312.279c7.159,7.752,18.541,12.1,24.708,20.781a86.928,86.928,0,0,0-18.991-35.671.276.276,0,0,1,.358-.389,70.185,70.185,0,0,1,15.514,22.5,100.653,100.653,0,0,0-6.678-17.089.184.184,0,0,1,.317-.184,65.348,65.348,0,0,1,7.159,19.206c8.12,19.656,8.877,42.707,7.159,63.406a.235.235,0,1,1-.47,0c.47-16.363.2-32.94-3.7-48.884-.082-.327-.174-.655-.256-1.023-6.709-9.347-18.04-13.673-25.332-22.55C62.87,312.341,63,312.2,63.065,312.279Z" transform="translate(-48.605 -230.872)" fill="#263238"/>
        <path id="Path_262507" data-name="Path 262507" d="M61.445,305.431c3.763,3.446,7.455,6.975,11.249,10.421v.072A54.959,54.959,0,0,1,61.3,305.7C61.1,305.5,61.292,305.288,61.445,305.431Z" transform="translate(-48.642 -230.682)" fill="#263238"/>
        <path id="Path_262508" data-name="Path 262508" d="M60.865,290.821a118.274,118.274,0,0,0,11.249,15.473c0,.061,0,.153-.1.092A54.744,54.744,0,0,1,60.66,290.944a.123.123,0,0,1,.2-.123Z" transform="translate(-48.655 -231.013)" fill="#263238"/>
        <path id="Path_262509" data-name="Path 262509" d="M77.41,398.152h32.91l-4.428-44.282H82.472Z" transform="translate(-48.275 -229.582)" fill="#455a64"/>
        <path id="Path_262510" data-name="Path 262510" d="M81.56,361.059h24.963l-.726-7.189H82.378Z" transform="translate(-48.181 -229.582)" fill="#263238"/>
        <rect id="Rectangle_24859" data-name="Rectangle 24859" width="30.854" height="7.067" transform="translate(61.022 126.445) rotate(180)" fill="#455a64"/>
      </g>
      <g id="freepik--Character--inject-72" transform="translate(131.498 54.342)">
        <path id="Path_262511" data-name="Path 262511" d="M234.55,351l29.105,38.442c5.6,7.322,10.38,13.837,12.538,17.437v.061a6.462,6.462,0,0,1,1.2,2.669v.082c-1.023,3.14-58.221,49.6-60.767,50.551s-5.441-6.208-4.663-9.787,14.726-31.161,14.726-31.161L198,380.576Z" transform="translate(-127.541 -46.884)" fill="#eb9481"/>
        <path id="Path_262512" data-name="Path 262512" d="M257.377,380.84l5.972,7.885c5.6,7.322,10.38,13.837,12.538,17.437v.061a12.99,12.99,0,0,1,1.2,2.669v.082c-1.023,3.14-58.221,49.6-60.767,50.551s-5.441-6.208-4.663-9.787,14.726-31.161,14.726-31.161l-6.187-7.916Z" transform="translate(-127.234 -46.208)" fill="#ebebeb"/>
        <path id="Path_262513" data-name="Path 262513" d="M216.336,459.357c2.546-.941,59.714-47.4,60.767-50.551.419-1.2-5.86-9.92-13.755-20.239l-.256-.327-37.215,29.566.522.614s-13.929,27.612-14.726,31.161S213.8,460.318,216.336,459.357Z" transform="translate(-127.234 -46.04)" fill="#9d9d9d"/>
        <path id="Path_262514" data-name="Path 262514" d="M215.1,456.142c9.45-8.069,48.3-39.71,58.292-46.971.082-.061.133,0,.051.061-9.2,8.181-48.3,39.536-58.17,47.043C215,456.459,214.908,456.316,215.1,456.142Z" transform="translate(-127.155 -45.566)" fill="#263238"/>
        <path id="Path_262515" data-name="Path 262515" d="M223.131,420.468c3.211-3.794,8.325-6.975,13.417-6.627.2,0,.174.286,0,.348a68.821,68.821,0,0,0-13.039,6.75.317.317,0,0,1-.378-.47Z" transform="translate(-126.972 -45.46)" fill="#263238"/>
        <path id="Path_262516" data-name="Path 262516" d="M221.762,424.258c3.221-3.794,8.335-6.975,13.428-6.627.194,0,.174.286,0,.348a68.754,68.754,0,0,0-13.039,6.739.307.307,0,0,1-.389-.46Z" transform="translate(-127.004 -45.374)" fill="#263238"/>
        <path id="Path_262517" data-name="Path 262517" d="M220.4,428.048c3.211-3.794,8.325-6.985,13.417-6.637.194,0,.174.3,0,.358a69.381,69.381,0,0,0-13.039,6.739.307.307,0,0,1-.378-.46Z" transform="translate(-127.034 -45.289)" fill="#263238"/>
        <path id="Path_262518" data-name="Path 262518" d="M262.242,387.708l-39.833,33.38S176.572,362.52,166.233,333c-7.353-21.036,26.59-126.31,26.59-126.31l43.433-2.935s-28.113,101.388-24.994,111.236C215.107,326.982,262.242,387.708,262.242,387.708Z" transform="translate(-128.285 -50.223)" fill="#4488c8"/>
        <path id="Path_262519" data-name="Path 262519" d="M216.811,407.552c6.187-5.113,4.336-3.753,10.595-8.815,3.068-2.485,23.164-18.766,26.426-20.586.072,0,.153.072.1.133-2.506,2.761-22.9,18.694-26,21.118-6.351,4.95-4.582,3.457-10.984,8.335a.117.117,0,1,1-.143-.184Z" transform="translate(-127.115 -46.269)" fill="#263238"/>
        <path id="Path_262520" data-name="Path 262520" d="M248.2,380.229q-11.137-13.867-21.64-28.287c-6.954-9.531-13.816-19.206-20.055-29.218a31.446,31.446,0,0,1-3.59-7.24,19.042,19.042,0,0,1-.307-8.948c.972-5.921,2.209-11.812,3.446-17.682q3.743-17.672,8.509-35.119c3.17-11.618,6.719-23.133,10.472-34.577.46-1.4.931-2.812,1.4-4.224.072-.2-.256-.286-.327-.082q-6.32,17.2-11.352,34.832t-8.969,35.333q-1.963,8.928-3.651,17.938a37.5,37.5,0,0,0-1.023,8.918,19.625,19.625,0,0,0,2.137,7.5,60.244,60.244,0,0,0,4.387,7.21q2.475,3.722,5.011,7.425,5.113,7.455,10.431,14.757c7.056,9.654,14.317,19.216,22.12,28.287.951,1.115,1.912,2.219,2.863,3.324C248.1,380.474,248.286,380.331,248.2,380.229Z" transform="translate(-127.47 -49.974)" fill="#263238"/>
        <path id="Path_262521" data-name="Path 262521" d="M235.633,203.75s-8.181,29.576-15.258,58.292c-7.905-16.363-21.384-44.548-25.915-55.552Z" transform="translate(-127.621 -50.223)" fill="#263238"/>
        <path id="Path_262522" data-name="Path 262522" d="M285.23,270.814,311.185,236.7c6.054-6.944,11.485-12.937,14.583-15.77a.072.072,0,0,1,.051,0c1.166-1.023,1.994-1.687,2.383-1.7h.072c3.293.4,60.246,47.135,61.677,49.436s-5,6.576-8.662,6.525-33.472-8.181-33.472-8.181l-27.612,34.127Z" transform="translate(-125.563 -49.872)" fill="#eb9481"/>
        <path id="Path_262523" data-name="Path 262523" d="M327.743,219.19h.072c3.293.409,60.246,47.145,61.677,49.446s-5,6.576-8.652,6.525-33.482-8.181-33.482-8.181l-4.97,6.842c-9.388-7.6-26.508-21.476-36.9-30.2,2.894-4.091,5.236-6.872,5.246-6.883C316.78,229.785,322.2,223.8,325.3,220.98l.061-.051C326.526,219.814,327.355,219.2,327.743,219.19Z" transform="translate(-125.104 -49.873)" fill="#ebebeb"/>
        <path id="Path_262524" data-name="Path 262524" d="M389.382,268.616c-1.432-2.3-58.384-49.037-61.677-49.436-1.248-.174-8.539,7.721-17.079,17.518l-.266.317,36.448,30.557.5-.634s29.8,8.181,33.472,8.181S390.834,270.907,389.382,268.616Z" transform="translate(-124.993 -49.873)" fill="#9d9d9d"/>
        <path id="Path_262525" data-name="Path 262525" d="M386.509,270.219c-9.787-7.639-48.567-39.393-57.669-47.687-.072-.072,0-.123.051-.061,9.869,7.363,48.393,39.424,57.75,47.6C386.836,270.229,386.714,270.383,386.509,270.219Z" transform="translate(-124.575 -49.799)" fill="#263238"/>
        <path id="Path_262526" data-name="Path 262526" d="M349.754,268.516c-4.357-2.393-8.509-6.77-9.2-11.832a.191.191,0,0,1,.348-.092,69.163,69.163,0,0,0,9.2,11.434.307.307,0,0,1-.348.491Z" transform="translate(-124.309 -49.027)" fill="#263238"/>
        <path id="Path_262527" data-name="Path 262527" d="M353.734,269.1c-4.357-2.393-8.5-6.77-9.2-11.832a.18.18,0,0,1,.337-.082,69.042,69.042,0,0,0,9.2,11.423.317.317,0,0,1-.338.491Z" transform="translate(-124.219 -49.013)" fill="#263238"/>
        <path id="Path_262528" data-name="Path 262528" d="M357.714,269.676c-4.346-2.393-8.5-6.77-9.2-11.822a.187.187,0,0,1,.348-.092,68.66,68.66,0,0,0,9.2,11.423.317.317,0,0,1-.348.491Z" transform="translate(-124.128 -49)" fill="#263238"/>
        <path id="Path_262529" data-name="Path 262529" d="M193,206.62v.051c.256.879,4.244,14.757,8.181,26.651,2.884,8.683,5.768,16.291,7.159,17.007,1.585.8,9.265,3.6,11.843,4.469,0,0,16.526,57.178,30.292,75.78,4.715,6.381,26.191,12.763,36.694,5.87,24.646-16.158,61.146-58.18,61.146-58.18L305.791,243.5l-30.107,39.884c-7.455-13.837-11.505-41.766-11.505-41.766S262.491,214,252.366,202.54Z" transform="translate(-127.654 -50.25)" fill="#4488c8"/>
        <path id="Path_262530" data-name="Path 262530" d="M335.671,282.205c-6.4-4.868-4.633-3.385-10.983-8.325-3.068-2.424-23.521-18.326-26.017-21.1a.082.082,0,0,1,.092-.123c3.262,1.81,23.389,18.071,26.457,20.545,6.249,5.062,4.4,3.682,10.595,8.815a.117.117,0,0,1-.143.184Z" transform="translate(-125.259 -49.114)" fill="#263238"/>
        <path id="Path_262531" data-name="Path 262531" d="M250.327,234.487c-1.37-.256-2.812-.266-4.193-.389-1.125-.1-2.24-.225-3.354-.389a14.409,14.409,0,0,1-5.993-2.045c-1.994-1.34-3.068-3.518-4.173-5.614-.634-1.237-1.278-2.475-1.933-3.7l-.972-1.779a21.82,21.82,0,0,1-1.186-2.137c0-.1-.215,0-.164.061a13.483,13.483,0,0,1,.583,1.554c.225.6.44,1.217.675,1.82.409,1.023.818,2.148,1.258,3.221a26.406,26.406,0,0,0,2.731,5.615c2.24,3.068,5.952,4.142,9.6,4.357,1.023.051,2.1.061,3.14.051a22.252,22.252,0,0,0,3.958-.245.189.189,0,1,0,.02-.378Z" transform="translate(-126.853 -49.891)" fill="#263238"/>
        <path id="Path_262532" data-name="Path 262532" d="M204.01,247.6a97.722,97.722,0,0,1,15.862,6.136.175.175,0,1,1-.123.327c-5.328-1.871-10.748-3.641-15.974-5.809a.348.348,0,1,1,.235-.655Z" transform="translate(-127.415 -49.229)" fill="#263238"/>
        <path id="Path_262533" data-name="Path 262533" d="M200.161,213.009c0-.184.317-.245.327-.051.378,6.136,1.135,11.536,2.045,17.242.43,2.659,3.569,17.253,8.12,15.862.767-.235,1.1-1.023,1.156-2.2a19.071,19.071,0,0,0-.92-4.479c-.726-3.068-1.35-6.136-1.82-9.2a84.563,84.563,0,0,1-1.023-17.457.153.153,0,0,1,.3,0A158.861,158.861,0,0,0,211.41,236.7c.839,3.794,3.16,9.439-.808,10.3s-7.343-8.611-8.018-11.249A88.69,88.69,0,0,1,200.161,213.009Z" transform="translate(-127.492 -50.022)" fill="#263238"/>
        <path id="Path_262534" data-name="Path 262534" d="M210.342,245.746a25.568,25.568,0,0,1,1.248,2.986,7.037,7.037,0,0,1,.6,2.475.184.184,0,0,1-.317.092,8.59,8.59,0,0,1-1.237-2.373c-.419-.92-.859-1.831-1.248-2.761a.522.522,0,0,1,.951-.419Z" transform="translate(-127.283 -49.277)" fill="#263238"/>
        <path id="Path_262535" data-name="Path 262535" d="M300.06,258.4q-9.8,14.092-20.791,27.387-2.976,3.559-6.054,7.036c-6.658-9.2-9.9-20.208-12.487-31.171-.665-2.812-1.289-5.635-1.933-8.458a91.69,91.69,0,0,1-1.933-9.1c-.4-3.18-.225-6.422-.511-9.623a73.979,73.979,0,0,0-1.462-9.2,90.935,90.935,0,0,0-7-19.881c0-.082-.184,0-.153.061a122.387,122.387,0,0,1,6.136,18.009,78.65,78.65,0,0,1,1.7,9.5c.368,3.221.327,6.443.542,9.674a58.146,58.146,0,0,0,1.718,9.071c.644,2.812,1.268,5.635,1.912,8.447a155.7,155.7,0,0,0,4.541,16.434,61.53,61.53,0,0,0,8.642,16.823.307.307,0,0,0,.491,0c7.506-8.621,14.675-17.549,21.312-26.9q2.843-3.988,5.574-8.059C300.4,258.386,300.162,258.253,300.06,258.4Z" transform="translate(-126.413 -50.187)" fill="#263238"/>
        <path id="Path_262536" data-name="Path 262536" d="M274.212,281.371a13.552,13.552,0,0,0-.7,1.237l-.215.164a2.544,2.544,0,0,0-.389.348,4.937,4.937,0,0,0-.593.859,4.612,4.612,0,0,0-.45,2.045,5.011,5.011,0,0,1,.675-1.882,5.218,5.218,0,0,1,.542-.8,1.6,1.6,0,0,0,.164-.2c0,.082-.082.153-.112.245a12.187,12.187,0,0,0-.552,2.342,8.445,8.445,0,0,0,0,2.27,11.864,11.864,0,0,0,.44,2.2h.051a18.679,18.679,0,0,1,0-2.27c.092-.767.235-1.473.337-2.209a19.251,19.251,0,0,1,.419-2.138c.174-.716.317-1.462.532-2.178C274.386,281.34,274.263,281.3,274.212,281.371Z" transform="translate(-125.866 -48.464)" fill="#263238"/>
        <path id="Path_262537" data-name="Path 262537" d="M230.383,139.812c-8.028,5.788-45.54,21.036-59.213,14.144-13.929-7.036-27.725-44.824-30.465-48.066-7.517-8.979,24.81-21.7,27.766-15.473,4.94,10.4,15.432,38.176,20.249,38.78,10.135,1.268,19.431-.051,35.282-.245C235.118,128.8,239.209,133.42,230.383,139.812Z" transform="translate(-128.866 -52.83)" fill="#eb9481"/>
        <path id="Path_262538" data-name="Path 262538" d="M171.806,97.09s13.152,29.658,16.117,30.476c4.94,1.411,31.7.481,41.316.644s18.868,8.672-3.9,17.171-41.93,12.927-54.314,10.145c-7.69-1.739-28.809-35.078-28.809-35.078Z" transform="translate(-128.806 -52.641)" fill="#4488c8"/>
        <path id="Path_262540" data-name="Path 262540" d="M147.821,125.692c10.544-9.94,23.082-18.694,25.158-20.382.1-.082.215.092.113.174-2.127,1.544-15.4,13.192-25.158,20.453C147.821,125.968,147.719,125.784,147.821,125.692Z" transform="translate(-128.679 -52.455)" fill="#263238"/>
        <path id="Path_262541" data-name="Path 262541" d="M238.979,134.15c-.409,3.007-4.244,6.7-14.144,10.39-22.754,8.509-41.93,12.927-54.3,10.145-1.534-.348-3.61-1.953-5.942-4.316C182.129,146.586,224.416,137.484,238.979,134.15Z" transform="translate(-128.298 -51.801)" opacity="0.1"/>
        <path id="Path_262542" data-name="Path 262542" d="M142.992,109.947c3.17,2.362,25.567-10.82,26.078-14.839a15.8,15.8,0,0,0-.389-4.091h0s1.575-8.9,5.522-15.841c3.3-5.829,8.877-14.113,5.809-16-4.469-2.782-12.773,6.852-17.212,12.661-1.575-3.651-3.262-6.637-4.9-8.028-5.41-4.551-28.931,16.987-27.581,24.063C131.64,94.7,139.822,107.595,142.992,109.947Z" transform="translate(-129.077 -53.512)" fill="#eb9481"/>
        <path id="Path_262543" data-name="Path 262543" d="M164.853,72.7c-1.268,3.457-4.622,0-4.622,0s3.62,6.136.931,9.2-6.494-1.391-6.78-1.7c.184.327,3.365,6.075.348,8.877s-6.31-2.127-6.514-2.454c.082.368,1.074,5.216-1.708,6.821-4.776,2.751-7.639-9.582-11.515-11.781,0,0-4.479,6.136-4.653,6.31,0,0-2.966-11.679.3-16.751a3.845,3.845,0,0,1,4.551-1.606s-1.37-3.661.931-5.931c1.186-1.166,4.091-.307,4.091-.307s-1.023-2.976,1.2-4.878c1.739-1.524,4.4-.419,4.4-.419s.389-3.293,2.669-4.265C153.071,51.84,167.563,65.258,164.853,72.7Z" transform="translate(-129.103 -53.627)" fill="#eb9481"/>
        <path id="Path_262544" data-name="Path 262544" d="M145.89,58.1s0-.123.051-.092a34.311,34.311,0,0,1,14.113,14.737c.092.2-.194.44-.337.245A70.289,70.289,0,0,0,145.89,58.1Z" transform="translate(-128.722 -53.527)" fill="#263238"/>
        <path id="Path_262545" data-name="Path 262545" d="M139.941,63.072c-.061,0,0-.143.082-.1,6.013,3.4,11.955,9.613,14.4,17.038.082.256-.1.562-.215.276C152.2,75.477,144.972,67.01,139.941,63.072Z" transform="translate(-128.858 -53.415)" fill="#263238"/>
        <path id="Path_262546" data-name="Path 262546" d="M148.064,86.85c-2.618-7.026-7.22-12.507-12.763-17.457-.072-.061,0-.153.1-.123,3.365,1.687,6.576,5.205,8.836,8.181a19.942,19.942,0,0,1,4.091,9.337C148.289,86.9,148.125,87,148.064,86.85Z" transform="translate(-128.963 -53.272)" fill="#263238"/>
        <path id="Path_262547" data-name="Path 262547" d="M160.222,72.28c.112.245-.358.143-.256.389.44,1.023,2.536,7.425.583,8.815-1.575,1.115-4.162-.225-4.95-1.135l-1.994-2.219,1.084,2.833a12.272,12.272,0,0,1,.828,3.917,4.418,4.418,0,0,1-1.125,3.436,2.526,2.526,0,0,1-3.15.44,7.567,7.567,0,0,1-2.628-2.782l-1.841-3.068.726,3.487a11.9,11.9,0,0,1,.235,2.956,4.806,4.806,0,0,1-.828,2.638,2.27,2.27,0,0,1-2.229.88,5.113,5.113,0,0,1-2.311-1.616,40.517,40.517,0,0,1-3.569-5.113c-.573-.88-1.135-1.769-1.749-2.628a7.527,7.527,0,0,0-2.189-2.25,8.09,8.09,0,0,1,1.943,2.414c.542.89,1.023,1.81,1.534,2.741a33.485,33.485,0,0,0,3.385,5.369,5.911,5.911,0,0,0,2.71,2.045,3.232,3.232,0,0,0,3.334-1.176,5.819,5.819,0,0,0,1.115-3.273,12.8,12.8,0,0,0-.215-3.3l-1.1.419a8.683,8.683,0,0,0,3.068,3.313,3.61,3.61,0,0,0,2.434.47,4.142,4.142,0,0,0,2.158-1.145,5.533,5.533,0,0,0,1.432-4.346,13.141,13.141,0,0,0-1.023-4.3l-.91.552c1.023,1.115,3.774,2.925,6.422,1.514C164.385,80.175,160.938,73.466,160.222,72.28Z" transform="translate(-128.972 -53.204)" fill="#263238"/>
        <path id="Path_262548" data-name="Path 262548" d="M159.54,72.336a7.608,7.608,0,0,0,2.045,1.023,1.7,1.7,0,0,0,1.7-.348,3.436,3.436,0,0,0,.787-1.81c.123-.736.225-1.514.286-2.311a5.7,5.7,0,0,1,.511,2.383A3.416,3.416,0,0,1,164,73.758a2.475,2.475,0,0,1-1.329.624,2.659,2.659,0,0,1-1.37-.266,4.009,4.009,0,0,1-1.759-1.779Z" transform="translate(-128.413 -53.281)" fill="#263238"/>
        <path id="Path_262549" data-name="Path 262549" d="M257.82,220.075c-.215.164-66.187-7.159-66.729-8.008-.757-1.248,18.9-69.634,33.994-83.675,3.774-3.508,14.215-1.943,18.408,2.587C264.314,153.468,258.566,219.492,257.82,220.075Z" transform="translate(-127.698 -51.975)" fill="#fff"/>
        <path id="Path_262550" data-name="Path 262550" d="M224.619,128.37l-25.332,92.347-12.957-9.3s21.139-59.826,27.275-69.347S224.619,128.37,224.619,128.37Z" transform="translate(-127.805 -51.932)" fill="#4488c8"/>
        <path id="Path_262552" data-name="Path 262552" d="M238.426,127.73S237.4,163.258,237.4,171.6s-1.933,53.915-1.933,53.915l30.015-5.471s-5.481-44.19-7.384-54.4S248.161,130.737,238.426,127.73Z" transform="translate(-126.691 -51.946)" fill="#4488c8"/>
        <path id="Path_262554" data-name="Path 262554" d="M245.5,147.776c17.447,17.866,40.569,36.98,53.424,34.249,11.628-2.475,28.338-16.107,46.573-30.8,3.62-2.915-20.545-29.893-24.094-26.4-6.985,6.883-21.323,24.452-26.671,26.4-2.291.828-27.939-11.986-44.752-18.408C229.566,125.011,238.545,140.658,245.5,147.776Z" transform="translate(-126.647 -52.019)" fill="#eb9481"/>
        <path id="Path_262555" data-name="Path 262555" d="M359.706,139.237c-4.786,5.758-21.394,16.557-25.567,17.14s-18.551-23.429-16.956-27.489,19.2-22.212,26.682-23.757S364.665,133.265,359.706,139.237Z" transform="translate(-124.841 -52.46)" fill="#eb9481"/>
        <path id="Path_262556" data-name="Path 262556" d="M332.47,109.953c-.583,3.917,4.377,2.373,4.377,2.373s-6.606,3.948-5.645,8.181c.931,4.091,6.852,2.045,7.281,1.892-.348.215-6.32,4.009-4.909,8.181,1.462,4.367,7.046,1.258,7.414,1.023-.266.307-3.7,4.377-1.912,7.322,3.068,5.113,12.16-5.113,16.966-5.175,0,0,2.915,5.737,3,5.962,0,0,6.964-7.1,6.5-13.571a4.091,4.091,0,0,0-3.467-3.866s3.191-2.751,2.189-6.136c-.522-1.718-3.723-2.414-3.723-2.414s2.454-2.311,1.381-5.226c-.849-2.332-3.927-2.669-3.927-2.669s1.329-3.313-.317-5.41C354.376,96.341,333.738,101.546,332.47,109.953Z" transform="translate(-124.523 -52.598)" fill="#eb9481"/>
        <path id="Path_262557" data-name="Path 262557" d="M357.4,105.713a.061.061,0,0,0,0-.113,36.878,36.878,0,0,0-20.934,6.627c-.194.143-.051.511.194.4a75.442,75.442,0,0,1,20.74-6.913Z" transform="translate(-124.404 -52.448)" fill="#263238"/>
        <path id="Path_262558" data-name="Path 262558" d="M360.5,113.483c.082,0,.061-.143,0-.143-7.425.1-16.25,2.9-22.4,8.652-.2.194-.194.583.061.378C342.49,118.852,353.689,114.6,360.5,113.483Z" transform="translate(-124.368 -52.273)" fill="#263238"/>
        <path id="Path_262559" data-name="Path 262559" d="M340.484,131.743c6.136-5.287,13.295-8.079,21.077-9.889.1,0,.061-.164,0-.174-4.091-.153-8.9,1.524-12.558,3.14a21.22,21.22,0,0,0-8.672,6.709C340.208,131.641,340.352,131.856,340.484,131.743Z" transform="translate(-124.315 -52.084)" fill="#263238"/>
        <path id="Path_262560" data-name="Path 262560" d="M336.859,112a22.754,22.754,0,0,0-3.324,2.935,8.109,8.109,0,0,0-2.158,3.651,2.679,2.679,0,0,0,.3,1.892,3.856,3.856,0,0,0,1.391,1.391,4.8,4.8,0,0,0,3.866.1L340,120.846l-2.475,2.117a13.169,13.169,0,0,0-2.812,3.262,4.786,4.786,0,0,0-.706,3.835,2.731,2.731,0,0,0,2.741,2.045,8.243,8.243,0,0,0,3.917-1.268l3.324-1.953L341.5,131.8a12.591,12.591,0,0,0-1.749,2.679,5.206,5.206,0,0,0-.583,2.915,2.454,2.454,0,0,0,1.646,1.984,5.409,5.409,0,0,0,3.017-.327,42.853,42.853,0,0,0,6-2.945c1.023-.542,1.984-1.084,3.007-1.585a8.038,8.038,0,0,1,3.232-1.023,8.7,8.7,0,0,0-3.068,1.268c-1.023.573-1.912,1.186-2.863,1.8a36.028,36.028,0,0,1-5.972,3.324,6.31,6.31,0,0,1-3.6.511,3.477,3.477,0,0,1-2.546-2.833,6.4,6.4,0,0,1,.624-3.641,14.219,14.219,0,0,1,1.9-3.007l.839.972a9.5,9.5,0,0,1-4.622,1.544,3.968,3.968,0,0,1-2.536-.818,4.417,4.417,0,0,1-1.452-2.2,6.044,6.044,0,0,1,.89-4.847,14.728,14.728,0,0,1,3.15-3.549l.583,1.023a5.676,5.676,0,0,1-4.776-.378,4.777,4.777,0,0,1-1.636-1.8,3.477,3.477,0,0,1-.266-2.434,8.314,8.314,0,0,1,2.567-3.774A19.789,19.789,0,0,1,336.859,112Z" transform="translate(-124.534 -52.303)" fill="#263238"/>
        <path id="Path_262561" data-name="Path 262561" d="M319.54,125.327s9.03-30.465,19.206-21.1c3.068,2.782,12.119,17.815,9.143,19.707-3.855,2.434-8.826-3.14-11.393-7.159,0,0-1.616,10.789-9.46,11.914a7.885,7.885,0,0,1-7.5-3.365Z" transform="translate(-124.785 -52.52)" fill="#eb9481"/>
        <path id="Path_262562" data-name="Path 262562" d="M337.652,103.48a16.677,16.677,0,0,1,3.467,3.375,35.8,35.8,0,0,1,2.792,3.988,55.843,55.843,0,0,1,4.438,8.672,9.2,9.2,0,0,1,.614,2.506,3.478,3.478,0,0,1-.184,1.462,2.536,2.536,0,0,1-.4.716,2.65,2.65,0,0,1-.6.532,4.091,4.091,0,0,1-2.782.542,7.843,7.843,0,0,1-2.5-.92,14.688,14.688,0,0,1-3.784-3.293,32.739,32.739,0,0,1-2.894-3.968l1.023-.235a20.107,20.107,0,0,1-1.023,3.59,17.462,17.462,0,0,1-1.667,3.293,12.6,12.6,0,0,1-2.444,2.761,9.593,9.593,0,0,1-3.18,1.779,10.923,10.923,0,0,0,2.915-2.045,13.3,13.3,0,0,0,2.107-2.843,18.294,18.294,0,0,0,1.411-3.242,19.362,19.362,0,0,0,.777-3.416l.174-1.432.849,1.2a37.135,37.135,0,0,0,2.9,3.733,14.583,14.583,0,0,0,3.5,2.976c1.258.706,2.833,1.084,3.876.409.972-.511.593-2.24.1-3.661a44.7,44.7,0,0,0-1.841-4.377c-.665-1.452-1.36-2.894-2.117-4.3C341.61,108.5,340.025,105.658,337.652,103.48Z" transform="translate(-124.581 -52.496)" fill="#263238"/>
        <path id="Path_262563" data-name="Path 262563" d="M317.873,128.19s-21.149,21.568-24.237,21.374c-5.113-.327-36.192-15.064-45.3-18.132s-18.879-1.258-4.479,15.759c16.25,19.2,34.444,36.295,53.251,36.315,10.135,0,41.694-22.028,41.694-22.028Z" transform="translate(-126.667 -51.936)" fill="#4488c8"/>
        <path id="Path_262565" data-name="Path 262565" d="M329.008,163.143c-6.606-12.906-15.483-25.342-16.884-27.612-.061-.112-.225,0-.153.123,1.483,2.168,10.094,17.59,16.864,27.612C328.916,163.4,329.08,163.266,329.008,163.143Z" transform="translate(-124.957 -51.771)" fill="#263238"/>
        <path id="Path_262566" data-name="Path 262566" d="M257.142,161.337a18.246,18.246,0,0,1-1.35-1.6c-.5-.542-1.023-1.084-1.5-1.626-1.023-1.023-1.953-2.045-2.925-3.14-1.933-2.1-3.988-4.091-5.993-6.136h0c1.831,2.209,3.63,4.428,5.614,6.5l.133.143-1.166-.788c-.808-.542-1.616-1.084-2.413-1.636,0,0-.1.051-.061.082.747.614,1.514,1.2,2.322,1.739.409.276.818.542,1.248.8l.593.348,2.24,2.321c.511.522,1.023,1.023,1.554,1.554s1.166.92,1.636,1.483C257.091,161.531,257.264,161.409,257.142,161.337Z" transform="translate(-126.468 -51.468)" fill="#263238"/>
        <path id="Path_262567" data-name="Path 262567" d="M225.991,141.167c3.129.757,10.84-3.866,14.379-8.335.235-.307.317-3.958.634-8.386.194-2.69.481-5.676.941-8.386l-17.672,1.258a43.782,43.782,0,0,1-.123,10.666,5.7,5.7,0,0,1-.307,1.094q0,.077,0,.184C223.087,131.339,221.092,139.98,225.991,141.167Z" transform="translate(-126.979 -52.211)" fill="#eb9481"/>
        <path id="Path_262568" data-name="Path 262568" d="M223.831,129.077a.646.646,0,0,0-.061.184,10.816,10.816,0,0,0,1.728.389c9.695,1.411,14.041-9.961,15.146-13.5l-16.363,1.156a43.973,43.973,0,0,1-.1,10.687,7.029,7.029,0,0,1-.348,1.084Z" transform="translate(-126.957 -52.209)" fill="#263238"/>
        <path id="Path_262569" data-name="Path 262569" d="M249.931,96.495c.256,6.371-7.343,22.622-12.538,25.321-7.537,3.917-17.651,1.831-20.453-6.719-2.679-8.294,7.588-29.289,13.192-31.509C238.416,80.306,249.553,87.1,249.931,96.495Z" transform="translate(-127.121 -52.966)" fill="#eb9481"/>
        <path id="Path_262570" data-name="Path 262570" d="M235.3,99.654a14.611,14.611,0,0,1-1.176-1.084A2.557,2.557,0,0,1,233.1,97.24a.839.839,0,0,1,.522-.869,2.045,2.045,0,0,1,1.974.624,2.976,2.976,0,0,1,1.074,1.871.879.879,0,0,1-1.37.787Z" transform="translate(-126.745 -52.659)" fill="#a6a6a6"/>
        <path id="Path_262571" data-name="Path 262571" d="M224.585,95.044a15.538,15.538,0,0,0,1.585.245,2.618,2.618,0,0,0,1.657-.061.839.839,0,0,0,.358-.941,2.045,2.045,0,0,0-1.728-1.156,2.945,2.945,0,0,0-2.137.327.879.879,0,0,0,.266,1.585Z" transform="translate(-126.953 -52.733)" fill="#a6a6a6"/>
        <path id="Path_262572" data-name="Path 262572" d="M229.112,111.872a1.779,1.779,0,0,1-1.217.256,3.243,3.243,0,0,1-1.074-.787h-.072a1.647,1.647,0,0,0,1.156,1.207,1.258,1.258,0,0,0,1.289-.6C229.245,111.913,229.164,111.851,229.112,111.872Z" transform="translate(-126.889 -52.318)" fill="#263238"/>
        <path id="Path_262573" data-name="Path 262573" d="M229.458,108.443a4.091,4.091,0,0,1-3.252.593,5.388,5.388,0,0,1-1.381-.522,1.411,1.411,0,0,1-.245-.143,1.023,1.023,0,0,1-.225-.143.3.3,0,0,1-.123-.337h0a.553.553,0,0,1,.051-.112h0v-.092c.348-.869,1.023-2.127,1.023-2.127-.378,0-2.27,0-2.045-.389a61.541,61.541,0,0,1,6.381-10.8c.072-.112.256,0,.184.113-1.6,3.528-3.8,6.76-5.471,10.278a6.954,6.954,0,0,1,2.045.225c.1.082-1.289,2.414-1.411,2.823a5.717,5.717,0,0,0,4.438.46C229.5,108.31,229.56,108.382,229.458,108.443Z" transform="translate(-126.969 -52.704)" fill="#263238"/>
        <path id="Path_262574" data-name="Path 262574" d="M225.46,108a4.827,4.827,0,0,0,1.2,2.158,2.2,2.2,0,0,0,1.2.6c1.023.153,1.36-.654,1.493-1.422a5.387,5.387,0,0,0,.061-1.237A6.351,6.351,0,0,1,225.46,108Z" transform="translate(-126.918 -52.394)" fill="#263238"/>
        <path id="Path_262575" data-name="Path 262575" d="M226.63,110.122a2.2,2.2,0,0,0,1.2.6c1.023.153,1.36-.654,1.493-1.422a2.281,2.281,0,0,0-2.69.818Z" transform="translate(-126.892 -52.368)" fill="#ff9bbc"/>
        <path id="Path_262576" data-name="Path 262576" d="M234.063,102.269a1.841,1.841,0,0,0-.072-.961,1.35,1.35,0,0,0-.757-.726,1.207,1.207,0,0,0-1.023.153,2.045,2.045,0,0,0-.624.706,4.878,4.878,0,0,0-.225.532,2.537,2.537,0,0,0-.143,1.166,4.216,4.216,0,0,1,.327-.8,5.978,5.978,0,0,1,.419-.655c.317-.419.736-.716,1.115-.552a1.023,1.023,0,0,1,.563,1.094,8.643,8.643,0,0,1-.235,1.636,3.846,3.846,0,0,0,.655-1.6Z" transform="translate(-126.788 -52.563)" fill="#263238"/>
        <path id="Path_262577" data-name="Path 262577" d="M223.476,97.416a1.912,1.912,0,0,1,.747-.6,1.319,1.319,0,0,1,1.023,0,1.2,1.2,0,0,1,.624.859,2.046,2.046,0,0,1-.092.941,3.409,3.409,0,0,1-.215.532,2.588,2.588,0,0,1-.747.91,3.561,3.561,0,0,0,.348-.787,5.113,5.113,0,0,0,.184-.757c.082-.522,0-1.023-.368-1.186a1.023,1.023,0,0,0-1.186.348,8.323,8.323,0,0,0-1.023,1.309,3.641,3.641,0,0,1,.706-1.565Z" transform="translate(-126.979 -52.65)" fill="#263238"/>
        <g id="Group_229454" data-name="Group 229454" transform="translate(99.108 37.308)" opacity="0.2">
          <path id="Path_262578" data-name="Path 262578" d="M233.567,93.615a15.106,15.106,0,0,1-1.9-.573c-.624-.266-1.186-.644-1.81-.89a10.964,10.964,0,0,0-3.753-.573c-.112,0-.123.072,0,.072a9.4,9.4,0,0,1,3.876.9,11.731,11.731,0,0,0,3.068,1.217,11.822,11.822,0,0,1,6.525,3.354h0A11.894,11.894,0,0,0,233.567,93.615Z" transform="translate(-226.014 -90.074)"/>
          <path id="Path_262579" data-name="Path 262579" d="M234.209,92.043a14,14,0,0,1-1.8-.542c-.593-.256-1.125-.614-1.718-.849a10.329,10.329,0,0,0-3.559-.542c-.1,0-.112.061,0,.072a8.856,8.856,0,0,1,3.671.849,11.055,11.055,0,0,0,2.894,1.156,11.249,11.249,0,0,1,6.218,3.14h0a11.25,11.25,0,0,0-5.707-3.283Z" transform="translate(-225.99 -90.107)"/>
        </g>
        <path id="Path_262580" data-name="Path 262580" d="M224.92,88.248c4.5,6.238,14.88,2.986,14.88,2.986a6.9,6.9,0,0,0,5.113,6.474s-2.454,10.513.215,11.444c4.091,1.442,10.227-11.863,9.961-15.033s-3.5-5.113-3.5-5.113a7.036,7.036,0,0,0-1.319-5c-2.045-3.068-12.6-3.7-12.6-3.7a9.511,9.511,0,0,0-1.258-4.183,2.659,2.659,0,0,0-3.733-.961,6.218,6.218,0,0,1,.072,2.833c-.583,3.129-3,2.25-2.045-.419a4.387,4.387,0,0,1,1.933-2.413c-.562-2.178-2.3-3.457-3.825-2.935C226.055,73.174,221.177,83.073,224.92,88.248Z" transform="translate(-126.961 -53.208)" fill="#a6a6a6"/>
        <path id="Path_262581" data-name="Path 262581" d="M230.35,107.32a4.909,4.909,0,0,1-1.493-6.77h0a4.9,4.9,0,1,1,2.6,7.292A4.54,4.54,0,0,1,230.35,107.32Zm-.941-6.422a4.244,4.244,0,1,0,5.86-1.289,4.028,4.028,0,0,0-.951-.45,4.254,4.254,0,0,0-4.909,1.739Z" transform="translate(-126.859 -52.614)" fill="#455a64"/>
        <path id="Path_262582" data-name="Path 262582" d="M221.181,103.023c-1.82-.849-2.383-3.538-1.237-5.983a5.87,5.87,0,0,1,2.383-2.669,3.068,3.068,0,0,1,4.735,2.209,5.8,5.8,0,0,1-.5,3.538c-1.084,2.321-3.3,3.61-5.113,3.068Zm1.462-8.079a5.174,5.174,0,0,0-2.107,2.373c-1.023,2.117-.573,4.418.92,5.113s3.518-.46,4.51-2.587a5.205,5.205,0,0,0,.45-3.14,2.618,2.618,0,0,0-1.381-1.974l-.225-.092A2.71,2.71,0,0,0,222.643,94.944Z" transform="translate(-127.057 -52.714)" fill="#455a64"/>
        <path id="Path_262583" data-name="Path 262583" d="M228.809,101.118l.593-.276c-.409-.879-1.616-2.362-3.242-1.708l.245.6C227.868,99.144,228.768,101.046,228.809,101.118Z" transform="translate(-126.902 -52.598)" fill="#455a64"/>
        <path id="Path_262584" data-name="Path 262584" d="M247.819,111.371h.655c0-.3-.153-3-1.381-3.835s-9.46-3.733-9.807-3.866l-.225.624c2.383.849,8.775,3.181,9.664,3.784S247.788,110.634,247.819,111.371Z" transform="translate(-126.655 -52.492)" fill="#455a64"/>
        <path id="Path_262585" data-name="Path 262585" d="M242.111,108.914s5.389-4.4,7.5-2.321-3.068,9.2-6.279,9.47a3.068,3.068,0,0,1-3.528-2.731Z" transform="translate(-126.593 -52.438)" fill="#eb9481"/>
        <path id="Path_262586" data-name="Path 262586" d="M248.039,108.541c.051,0,0,.082,0,.082-2.291.245-3.907,1.841-5.226,3.6a1.708,1.708,0,0,1,2.587.245.072.072,0,0,1-.082.1,1.9,1.9,0,0,0-2.2.061,9.34,9.34,0,0,0-1.422,1.35c-.153.164-.46,0-.327-.225h0C242.1,111.057,245.165,107.989,248.039,108.541Z" transform="translate(-126.558 -52.383)" fill="#263238"/>
        <path id="Path_262587" data-name="Path 262587" d="M223.75,128.517l3.784,10.585,13.458-12.691,3.508,4.377s-13.479,20.453-13.52,19.513l-3.948-9.2-6.443,6.013,1.1-15.678Z" transform="translate(-127.029 -51.976)" fill="#ebebeb"/>
        <path id="Path_262588" data-name="Path 262588" d="M220.7,139.264c.276-2.577.47-5.185.859-7.752a.092.092,0,0,1,.184,0c.419,2.516-.665,12.385-.746,14.757h0c.266-.266,5.962-5.277,6.013-5.2.869,1.462,3.774,8.181,3.968,8.734,2.127-3.252,10.227-15.054,12.773-18.112a.085.085,0,0,1,.143.092c-1.9,3.446-12.691,19.349-12.845,19.3a99.567,99.567,0,0,1-4.091-9.674c-1.023,1.1-6.739,6.791-6.739,6.412a81.706,81.706,0,0,1,.481-8.56Z" transform="translate(-127.037 -51.863)" fill="#263238"/>
      </g>
      <g id="freepik--Sparkles--inject-72" transform="translate(132.293 61.535)">
        <path id="Path_262589" data-name="Path 262589" d="M281.084,259.323l-4.132.767-.92,4.346-.92-4.346-4.121-.767,4.1-1,.941-4.111.941,4.111Z" transform="translate(-126.681 -56.272)" fill="#ffc727"/>
        <path id="Path_262590" data-name="Path 262590" d="M212.364,69.613l-4.132.767-.92,4.346-.92-4.346-4.121-.767,4.1-1,.941-4.111.941,4.111Z" transform="translate(-128.239 -60.573)" fill="#ffc727"/>
        <path id="Path_262591" data-name="Path 262591" d="M163.964,206.123l-4.132.757-.92,4.346-.92-4.346-4.121-.757,4.1-1,.941-4.111.941,4.111Z" transform="translate(-129.336 -57.478)" fill="#ffc727"/>
        <path id="Path_262592" data-name="Path 262592" d="M278.524,188.993l-4.121.767-.92,4.346-.92-4.346-4.132-.767,4.111-1,.941-4.111.941,4.111Z" transform="translate(-126.739 -57.866)" fill="#ffc727"/>
        <path id="Path_262593" data-name="Path 262593" d="M330.545,172.154l-2.3.419-.522,2.434-.511-2.434-2.3-.419,2.291-.562.522-2.3.532,2.3Z" transform="translate(-125.458 -58.197)" fill="#ffc727"/>
        <path id="Path_262594" data-name="Path 262594" d="M190.795,164.323l-2.3.43-.511,2.434-.522-2.434-2.3-.43,2.291-.562.532-2.291.522,2.291Z" transform="translate(-128.627 -58.374)" fill="#ffc727"/>
        <path id="Path_262595" data-name="Path 262595" d="M260.655,85.223l-2.311.43-.511,2.424-.511-2.424-2.311-.43,2.3-.562.522-2.291.522,2.291Z" transform="translate(-127.043 -60.168)" fill="#ffc727"/>
        <path id="Path_262596" data-name="Path 262596" d="M313.235,210.593l-2.3.419-.511,2.434-.522-2.434-2.3-.419,2.291-.562.532-2.3.522,2.3Z" transform="translate(-125.851 -57.326)" fill="#ffc727"/>
        <path id="Path_262597" data-name="Path 262597" d="M294.905,215.164l-2.311.419-.511,2.434-.522-2.434-2.3-.419,2.291-.562.532-2.3.522,2.3Z" transform="translate(-126.266 -57.222)" fill="#ffc727"/>
        <path id="Path_262598" data-name="Path 262598" d="M294.905,120.513l-2.311.43-.511,2.434-.522-2.434-2.3-.43,2.291-.562.532-2.291.522,2.291Z" transform="translate(-126.266 -59.368)" fill="#ffc727"/>
        <path id="Path_262599" data-name="Path 262599" d="M197.045,117.114l-2.311.419-.511,2.434-.522-2.434-2.3-.419,2.3-.562.522-2.3.522,2.3Z" transform="translate(-128.485 -59.445)" fill="#ffc727"/>
        <path id="Path_262600" data-name="Path 262600" d="M141.5,114.653l-2.3.43-.522,2.434-.511-2.434-2.3-.43,2.291-.562.522-2.291.532,2.291Z" transform="translate(-129.744 -59.501)" fill="#ffc727"/>
        <path id="Path_262601" data-name="Path 262601" d="M171.8,226.433l-2.3.429-.511,2.424-.522-2.424-2.3-.429,2.291-.562.532-2.291.522,2.291Z" transform="translate(-129.057 -56.966)" fill="#ffc727"/>
        <path id="Path_262602" data-name="Path 262602" d="M285.495,225.72a.665.665,0,1,0,.665.665A.665.665,0,0,0,285.495,225.72Z" transform="translate(-126.367 -56.918)" fill="#ffc727"/>
        <path id="Path_262603" data-name="Path 262603" d="M295.423,134.07a.675.675,0,1,0,.592.67A.675.675,0,0,0,295.423,134.07Z" transform="translate(-126.14 -58.996)" fill="#ffc727"/>
        <path id="Path_262604" data-name="Path 262604" d="M180.413,78a.675.675,0,1,0,.592.67A.675.675,0,0,0,180.413,78Z" transform="translate(-128.748 -60.267)" fill="#ffc727"/>
        <path id="Path_262605" data-name="Path 262605" d="M130.545,119.15a.665.665,0,1,0,.665.665A.665.665,0,0,0,130.545,119.15Z" transform="translate(-129.88 -59.334)" fill="#ffc727"/>
        <path id="Path_262606" data-name="Path 262606" d="M168.943,183.88a.675.675,0,1,0,.592.67A.675.675,0,0,0,168.943,183.88Z" transform="translate(-129.008 -57.866)" fill="#ffc727"/>
        <path id="Path_262607" data-name="Path 262607" d="M149.59,171.93a.47.47,0,1,0,.47.47.47.47,0,0,0-.47-.47Z" transform="translate(-129.444 -58.137)" fill="#ffc727"/>
        <path id="Path_262608" data-name="Path 262608" d="M185.55,94a.47.47,0,1,0,.47.47A.47.47,0,0,0,185.55,94Z" transform="translate(-128.628 -59.904)" fill="#ffc727"/>
        <path id="Path_262609" data-name="Path 262609" d="M199.259,158.92a.481.481,0,1,0,.411.476A.481.481,0,0,0,199.259,158.92Z" transform="translate(-128.316 -58.432)" fill="#ffc727"/>
        <path id="Path_262610" data-name="Path 262610" d="M156.619,242.62a.481.481,0,1,0,.411.476A.481.481,0,0,0,156.619,242.62Z" transform="translate(-129.283 -56.534)" fill="#ffc727"/>
        <path id="Path_262611" data-name="Path 262611" d="M271.606,232.15a1.289,1.289,0,1,0,1.174,1.283A1.289,1.289,0,0,0,271.606,232.15Z" transform="translate(-126.693 -56.772)" fill="#ffc727"/>
        <path id="Path_262612" data-name="Path 262612" d="M346.918,160a1.278,1.278,0,1,0,1.278,1.278A1.278,1.278,0,0,0,346.918,160Z" transform="translate(-124.988 -58.408)" fill="#ffc727"/>
        <path id="Path_262613" data-name="Path 262613" d="M220.476,60.66a1.289,1.289,0,1,0,1.174,1.283,1.289,1.289,0,0,0-1.174-1.283Z" transform="translate(-127.853 -60.66)" fill="#ffc727"/>
        <path id="Path_262614" data-name="Path 262614" d="M204.026,110.58a1.289,1.289,0,1,0,1.174,1.283,1.289,1.289,0,0,0-1.174-1.283Z" transform="translate(-128.226 -59.528)" fill="#ffc727"/>
        <path id="Path_262615" data-name="Path 262615" d="M162.546,238.37a1.289,1.289,0,1,0,1.174,1.283A1.289,1.289,0,0,0,162.546,238.37Z" transform="translate(-129.166 -56.631)" fill="#ffc727"/>
      </g>
    </g>
  </g>
</svg>
